M48
; DRILL file {KiCad (5.1.9)-1} date 10/29/22 21:13:44
; FORMAT={-:-/ absolute / metric / decimal}
; #@! TF.CreationDate,2022-10-29T21:13:44+09:00
; #@! TF.GenerationSoftware,Kicad,Pcbnew,(5.1.9)-1
FMAT,2
METRIC
T1C0.300
T2C0.800
T3C1.000
T4C3.200
%
G90
G05
T1
X11.54Y112.803
X24.292Y115.35
X26.047Y77.851
X26.284Y30.79
X29.672Y115.963
X31.816Y114.89
X32.211Y82.463
X33.645Y57.123
X34.4Y114.578
X36.988Y56.463
X38.583Y58.249
X39.835Y113.698
X41.304Y97.762
X43.086Y98.774
X43.242Y73.93
X43.242Y70.925
X44.06Y99.416
X44.626Y112.463
X45.388Y77.037
X45.86Y90.401
X46.339Y80.221
X48.747Y91.343
X54.026Y112.501
X55.006Y96.45
X56.193Y114.842
T2
X10.416Y86.709
X10.416Y84.169
X10.416Y81.629
X10.416Y79.089
X10.416Y76.549
X10.416Y74.009
X10.416Y71.469
X12.131Y108.255
X12.131Y105.755
X12.275Y53.985
X12.275Y38.745
X12.869Y67.913
X14.815Y53.985
X14.815Y38.745
X15.369Y67.913
X15.56Y110.835
X15.56Y103.215
X17.355Y53.985
X17.355Y38.745
X18.036Y86.709
X18.036Y84.169
X18.036Y81.629
X18.036Y79.089
X18.036Y76.549
X18.036Y74.009
X18.036Y71.469
X18.1Y110.835
X18.1Y103.215
X19.895Y53.985
X19.895Y38.745
X20.64Y110.835
X20.64Y103.215
X22.435Y53.985
X22.435Y38.745
X23.18Y110.835
X23.18Y103.215
X24.702Y96.901
X24.702Y94.361
X24.702Y91.821
X24.702Y89.281
X24.702Y86.741
X24.702Y84.201
X24.702Y81.661
X24.702Y79.121
X24.702Y76.581
X24.702Y74.041
X24.702Y71.501
X24.702Y68.961
X24.702Y66.421
X24.702Y63.881
X24.975Y53.985
X24.975Y38.745
X25.72Y110.835
X25.72Y103.215
X27.515Y53.985
X27.515Y38.745
X28.26Y110.835
X28.26Y103.215
X30.055Y53.985
X30.055Y38.745
X30.8Y110.835
X30.8Y103.215
X31.052Y60.401
X32.595Y53.985
X32.595Y38.745
X33.552Y60.401
X34.737Y108.382
X34.737Y105.882
X35.135Y53.985
X35.135Y38.745
X37.675Y53.985
X37.675Y38.745
X38.407Y110.847
X38.407Y103.227
X39.942Y96.901
X39.942Y94.361
X39.942Y91.821
X39.942Y89.281
X39.942Y86.741
X39.942Y84.201
X39.942Y81.661
X39.942Y79.121
X39.942Y76.581
X39.942Y74.041
X39.942Y71.501
X39.942Y68.961
X39.942Y66.421
X39.942Y63.881
X40.215Y53.985
X40.215Y38.745
X40.947Y110.847
X40.947Y103.227
X42.755Y53.985
X42.755Y38.745
X43.487Y110.847
X43.487Y103.227
X45.295Y53.985
X45.295Y38.745
X46.027Y110.847
X46.027Y103.227
X47.835Y53.985
X47.835Y38.745
X48.567Y110.847
X48.567Y103.227
X50.375Y53.985
X50.375Y38.745
X51.107Y110.847
X51.107Y103.227
X52.197Y96.901
X52.197Y94.361
X52.197Y91.821
X52.197Y89.281
X52.197Y86.741
X52.197Y84.201
X52.197Y81.661
X52.197Y79.121
X52.197Y76.581
X52.197Y74.041
X52.197Y71.501
X52.197Y68.961
X52.197Y66.421
X52.197Y63.881
X52.915Y53.985
X52.915Y38.745
X53.647Y110.847
X53.647Y103.227
X55.455Y53.985
X55.455Y38.745
X55.88Y32.385
X55.88Y29.845
X55.88Y27.305
X55.88Y24.765
X55.88Y22.225
X55.88Y19.685
X55.88Y17.145
X55.88Y14.605
X55.88Y12.065
X55.88Y9.525
X55.88Y6.985
X55.88Y4.445
X57.995Y53.985
X57.995Y38.745
X58.42Y26.035
X58.42Y23.495
X58.42Y15.875
X58.42Y13.335
X58.697Y60.116
X60.535Y53.985
X60.535Y38.745
X61.197Y60.116
X63.83Y47.72
X63.83Y45.22
X67.437Y96.901
X67.437Y94.361
X67.437Y91.821
X67.437Y89.281
X67.437Y86.741
X67.437Y84.201
X67.437Y81.661
X67.437Y79.121
X67.437Y76.581
X67.437Y74.041
X67.437Y71.501
X67.437Y68.961
X67.437Y66.421
X67.437Y63.881
X69.088Y105.243
X69.088Y102.743
X71.12Y32.385
X71.12Y29.845
X71.12Y27.305
X71.12Y24.765
X71.12Y22.225
X71.12Y19.685
X71.12Y17.145
X71.12Y14.605
X71.12Y12.065
X71.12Y9.525
X71.12Y6.985
X71.12Y4.445
T3
X2.54Y23.485
X2.54Y3.165
X5.08Y23.485
X5.08Y3.165
X30.48Y23.485
X30.48Y20.945
X30.48Y18.405
X30.48Y15.865
X30.48Y13.325
X30.48Y10.785
X30.48Y8.245
X30.48Y5.705
X30.48Y3.165
X38.1Y19.675
X38.1Y17.135
X38.1Y14.595
X38.1Y12.055
X38.1Y9.515
X38.1Y6.975
X44.45Y1.905
X46.99Y1.905
X49.53Y1.905
T4
X5.0Y110.0
X5.0Y41.0
X74.0Y110.0
X74.0Y41.0
T0
M30
