G04 #@! TF.GenerationSoftware,KiCad,Pcbnew,(5.1.9)-1*
G04 #@! TF.CreationDate,2022-10-29T21:13:42+09:00*
G04 #@! TF.ProjectId,PC-6001_SD,50432d36-3030-4315-9f53-442e6b696361,rev?*
G04 #@! TF.SameCoordinates,PX53920b0PYad82f20*
G04 #@! TF.FileFunction,Copper,L1,Top*
G04 #@! TF.FilePolarity,Positive*
%FSLAX46Y46*%
G04 Gerber Fmt 4.6, Leading zero omitted, Abs format (unit mm)*
G04 Created by KiCad (PCBNEW (5.1.9)-1) date 2022-10-29 21:13:42*
%MOMM*%
%LPD*%
G01*
G04 APERTURE LIST*
G04 #@! TA.AperFunction,ComponentPad*
%ADD10C,1.600000*%
G04 #@! TD*
G04 #@! TA.AperFunction,ComponentPad*
%ADD11R,1.600000X2.400000*%
G04 #@! TD*
G04 #@! TA.AperFunction,ComponentPad*
%ADD12O,1.600000X2.400000*%
G04 #@! TD*
G04 #@! TA.AperFunction,ComponentPad*
%ADD13R,1.600000X1.600000*%
G04 #@! TD*
G04 #@! TA.AperFunction,ComponentPad*
%ADD14R,1.700000X1.700000*%
G04 #@! TD*
G04 #@! TA.AperFunction,ComponentPad*
%ADD15O,1.700000X1.700000*%
G04 #@! TD*
G04 #@! TA.AperFunction,ComponentPad*
%ADD16O,1.600000X1.600000*%
G04 #@! TD*
G04 #@! TA.AperFunction,ConnectorPad*
%ADD17R,1.780000X10.000000*%
G04 #@! TD*
G04 #@! TA.AperFunction,ComponentPad*
%ADD18O,2.400000X1.600000*%
G04 #@! TD*
G04 #@! TA.AperFunction,ComponentPad*
%ADD19R,2.400000X1.600000*%
G04 #@! TD*
G04 #@! TA.AperFunction,ViaPad*
%ADD20C,0.500000*%
G04 #@! TD*
G04 #@! TA.AperFunction,Conductor*
%ADD21C,0.400000*%
G04 #@! TD*
G04 #@! TA.AperFunction,Conductor*
%ADD22C,0.200000*%
G04 #@! TD*
G04 #@! TA.AperFunction,Conductor*
%ADD23C,0.254000*%
G04 #@! TD*
G04 #@! TA.AperFunction,Conductor*
%ADD24C,0.100000*%
G04 #@! TD*
G04 APERTURE END LIST*
D10*
X63830000Y47720000D03*
X63830000Y45220000D03*
D11*
X12275000Y38745000D03*
D12*
X60535000Y53985000D03*
X14815000Y38745000D03*
X57995000Y53985000D03*
X17355000Y38745000D03*
X55455000Y53985000D03*
X19895000Y38745000D03*
X52915000Y53985000D03*
X22435000Y38745000D03*
X50375000Y53985000D03*
X24975000Y38745000D03*
X47835000Y53985000D03*
X27515000Y38745000D03*
X45295000Y53985000D03*
X30055000Y38745000D03*
X42755000Y53985000D03*
X32595000Y38745000D03*
X40215000Y53985000D03*
X35135000Y38745000D03*
X37675000Y53985000D03*
X37675000Y38745000D03*
X35135000Y53985000D03*
X40215000Y38745000D03*
X32595000Y53985000D03*
X42755000Y38745000D03*
X30055000Y53985000D03*
X45295000Y38745000D03*
X27515000Y53985000D03*
X47835000Y38745000D03*
X24975000Y53985000D03*
X50375000Y38745000D03*
X22435000Y53985000D03*
X52915000Y38745000D03*
X19895000Y53985000D03*
X55455000Y38745000D03*
X17355000Y53985000D03*
X57995000Y38745000D03*
X14815000Y53985000D03*
X60535000Y38745000D03*
X12275000Y53985000D03*
D10*
X58697000Y60116000D03*
X61197000Y60116000D03*
D13*
X69088000Y102743000D03*
D10*
X69088000Y105243000D03*
X12131000Y105755000D03*
X12131000Y108255000D03*
X34737000Y108382000D03*
X34737000Y105882000D03*
D14*
X30480000Y3165000D03*
D15*
X30480000Y5705000D03*
X30480000Y8245000D03*
X30480000Y10785000D03*
X30480000Y13325000D03*
X30480000Y15865000D03*
X30480000Y18405000D03*
X30480000Y20945000D03*
X30480000Y23485000D03*
X2540000Y23485000D03*
X5080000Y23485000D03*
X2540000Y3165000D03*
X5080000Y3165000D03*
D13*
X71120000Y4445000D03*
D16*
X71120000Y6985000D03*
X71120000Y9525000D03*
X55880000Y32385000D03*
X71120000Y12065000D03*
X55880000Y29845000D03*
X71120000Y14605000D03*
X55880000Y27305000D03*
X71120000Y17145000D03*
X55880000Y24765000D03*
X71120000Y19685000D03*
X55880000Y22225000D03*
X71120000Y22225000D03*
X55880000Y19685000D03*
X71120000Y24765000D03*
X55880000Y17145000D03*
X71120000Y27305000D03*
X55880000Y14605000D03*
X71120000Y29845000D03*
X55880000Y12065000D03*
X71120000Y32385000D03*
X55880000Y9525000D03*
X55880000Y6985000D03*
X55880000Y4445000D03*
X58420000Y13335000D03*
X58420000Y15875000D03*
X58420000Y23495000D03*
X58420000Y26035000D03*
D17*
X9000000Y121615000D03*
X11540000Y121615000D03*
X14080000Y121615000D03*
X16620000Y121615000D03*
X19160000Y121615000D03*
X21700000Y121615000D03*
X24240000Y121615000D03*
X26780000Y121615000D03*
X29320000Y121615000D03*
X31860000Y121615000D03*
X34400000Y121615000D03*
X36940000Y121615000D03*
X39480000Y121615000D03*
X42020000Y121615000D03*
X44560000Y121615000D03*
X47100000Y121615000D03*
X49640000Y121615000D03*
X52180000Y121615000D03*
X54720000Y121615000D03*
X57260000Y121615000D03*
X59800000Y121615000D03*
X62340000Y121615000D03*
X64880000Y121615000D03*
X67420000Y121615000D03*
X69960000Y121615000D03*
D14*
X38100000Y6975000D03*
D15*
X38100000Y9515000D03*
X38100000Y12055000D03*
X38100000Y14595000D03*
X38100000Y17135000D03*
X38100000Y19675000D03*
D10*
X33552000Y60401000D03*
X31052000Y60401000D03*
X12869000Y67913000D03*
X15369000Y67913000D03*
D18*
X24702000Y63881000D03*
X39942000Y96901000D03*
X24702000Y66421000D03*
X39942000Y94361000D03*
X24702000Y68961000D03*
X39942000Y91821000D03*
X24702000Y71501000D03*
X39942000Y89281000D03*
X24702000Y74041000D03*
X39942000Y86741000D03*
X24702000Y76581000D03*
X39942000Y84201000D03*
X24702000Y79121000D03*
X39942000Y81661000D03*
X24702000Y81661000D03*
X39942000Y79121000D03*
X24702000Y84201000D03*
X39942000Y76581000D03*
X24702000Y86741000D03*
X39942000Y74041000D03*
X24702000Y89281000D03*
X39942000Y71501000D03*
X24702000Y91821000D03*
X39942000Y68961000D03*
X24702000Y94361000D03*
X39942000Y66421000D03*
X24702000Y96901000D03*
D19*
X39942000Y63881000D03*
D11*
X15560000Y103215000D03*
D12*
X30800000Y110835000D03*
X18100000Y103215000D03*
X28260000Y110835000D03*
X20640000Y103215000D03*
X25720000Y110835000D03*
X23180000Y103215000D03*
X23180000Y110835000D03*
X25720000Y103215000D03*
X20640000Y110835000D03*
X28260000Y103215000D03*
X18100000Y110835000D03*
X30800000Y103215000D03*
X15560000Y110835000D03*
X38407000Y110847000D03*
X53647000Y103227000D03*
X40947000Y110847000D03*
X51107000Y103227000D03*
X43487000Y110847000D03*
X48567000Y103227000D03*
X46027000Y110847000D03*
X46027000Y103227000D03*
X48567000Y110847000D03*
X43487000Y103227000D03*
X51107000Y110847000D03*
X40947000Y103227000D03*
X53647000Y110847000D03*
D11*
X38407000Y103227000D03*
D18*
X10416000Y71469000D03*
X18036000Y86709000D03*
X10416000Y74009000D03*
X18036000Y84169000D03*
X10416000Y76549000D03*
X18036000Y81629000D03*
X10416000Y79089000D03*
X18036000Y79089000D03*
X10416000Y81629000D03*
X18036000Y76549000D03*
X10416000Y84169000D03*
X18036000Y74009000D03*
X10416000Y86709000D03*
D19*
X18036000Y71469000D03*
D14*
X49530000Y1905000D03*
D15*
X46990000Y1905000D03*
X44450000Y1905000D03*
D19*
X67437000Y63881000D03*
D18*
X52197000Y96901000D03*
X67437000Y66421000D03*
X52197000Y94361000D03*
X67437000Y68961000D03*
X52197000Y91821000D03*
X67437000Y71501000D03*
X52197000Y89281000D03*
X67437000Y74041000D03*
X52197000Y86741000D03*
X67437000Y76581000D03*
X52197000Y84201000D03*
X67437000Y79121000D03*
X52197000Y81661000D03*
X67437000Y81661000D03*
X52197000Y79121000D03*
X67437000Y84201000D03*
X52197000Y76581000D03*
X67437000Y86741000D03*
X52197000Y74041000D03*
X67437000Y89281000D03*
X52197000Y71501000D03*
X67437000Y91821000D03*
X52197000Y68961000D03*
X67437000Y94361000D03*
X52197000Y66421000D03*
X67437000Y96901000D03*
X52197000Y63881000D03*
D20*
X33645300Y57123200D03*
X45860000Y90401300D03*
X41303700Y97761900D03*
X55006200Y96450200D03*
X54026400Y112501300D03*
X48747300Y91343400D03*
X56192800Y114841900D03*
X36988100Y56462900D03*
X39835500Y113697900D03*
X29671700Y115963000D03*
X43242500Y70925500D03*
X43242500Y73930400D03*
X43085800Y98773600D03*
X32211400Y82463300D03*
X46338600Y80221400D03*
X31816300Y114889600D03*
X45388400Y77036900D03*
X44626400Y112462900D03*
X34400000Y114578100D03*
X44059900Y99416100D03*
X26046800Y77850900D03*
X24292300Y115350500D03*
X38582900Y58249300D03*
X26284100Y30789800D03*
X11540000Y112803500D03*
D21*
X69088000Y102743000D02*
X69088000Y101542700D01*
X67437000Y63881000D02*
X69037300Y63881000D01*
X69037300Y63881000D02*
X69653800Y64497500D01*
X69653800Y64497500D02*
X69653800Y100976900D01*
X69653800Y100976900D02*
X69088000Y101542700D01*
X58697000Y60116000D02*
X59897000Y58916000D01*
X59897000Y58916000D02*
X62472000Y58916000D01*
X62472000Y58916000D02*
X67437000Y63881000D01*
X47835000Y53985000D02*
X47835000Y55585300D01*
X54241400Y61836600D02*
X47990100Y55585300D01*
X47990100Y55585300D02*
X47835000Y55585300D01*
X54241400Y61836600D02*
X52197000Y63881000D01*
X58697000Y60116000D02*
X55962000Y60116000D01*
X55962000Y60116000D02*
X54241400Y61836600D01*
X10416000Y70917500D02*
X8812000Y72521500D01*
X8812000Y72521500D02*
X8812000Y104936000D01*
X8812000Y104936000D02*
X12131000Y108255000D01*
X10416000Y70917500D02*
X10416000Y71469000D01*
X12869000Y67913000D02*
X10416000Y70366000D01*
X10416000Y70366000D02*
X10416000Y70917500D01*
X56725000Y47720000D02*
X54100000Y47720000D01*
X54100000Y47720000D02*
X47835000Y53985000D01*
X55880000Y12065000D02*
X54679700Y12065000D01*
X44450000Y1905000D02*
X45700300Y1905000D01*
X45700300Y1905000D02*
X45700300Y3085600D01*
X45700300Y3085600D02*
X54679700Y12065000D01*
X55880000Y12065000D02*
X55880000Y13265300D01*
X56725000Y47720000D02*
X56725000Y37500000D01*
X56725000Y37500000D02*
X57095900Y37129100D01*
X57095900Y37129100D02*
X57095900Y14108200D01*
X57095900Y14108200D02*
X56253000Y13265300D01*
X56253000Y13265300D02*
X55880000Y13265300D01*
X63830000Y47720000D02*
X56725000Y47720000D01*
X12131000Y108255000D02*
X14711000Y110835000D01*
X14711000Y110835000D02*
X15560000Y110835000D01*
X34737000Y108382000D02*
X35942000Y108382000D01*
X35942000Y108382000D02*
X38407000Y110847000D01*
X31052000Y60401000D02*
X28182000Y60401000D01*
X28182000Y60401000D02*
X24702000Y63881000D01*
X52197000Y63881000D02*
X52197000Y66421000D01*
X18036000Y86709000D02*
X19636300Y86709000D01*
X20640000Y103215000D02*
X20640000Y101614700D01*
X20640000Y101614700D02*
X19636300Y100611000D01*
X19636300Y100611000D02*
X19636300Y86709000D01*
X10416000Y74009000D02*
X12016300Y74009000D01*
X15369000Y67913000D02*
X12016300Y71265700D01*
X12016300Y71265700D02*
X12016300Y74009000D01*
X10416000Y76549000D02*
X10416000Y74009000D01*
X10416000Y84169000D02*
X10416000Y81629000D01*
X49530000Y1905000D02*
X48279700Y1905000D01*
X38100000Y6975000D02*
X38100000Y5724700D01*
X38100000Y5724700D02*
X43170000Y654700D01*
X43170000Y654700D02*
X47576500Y654700D01*
X47576500Y654700D02*
X48279700Y1357900D01*
X48279700Y1357900D02*
X48279700Y1905000D01*
X27515000Y38745000D02*
X27515000Y40345300D01*
X33552000Y60401000D02*
X31325000Y58174000D01*
X31325000Y58174000D02*
X31325000Y44155300D01*
X31325000Y44155300D02*
X27515000Y40345300D01*
X30480000Y10785000D02*
X30480000Y12035300D01*
X27515000Y38745000D02*
X27515000Y14482200D01*
X27515000Y14482200D02*
X29961900Y12035300D01*
X29961900Y12035300D02*
X30480000Y12035300D01*
X67437000Y96901000D02*
X69037300Y96901000D01*
X69088000Y105243000D02*
X67885600Y104040600D01*
X67885600Y104040600D02*
X67885600Y98549900D01*
X67885600Y98549900D02*
X69037300Y97398200D01*
X69037300Y97398200D02*
X69037300Y96901000D01*
D22*
X39942000Y89281000D02*
X38441700Y89281000D01*
X38441700Y89281000D02*
X36240000Y87079300D01*
X36240000Y87079300D02*
X36240000Y59717900D01*
X36240000Y59717900D02*
X33645300Y57123200D01*
X49640000Y116314700D02*
X49738500Y116216200D01*
X49738500Y116216200D02*
X49738500Y106436300D01*
X49738500Y106436300D02*
X47297000Y103994800D01*
X47297000Y103994800D02*
X47297000Y101581600D01*
X47297000Y101581600D02*
X45860000Y100144600D01*
X45860000Y100144600D02*
X45860000Y90401300D01*
X49640000Y121615000D02*
X49640000Y116314700D01*
X41442300Y95499100D02*
X41442300Y97623300D01*
X41442300Y97623300D02*
X41303700Y97761900D01*
X41442300Y95499100D02*
X41442300Y91821000D01*
X30055000Y53985000D02*
X30055000Y57791600D01*
X30055000Y57791600D02*
X32302000Y60038600D01*
X32302000Y60038600D02*
X32302000Y64312800D01*
X32302000Y64312800D02*
X34527200Y66538000D01*
X34527200Y66538000D02*
X34527200Y91012800D01*
X34527200Y91012800D02*
X39013500Y95499100D01*
X39013500Y95499100D02*
X41442300Y95499100D01*
X39942000Y91821000D02*
X41442300Y91821000D01*
X52180000Y116314700D02*
X55170400Y113324300D01*
X55170400Y113324300D02*
X55170400Y96614400D01*
X55170400Y96614400D02*
X55006200Y96450200D01*
X38441700Y94361000D02*
X34982500Y90901800D01*
X34982500Y90901800D02*
X34982500Y59513000D01*
X34982500Y59513000D02*
X32595000Y57125500D01*
X32595000Y57125500D02*
X32595000Y53985000D01*
X39942000Y94361000D02*
X38441700Y94361000D01*
X52180000Y121615000D02*
X52180000Y116314700D01*
X52305400Y96901000D02*
X47994500Y92590100D01*
X47994500Y92590100D02*
X47994500Y66603300D01*
X47994500Y66603300D02*
X36876500Y55485300D01*
X36876500Y55485300D02*
X35135000Y55485300D01*
X35135000Y53985000D02*
X35135000Y55485300D01*
X52305400Y96901000D02*
X52413800Y96901000D01*
X52197000Y96901000D02*
X52305400Y96901000D01*
X52413800Y96901000D02*
X54748300Y99235500D01*
X54748300Y99235500D02*
X54748300Y111779400D01*
X54748300Y111779400D02*
X54026400Y112501300D01*
X54720000Y116314700D02*
X55591400Y115443300D01*
X55591400Y115443300D02*
X55591400Y96255100D01*
X55591400Y96255100D02*
X53697300Y94361000D01*
X48747300Y91343400D02*
X48747300Y66557600D01*
X48747300Y66557600D02*
X37675000Y55485300D01*
X50696700Y94361000D02*
X48747300Y92411600D01*
X48747300Y92411600D02*
X48747300Y91343400D01*
X52197000Y94361000D02*
X50696700Y94361000D01*
X52575400Y94361000D02*
X52197000Y94361000D01*
X37675000Y53985000D02*
X37675000Y55485300D01*
X52575400Y94361000D02*
X53697300Y94361000D01*
X54720000Y121615000D02*
X54720000Y116314700D01*
X50696700Y91821000D02*
X49271700Y90396000D01*
X49271700Y90396000D02*
X49271700Y64542000D01*
X49271700Y64542000D02*
X40215000Y55485300D01*
X56192800Y114841900D02*
X56192800Y94316500D01*
X56192800Y94316500D02*
X53697300Y91821000D01*
X52197000Y91821000D02*
X53697300Y91821000D01*
X40215000Y53985000D02*
X40215000Y55485300D01*
X52197000Y91821000D02*
X50696700Y91821000D01*
X42755000Y53985000D02*
X42755000Y55485300D01*
X51818700Y89281000D02*
X50296300Y87758600D01*
X50296300Y87758600D02*
X50296300Y63026600D01*
X50296300Y63026600D02*
X42755000Y55485300D01*
X57260000Y121615000D02*
X57260000Y94722300D01*
X57260000Y94722300D02*
X51818700Y89281000D01*
X52197000Y89281000D02*
X51818700Y89281000D01*
X45295000Y53985000D02*
X45295000Y55485300D01*
X52197000Y86741000D02*
X50696700Y86741000D01*
X50696700Y86741000D02*
X50696700Y60887000D01*
X50696700Y60887000D02*
X45295000Y55485300D01*
X39942000Y86741000D02*
X38441700Y86741000D01*
X39942000Y86741000D02*
X41442300Y86741000D01*
X42020000Y116314700D02*
X41009400Y116314700D01*
X41009400Y116314700D02*
X33601600Y108906900D01*
X33601600Y108906900D02*
X33601600Y107922300D01*
X33601600Y107922300D02*
X34291000Y107232900D01*
X34291000Y107232900D02*
X34999200Y107232900D01*
X34999200Y107232900D02*
X37123400Y105108700D01*
X37123400Y105108700D02*
X37123400Y102018700D01*
X37123400Y102018700D02*
X37945800Y101196300D01*
X37945800Y101196300D02*
X38670300Y101196300D01*
X38670300Y101196300D02*
X41858200Y98008400D01*
X41858200Y98008400D02*
X41858200Y87156900D01*
X41858200Y87156900D02*
X41442300Y86741000D01*
X38441700Y86741000D02*
X36640400Y84939700D01*
X36640400Y84939700D02*
X36640400Y57875800D01*
X36640400Y57875800D02*
X33865000Y55100400D01*
X33865000Y55100400D02*
X33865000Y41515300D01*
X33865000Y41515300D02*
X32595000Y40245300D01*
X32595000Y38745000D02*
X32595000Y40245300D01*
X42020000Y121615000D02*
X42020000Y116314700D01*
X36940000Y116314700D02*
X32794700Y112169400D01*
X32794700Y112169400D02*
X32794700Y78093400D01*
X32794700Y78093400D02*
X26202300Y71501000D01*
X36940000Y121615000D02*
X36940000Y116314700D01*
X24702000Y71501000D02*
X26202300Y71501000D01*
X39835500Y113697900D02*
X39835500Y100679600D01*
X39835500Y100679600D02*
X42284100Y98231000D01*
X42284100Y98231000D02*
X42284100Y86543100D01*
X42284100Y86543100D02*
X39942000Y84201000D01*
X39942000Y84201000D02*
X38441700Y84201000D01*
X38441700Y84201000D02*
X37811600Y83570900D01*
X37811600Y83570900D02*
X37811600Y57286400D01*
X37811600Y57286400D02*
X36988100Y56462900D01*
X43242500Y70925500D02*
X43242500Y73930400D01*
X26202300Y74041000D02*
X29671700Y77510400D01*
X29671700Y77510400D02*
X29671700Y115963000D01*
X24702000Y74041000D02*
X26202300Y74041000D01*
X43085800Y98773600D02*
X43085800Y83304500D01*
X43085800Y83304500D02*
X41442300Y81661000D01*
X44560000Y116314700D02*
X42348100Y114102800D01*
X42348100Y114102800D02*
X42348100Y99511300D01*
X42348100Y99511300D02*
X43085800Y98773600D01*
X39942000Y81661000D02*
X41442300Y81661000D01*
X44560000Y121615000D02*
X44560000Y116314700D01*
X31860000Y116314700D02*
X32381100Y115793600D01*
X32381100Y115793600D02*
X32381100Y82633000D01*
X32381100Y82633000D02*
X32211400Y82463300D01*
X31860000Y121615000D02*
X31860000Y116314700D01*
X48567000Y101726700D02*
X46601400Y99761100D01*
X46601400Y99761100D02*
X46601400Y80484200D01*
X46601400Y80484200D02*
X46338600Y80221400D01*
X48567000Y103227000D02*
X48567000Y101726700D01*
X23201700Y76581000D02*
X23201700Y73580600D01*
X23201700Y73580600D02*
X23924900Y72857400D01*
X23924900Y72857400D02*
X25639500Y72857400D01*
X25639500Y72857400D02*
X30072100Y77290000D01*
X30072100Y77290000D02*
X30072100Y90753600D01*
X30072100Y90753600D02*
X31920900Y92602400D01*
X31920900Y92602400D02*
X31920900Y114785000D01*
X31920900Y114785000D02*
X31816300Y114889600D01*
X24702000Y76581000D02*
X23201700Y76581000D01*
X45388400Y77036900D02*
X45238300Y77187000D01*
X45238300Y77187000D02*
X45238300Y100938000D01*
X45238300Y100938000D02*
X46027000Y101726700D01*
X46027000Y104727300D02*
X47156300Y105856600D01*
X47156300Y105856600D02*
X47156300Y116258400D01*
X47156300Y116258400D02*
X47100000Y116314700D01*
X46027000Y103227000D02*
X46027000Y101726700D01*
X47100000Y121615000D02*
X47100000Y116314700D01*
X46027000Y103227000D02*
X46027000Y104727300D01*
X41442300Y66421000D02*
X44626400Y69605100D01*
X44626400Y69605100D02*
X44626400Y112462900D01*
X39942000Y66421000D02*
X41442300Y66421000D01*
X43487000Y101726700D02*
X43487000Y99205600D01*
X43487000Y99205600D02*
X43641800Y99050800D01*
X43641800Y99050800D02*
X43641800Y76240500D01*
X43641800Y76240500D02*
X41442300Y74041000D01*
X43487000Y103227000D02*
X43487000Y101726700D01*
X39942000Y74041000D02*
X41442300Y74041000D01*
X34400000Y121615000D02*
X34400000Y114578100D01*
X40947000Y101726700D02*
X40947000Y100134200D01*
X40947000Y100134200D02*
X42684500Y98396700D01*
X42684500Y98396700D02*
X42684500Y84970100D01*
X42684500Y84970100D02*
X40475800Y82761400D01*
X40475800Y82761400D02*
X39077400Y82761400D01*
X39077400Y82761400D02*
X38441700Y82125700D01*
X38441700Y82125700D02*
X38441700Y71501000D01*
X39942000Y71501000D02*
X38441700Y71501000D01*
X40947000Y103227000D02*
X40947000Y101726700D01*
X39942000Y68961000D02*
X41442300Y68961000D01*
X41442300Y68961000D02*
X41442300Y72952100D01*
X41442300Y72952100D02*
X44059900Y75569700D01*
X44059900Y75569700D02*
X44059900Y99416100D01*
X26046800Y77850900D02*
X26844800Y78648900D01*
X26844800Y78648900D02*
X26844800Y113709900D01*
X26844800Y113709900D02*
X24240000Y116314700D01*
X24240000Y121615000D02*
X24240000Y116314700D01*
X23125100Y66421000D02*
X22797800Y66748300D01*
X22797800Y66748300D02*
X22797800Y99345700D01*
X22797800Y99345700D02*
X24292300Y100840200D01*
X24292300Y100840200D02*
X24292300Y115350500D01*
X23125100Y66421000D02*
X23125100Y56175400D01*
X23125100Y56175400D02*
X22435000Y55485300D01*
X23125100Y66421000D02*
X23201700Y66421000D01*
X22435000Y53985000D02*
X22435000Y55485300D01*
X24702000Y66421000D02*
X23201700Y66421000D01*
X53647000Y109346700D02*
X52377000Y108076700D01*
X52377000Y108076700D02*
X52377000Y100876600D01*
X52377000Y100876600D02*
X47560000Y96059600D01*
X47560000Y96059600D02*
X47560000Y67226400D01*
X47560000Y67226400D02*
X38582900Y58249300D01*
X53647000Y110847000D02*
X53647000Y109346700D01*
X60535000Y53985000D02*
X60535000Y52484700D01*
X71120000Y22225000D02*
X71120000Y23325300D01*
X71120000Y23325300D02*
X70982300Y23325300D01*
X70982300Y23325300D02*
X70019700Y24287900D01*
X70019700Y24287900D02*
X70019700Y43114000D01*
X70019700Y43114000D02*
X60649000Y52484700D01*
X60649000Y52484700D02*
X60535000Y52484700D01*
X64880000Y121615000D02*
X62340000Y121615000D01*
X55880000Y24765000D02*
X54779700Y24765000D01*
X30480000Y13325000D02*
X31630300Y13325000D01*
X31630300Y13325000D02*
X34090900Y10864400D01*
X34090900Y10864400D02*
X40879100Y10864400D01*
X40879100Y10864400D02*
X54779700Y24765000D01*
X55880000Y27305000D02*
X54779700Y27305000D01*
X38100000Y12630200D02*
X40104900Y12630200D01*
X40104900Y12630200D02*
X54779700Y27305000D01*
X31630300Y15865000D02*
X34865100Y12630200D01*
X34865100Y12630200D02*
X38100000Y12630200D01*
X30480000Y15865000D02*
X31630300Y15865000D01*
X38100000Y12055000D02*
X38100000Y12630200D01*
X38100000Y14595000D02*
X39250300Y14595000D01*
X39250300Y14595000D02*
X54500300Y29845000D01*
X54500300Y29845000D02*
X55880000Y29845000D01*
X37546700Y14595000D02*
X38100000Y14595000D01*
X37546700Y14595000D02*
X36949700Y14595000D01*
X36949700Y14595000D02*
X33139700Y18405000D01*
X33139700Y18405000D02*
X30480000Y18405000D01*
X38100000Y19675000D02*
X39250300Y19675000D01*
X55880000Y32385000D02*
X51960300Y32385000D01*
X51960300Y32385000D02*
X39250300Y19675000D01*
X18582900Y107277600D02*
X16020600Y104715300D01*
X16020600Y104715300D02*
X15560000Y104715300D01*
X20640000Y110084900D02*
X20640000Y109334700D01*
X20640000Y109334700D02*
X18582900Y107277600D01*
X18582900Y107277600D02*
X21775600Y104084900D01*
X21775600Y104084900D02*
X21775600Y55525800D01*
X21775600Y55525800D02*
X21317600Y55067800D01*
X21317600Y55067800D02*
X21317600Y53138800D01*
X21317600Y53138800D02*
X21971700Y52484700D01*
X21971700Y52484700D02*
X24975000Y52484700D01*
X24975000Y53985000D02*
X24975000Y52484700D01*
X20640000Y110835000D02*
X20640000Y110084900D01*
X15560000Y103215000D02*
X15560000Y104715300D01*
X18100000Y101714700D02*
X16511800Y100126500D01*
X16511800Y100126500D02*
X16511800Y86207100D01*
X16511800Y86207100D02*
X17388500Y85330400D01*
X17388500Y85330400D02*
X18881700Y85330400D01*
X18881700Y85330400D02*
X19945300Y84266800D01*
X19945300Y84266800D02*
X19945300Y56235500D01*
X19945300Y56235500D02*
X18790000Y55080200D01*
X18790000Y55080200D02*
X18790000Y46954800D01*
X18790000Y46954800D02*
X26284000Y39460800D01*
X26284000Y39460800D02*
X26284000Y30789800D01*
X26284000Y30789800D02*
X26284100Y30789800D01*
X18100000Y103215000D02*
X18100000Y101714700D01*
X11540000Y112803500D02*
X11540000Y121615000D01*
X19160000Y121615000D02*
X19160000Y115659900D01*
X19160000Y115659900D02*
X16688400Y113188300D01*
X16688400Y113188300D02*
X16688400Y108820100D01*
X16688400Y108820100D02*
X14420200Y106551900D01*
X14420200Y106551900D02*
X14420200Y83744500D01*
X14420200Y83744500D02*
X16535700Y81629000D01*
X18036000Y81629000D02*
X16535700Y81629000D01*
X39480000Y121615000D02*
X39480000Y116314700D01*
X24702000Y68961000D02*
X26202300Y68961000D01*
X26202300Y68961000D02*
X33195100Y75953800D01*
X33195100Y75953800D02*
X33195100Y110029800D01*
X33195100Y110029800D02*
X39480000Y116314700D01*
X18036000Y71469000D02*
X19536300Y71469000D01*
X19536300Y71469000D02*
X19536300Y82668700D01*
X19536300Y82668700D02*
X18036000Y84169000D01*
D23*
X78339966Y660000D02*
X50877295Y660000D01*
X50910537Y700506D01*
X50969502Y810820D01*
X51005812Y930518D01*
X51018072Y1055000D01*
X51015000Y1619250D01*
X50856250Y1778000D01*
X49657000Y1778000D01*
X49657000Y1758000D01*
X49403000Y1758000D01*
X49403000Y1778000D01*
X49383000Y1778000D01*
X49383000Y2032000D01*
X49403000Y2032000D01*
X49403000Y3231250D01*
X49657000Y3231250D01*
X49657000Y2032000D01*
X50856250Y2032000D01*
X51015000Y2190750D01*
X51018072Y2755000D01*
X51005812Y2879482D01*
X50969502Y2999180D01*
X50910537Y3109494D01*
X50831185Y3206185D01*
X50734494Y3285537D01*
X50624180Y3344502D01*
X50504482Y3380812D01*
X50380000Y3393072D01*
X49815750Y3390000D01*
X49657000Y3231250D01*
X49403000Y3231250D01*
X49244250Y3390000D01*
X48680000Y3393072D01*
X48555518Y3380812D01*
X48435820Y3344502D01*
X48325506Y3285537D01*
X48228815Y3206185D01*
X48149463Y3109494D01*
X48090498Y2999180D01*
X48068487Y2926620D01*
X47936632Y3058475D01*
X47693411Y3220990D01*
X47423158Y3332932D01*
X47177386Y3381819D01*
X48381902Y4586335D01*
X54445000Y4586335D01*
X54445000Y4303665D01*
X54500147Y4026426D01*
X54608320Y3765273D01*
X54765363Y3530241D01*
X54965241Y3330363D01*
X55200273Y3173320D01*
X55461426Y3065147D01*
X55738665Y3010000D01*
X56021335Y3010000D01*
X56298574Y3065147D01*
X56559727Y3173320D01*
X56794759Y3330363D01*
X56994637Y3530241D01*
X57151680Y3765273D01*
X57259853Y4026426D01*
X57315000Y4303665D01*
X57315000Y4586335D01*
X57259853Y4863574D01*
X57151680Y5124727D01*
X56994637Y5359759D01*
X56794759Y5559637D01*
X56559727Y5716680D01*
X56549135Y5721067D01*
X56735131Y5832615D01*
X56943519Y6021586D01*
X57111037Y6247580D01*
X57231246Y6501913D01*
X57271904Y6635961D01*
X57149915Y6858000D01*
X56007000Y6858000D01*
X56007000Y6838000D01*
X55753000Y6838000D01*
X55753000Y6858000D01*
X54610085Y6858000D01*
X54488096Y6635961D01*
X54528754Y6501913D01*
X54648963Y6247580D01*
X54816481Y6021586D01*
X55024869Y5832615D01*
X55210865Y5721067D01*
X55200273Y5716680D01*
X54965241Y5559637D01*
X54765363Y5359759D01*
X54608320Y5124727D01*
X54500147Y4863574D01*
X54445000Y4586335D01*
X48381902Y4586335D01*
X54855586Y11060018D01*
X54965241Y10950363D01*
X55197759Y10795000D01*
X54965241Y10639637D01*
X54765363Y10439759D01*
X54608320Y10204727D01*
X54500147Y9943574D01*
X54445000Y9666335D01*
X54445000Y9383665D01*
X54500147Y9106426D01*
X54608320Y8845273D01*
X54765363Y8610241D01*
X54965241Y8410363D01*
X55200273Y8253320D01*
X55210865Y8248933D01*
X55024869Y8137385D01*
X54816481Y7948414D01*
X54648963Y7722420D01*
X54528754Y7468087D01*
X54488096Y7334039D01*
X54610085Y7112000D01*
X55753000Y7112000D01*
X55753000Y7132000D01*
X56007000Y7132000D01*
X56007000Y7112000D01*
X57149915Y7112000D01*
X57271904Y7334039D01*
X57231246Y7468087D01*
X57111037Y7722420D01*
X56943519Y7948414D01*
X56735131Y8137385D01*
X56549135Y8248933D01*
X56559727Y8253320D01*
X56794759Y8410363D01*
X56994637Y8610241D01*
X57151680Y8845273D01*
X57259853Y9106426D01*
X57315000Y9383665D01*
X57315000Y9666335D01*
X57259853Y9943574D01*
X57151680Y10204727D01*
X56994637Y10439759D01*
X56794759Y10639637D01*
X56562241Y10795000D01*
X56794759Y10950363D01*
X56994637Y11150241D01*
X57151680Y11385273D01*
X57259853Y11646426D01*
X57315000Y11923665D01*
X57315000Y12206335D01*
X57259853Y12483574D01*
X57254646Y12496144D01*
X57305363Y12420241D01*
X57505241Y12220363D01*
X57740273Y12063320D01*
X58001426Y11955147D01*
X58278665Y11900000D01*
X58561335Y11900000D01*
X58838574Y11955147D01*
X59099727Y12063320D01*
X59334759Y12220363D01*
X59534637Y12420241D01*
X59691680Y12655273D01*
X59799853Y12916426D01*
X59855000Y13193665D01*
X59855000Y13476335D01*
X59799853Y13753574D01*
X59691680Y14014727D01*
X59534637Y14249759D01*
X59334759Y14449637D01*
X59102241Y14605000D01*
X59334759Y14760363D01*
X59534637Y14960241D01*
X59691680Y15195273D01*
X59799853Y15456426D01*
X59855000Y15733665D01*
X59855000Y16016335D01*
X59799853Y16293574D01*
X59691680Y16554727D01*
X59534637Y16789759D01*
X59334759Y16989637D01*
X59099727Y17146680D01*
X58838574Y17254853D01*
X58561335Y17310000D01*
X58278665Y17310000D01*
X58001426Y17254853D01*
X57930900Y17225640D01*
X57930900Y22144360D01*
X58001426Y22115147D01*
X58278665Y22060000D01*
X58561335Y22060000D01*
X58838574Y22115147D01*
X59099727Y22223320D01*
X59334759Y22380363D01*
X59534637Y22580241D01*
X59691680Y22815273D01*
X59799853Y23076426D01*
X59855000Y23353665D01*
X59855000Y23636335D01*
X59799853Y23913574D01*
X59691680Y24174727D01*
X59534637Y24409759D01*
X59334759Y24609637D01*
X59102241Y24765000D01*
X59334759Y24920363D01*
X59534637Y25120241D01*
X59691680Y25355273D01*
X59799853Y25616426D01*
X59855000Y25893665D01*
X59855000Y26176335D01*
X59799853Y26453574D01*
X59691680Y26714727D01*
X59534637Y26949759D01*
X59334759Y27149637D01*
X59099727Y27306680D01*
X58838574Y27414853D01*
X58561335Y27470000D01*
X58278665Y27470000D01*
X58001426Y27414853D01*
X57930900Y27385640D01*
X57930900Y36909370D01*
X57995000Y36903057D01*
X58276309Y36930764D01*
X58546808Y37012818D01*
X58796101Y37146068D01*
X59014608Y37325392D01*
X59193932Y37543899D01*
X59265000Y37676858D01*
X59336068Y37543899D01*
X59515393Y37325392D01*
X59733900Y37146068D01*
X59983193Y37012818D01*
X60253692Y36930764D01*
X60535000Y36903057D01*
X60816309Y36930764D01*
X61086808Y37012818D01*
X61336101Y37146068D01*
X61554608Y37325392D01*
X61733932Y37543899D01*
X61867182Y37793192D01*
X61949236Y38063691D01*
X61970000Y38274509D01*
X61970000Y39215492D01*
X61949236Y39426309D01*
X61867182Y39696808D01*
X61733932Y39946101D01*
X61554607Y40164608D01*
X61336100Y40343932D01*
X61086807Y40477182D01*
X60816308Y40559236D01*
X60535000Y40586943D01*
X60253691Y40559236D01*
X59983192Y40477182D01*
X59733899Y40343932D01*
X59515392Y40164607D01*
X59336068Y39946100D01*
X59265000Y39813142D01*
X59193932Y39946101D01*
X59014607Y40164608D01*
X58796100Y40343932D01*
X58546807Y40477182D01*
X58276308Y40559236D01*
X57995000Y40586943D01*
X57713691Y40559236D01*
X57560000Y40512615D01*
X57560000Y44227298D01*
X63016903Y44227298D01*
X63088486Y43983329D01*
X63343996Y43862429D01*
X63618184Y43793700D01*
X63900512Y43779783D01*
X64180130Y43821213D01*
X64446292Y43916397D01*
X64571514Y43983329D01*
X64643097Y44227298D01*
X63830000Y45040395D01*
X63016903Y44227298D01*
X57560000Y44227298D01*
X57560000Y45149488D01*
X62389783Y45149488D01*
X62431213Y44869870D01*
X62526397Y44603708D01*
X62593329Y44478486D01*
X62837298Y44406903D01*
X63650395Y45220000D01*
X64009605Y45220000D01*
X64822702Y44406903D01*
X65066671Y44478486D01*
X65187571Y44733996D01*
X65256300Y45008184D01*
X65270217Y45290512D01*
X65228787Y45570130D01*
X65133603Y45836292D01*
X65066671Y45961514D01*
X64822702Y46033097D01*
X64009605Y45220000D01*
X63650395Y45220000D01*
X62837298Y46033097D01*
X62593329Y45961514D01*
X62472429Y45706004D01*
X62403700Y45431816D01*
X62389783Y45149488D01*
X57560000Y45149488D01*
X57560000Y46885000D01*
X62662070Y46885000D01*
X62715363Y46805241D01*
X62915241Y46605363D01*
X63115869Y46471308D01*
X63088486Y46456671D01*
X63016903Y46212702D01*
X63830000Y45399605D01*
X64643097Y46212702D01*
X64571514Y46456671D01*
X64542659Y46470324D01*
X64744759Y46605363D01*
X64944637Y46805241D01*
X65082574Y47011679D01*
X69284701Y42809552D01*
X69284700Y24324005D01*
X69281144Y24287900D01*
X69294636Y24150913D01*
X69295335Y24143816D01*
X69337363Y24005268D01*
X69405613Y23877581D01*
X69497462Y23765663D01*
X69525508Y23742646D01*
X70066879Y23201275D01*
X70005363Y23139759D01*
X69848320Y22904727D01*
X69740147Y22643574D01*
X69685000Y22366335D01*
X69685000Y22083665D01*
X69740147Y21806426D01*
X69848320Y21545273D01*
X70005363Y21310241D01*
X70205241Y21110363D01*
X70437759Y20955000D01*
X70205241Y20799637D01*
X70005363Y20599759D01*
X69848320Y20364727D01*
X69740147Y20103574D01*
X69685000Y19826335D01*
X69685000Y19543665D01*
X69740147Y19266426D01*
X69848320Y19005273D01*
X70005363Y18770241D01*
X70205241Y18570363D01*
X70437759Y18415000D01*
X70205241Y18259637D01*
X70005363Y18059759D01*
X69848320Y17824727D01*
X69740147Y17563574D01*
X69685000Y17286335D01*
X69685000Y17003665D01*
X69740147Y16726426D01*
X69848320Y16465273D01*
X70005363Y16230241D01*
X70205241Y16030363D01*
X70437759Y15875000D01*
X70205241Y15719637D01*
X70005363Y15519759D01*
X69848320Y15284727D01*
X69740147Y15023574D01*
X69685000Y14746335D01*
X69685000Y14463665D01*
X69740147Y14186426D01*
X69848320Y13925273D01*
X70005363Y13690241D01*
X70205241Y13490363D01*
X70437759Y13335000D01*
X70205241Y13179637D01*
X70005363Y12979759D01*
X69848320Y12744727D01*
X69740147Y12483574D01*
X69685000Y12206335D01*
X69685000Y11923665D01*
X69740147Y11646426D01*
X69848320Y11385273D01*
X70005363Y11150241D01*
X70205241Y10950363D01*
X70437759Y10795000D01*
X70205241Y10639637D01*
X70005363Y10439759D01*
X69848320Y10204727D01*
X69740147Y9943574D01*
X69685000Y9666335D01*
X69685000Y9383665D01*
X69740147Y9106426D01*
X69848320Y8845273D01*
X70005363Y8610241D01*
X70205241Y8410363D01*
X70437759Y8255000D01*
X70205241Y8099637D01*
X70005363Y7899759D01*
X69848320Y7664727D01*
X69740147Y7403574D01*
X69685000Y7126335D01*
X69685000Y6843665D01*
X69740147Y6566426D01*
X69848320Y6305273D01*
X70005363Y6070241D01*
X70203961Y5871643D01*
X70195518Y5870812D01*
X70075820Y5834502D01*
X69965506Y5775537D01*
X69868815Y5696185D01*
X69789463Y5599494D01*
X69730498Y5489180D01*
X69694188Y5369482D01*
X69681928Y5245000D01*
X69681928Y3645000D01*
X69694188Y3520518D01*
X69730498Y3400820D01*
X69789463Y3290506D01*
X69868815Y3193815D01*
X69965506Y3114463D01*
X70075820Y3055498D01*
X70195518Y3019188D01*
X70320000Y3006928D01*
X71920000Y3006928D01*
X72044482Y3019188D01*
X72164180Y3055498D01*
X72274494Y3114463D01*
X72371185Y3193815D01*
X72450537Y3290506D01*
X72509502Y3400820D01*
X72545812Y3520518D01*
X72558072Y3645000D01*
X72558072Y5245000D01*
X72545812Y5369482D01*
X72509502Y5489180D01*
X72450537Y5599494D01*
X72371185Y5696185D01*
X72274494Y5775537D01*
X72164180Y5834502D01*
X72044482Y5870812D01*
X72036039Y5871643D01*
X72234637Y6070241D01*
X72391680Y6305273D01*
X72499853Y6566426D01*
X72555000Y6843665D01*
X72555000Y7126335D01*
X72499853Y7403574D01*
X72391680Y7664727D01*
X72234637Y7899759D01*
X72034759Y8099637D01*
X71802241Y8255000D01*
X72034759Y8410363D01*
X72234637Y8610241D01*
X72391680Y8845273D01*
X72499853Y9106426D01*
X72555000Y9383665D01*
X72555000Y9666335D01*
X72499853Y9943574D01*
X72391680Y10204727D01*
X72234637Y10439759D01*
X72034759Y10639637D01*
X71802241Y10795000D01*
X72034759Y10950363D01*
X72234637Y11150241D01*
X72391680Y11385273D01*
X72499853Y11646426D01*
X72555000Y11923665D01*
X72555000Y12206335D01*
X72499853Y12483574D01*
X72391680Y12744727D01*
X72234637Y12979759D01*
X72034759Y13179637D01*
X71802241Y13335000D01*
X72034759Y13490363D01*
X72234637Y13690241D01*
X72391680Y13925273D01*
X72499853Y14186426D01*
X72555000Y14463665D01*
X72555000Y14746335D01*
X72499853Y15023574D01*
X72391680Y15284727D01*
X72234637Y15519759D01*
X72034759Y15719637D01*
X71802241Y15875000D01*
X72034759Y16030363D01*
X72234637Y16230241D01*
X72391680Y16465273D01*
X72499853Y16726426D01*
X72555000Y17003665D01*
X72555000Y17286335D01*
X72499853Y17563574D01*
X72391680Y17824727D01*
X72234637Y18059759D01*
X72034759Y18259637D01*
X71802241Y18415000D01*
X72034759Y18570363D01*
X72234637Y18770241D01*
X72391680Y19005273D01*
X72499853Y19266426D01*
X72555000Y19543665D01*
X72555000Y19826335D01*
X72499853Y20103574D01*
X72391680Y20364727D01*
X72234637Y20599759D01*
X72034759Y20799637D01*
X71802241Y20955000D01*
X72034759Y21110363D01*
X72234637Y21310241D01*
X72391680Y21545273D01*
X72499853Y21806426D01*
X72555000Y22083665D01*
X72555000Y22366335D01*
X72499853Y22643574D01*
X72391680Y22904727D01*
X72234637Y23139759D01*
X72034759Y23339637D01*
X71844632Y23466676D01*
X71844365Y23469385D01*
X71830805Y23514086D01*
X72034759Y23650363D01*
X72234637Y23850241D01*
X72391680Y24085273D01*
X72499853Y24346426D01*
X72555000Y24623665D01*
X72555000Y24906335D01*
X72499853Y25183574D01*
X72391680Y25444727D01*
X72234637Y25679759D01*
X72034759Y25879637D01*
X71802241Y26035000D01*
X72034759Y26190363D01*
X72234637Y26390241D01*
X72391680Y26625273D01*
X72499853Y26886426D01*
X72555000Y27163665D01*
X72555000Y27446335D01*
X72499853Y27723574D01*
X72391680Y27984727D01*
X72234637Y28219759D01*
X72034759Y28419637D01*
X71802241Y28575000D01*
X72034759Y28730363D01*
X72234637Y28930241D01*
X72391680Y29165273D01*
X72499853Y29426426D01*
X72555000Y29703665D01*
X72555000Y29986335D01*
X72499853Y30263574D01*
X72391680Y30524727D01*
X72234637Y30759759D01*
X72034759Y30959637D01*
X71802241Y31115000D01*
X72034759Y31270363D01*
X72234637Y31470241D01*
X72391680Y31705273D01*
X72499853Y31966426D01*
X72555000Y32243665D01*
X72555000Y32526335D01*
X72499853Y32803574D01*
X72391680Y33064727D01*
X72234637Y33299759D01*
X72034759Y33499637D01*
X71799727Y33656680D01*
X71538574Y33764853D01*
X71261335Y33820000D01*
X70978665Y33820000D01*
X70754700Y33775450D01*
X70754700Y41220128D01*
X71765000Y41220128D01*
X71765000Y40779872D01*
X71850890Y40348075D01*
X72019369Y39941331D01*
X72263962Y39575271D01*
X72575271Y39263962D01*
X72941331Y39019369D01*
X73348075Y38850890D01*
X73779872Y38765000D01*
X74220128Y38765000D01*
X74651925Y38850890D01*
X75058669Y39019369D01*
X75424729Y39263962D01*
X75736038Y39575271D01*
X75980631Y39941331D01*
X76149110Y40348075D01*
X76235000Y40779872D01*
X76235000Y41220128D01*
X76149110Y41651925D01*
X75980631Y42058669D01*
X75736038Y42424729D01*
X75424729Y42736038D01*
X75058669Y42980631D01*
X74651925Y43149110D01*
X74220128Y43235000D01*
X73779872Y43235000D01*
X73348075Y43149110D01*
X72941331Y42980631D01*
X72575271Y42736038D01*
X72263962Y42424729D01*
X72019369Y42058669D01*
X71850890Y41651925D01*
X71765000Y41220128D01*
X70754700Y41220128D01*
X70754700Y43077896D01*
X70758256Y43114001D01*
X70744065Y43258086D01*
X70731316Y43300114D01*
X70702037Y43396633D01*
X70633787Y43524320D01*
X70541938Y43636238D01*
X70513893Y43659254D01*
X61578564Y52594582D01*
X61733932Y52783899D01*
X61867182Y53033192D01*
X61949236Y53303691D01*
X61970000Y53514509D01*
X61970000Y54455492D01*
X61949236Y54666309D01*
X61867182Y54936808D01*
X61733932Y55186101D01*
X61554607Y55404608D01*
X61336100Y55583932D01*
X61086807Y55717182D01*
X60816308Y55799236D01*
X60535000Y55826943D01*
X60253691Y55799236D01*
X59983192Y55717182D01*
X59733899Y55583932D01*
X59515392Y55404607D01*
X59336068Y55186100D01*
X59265000Y55053142D01*
X59193932Y55186101D01*
X59014607Y55404608D01*
X58796100Y55583932D01*
X58546807Y55717182D01*
X58276308Y55799236D01*
X57995000Y55826943D01*
X57713691Y55799236D01*
X57443192Y55717182D01*
X57193899Y55583932D01*
X56975392Y55404607D01*
X56796068Y55186100D01*
X56725000Y55053142D01*
X56653932Y55186101D01*
X56474607Y55404608D01*
X56256100Y55583932D01*
X56006807Y55717182D01*
X55736308Y55799236D01*
X55455000Y55826943D01*
X55173691Y55799236D01*
X54903192Y55717182D01*
X54653899Y55583932D01*
X54435392Y55404607D01*
X54256068Y55186100D01*
X54185000Y55053142D01*
X54113932Y55186101D01*
X53934607Y55404608D01*
X53716100Y55583932D01*
X53466807Y55717182D01*
X53196308Y55799236D01*
X52915000Y55826943D01*
X52633691Y55799236D01*
X52363192Y55717182D01*
X52113899Y55583932D01*
X51895392Y55404607D01*
X51716068Y55186100D01*
X51645000Y55053142D01*
X51573932Y55186101D01*
X51394607Y55404608D01*
X51176100Y55583932D01*
X50926807Y55717182D01*
X50656308Y55799236D01*
X50375000Y55826943D01*
X50093691Y55799236D01*
X49823192Y55717182D01*
X49573899Y55583932D01*
X49355392Y55404607D01*
X49176068Y55186100D01*
X49105000Y55053142D01*
X49033932Y55186101D01*
X48915760Y55330093D01*
X54241400Y60655732D01*
X55342563Y59554568D01*
X55368709Y59522709D01*
X55400568Y59496563D01*
X55400570Y59496561D01*
X55495854Y59418364D01*
X55640913Y59340828D01*
X55798311Y59293082D01*
X55962000Y59276960D01*
X56003018Y59281000D01*
X57529070Y59281000D01*
X57582363Y59201241D01*
X57782241Y59001363D01*
X58017273Y58844320D01*
X58278426Y58736147D01*
X58555665Y58681000D01*
X58838335Y58681000D01*
X58932418Y58699714D01*
X59277558Y58354574D01*
X59303709Y58322709D01*
X59430854Y58218364D01*
X59575913Y58140828D01*
X59733311Y58093082D01*
X59855981Y58081000D01*
X59855991Y58081000D01*
X59896999Y58076961D01*
X59938007Y58081000D01*
X62430982Y58081000D01*
X62472000Y58076960D01*
X62513018Y58081000D01*
X62513019Y58081000D01*
X62635689Y58093082D01*
X62793087Y58140828D01*
X62938146Y58218364D01*
X63065291Y58322709D01*
X63091446Y58354579D01*
X67179796Y62442928D01*
X68637000Y62442928D01*
X68761482Y62455188D01*
X68881180Y62491498D01*
X68991494Y62550463D01*
X69088185Y62629815D01*
X69167537Y62726506D01*
X69226502Y62836820D01*
X69262812Y62956518D01*
X69275027Y63080541D01*
X69358387Y63105828D01*
X69503446Y63183364D01*
X69630591Y63287709D01*
X69656745Y63319578D01*
X70215232Y63878064D01*
X70247091Y63904209D01*
X70351436Y64031354D01*
X70428972Y64176413D01*
X70476718Y64333811D01*
X70488800Y64456481D01*
X70488800Y64456482D01*
X70492840Y64497500D01*
X70488800Y64538518D01*
X70488800Y100935882D01*
X70492840Y100976901D01*
X70476718Y101140589D01*
X70428972Y101297987D01*
X70351436Y101443046D01*
X70322589Y101478195D01*
X70339185Y101491815D01*
X70418537Y101588506D01*
X70477502Y101698820D01*
X70513812Y101818518D01*
X70526072Y101943000D01*
X70526072Y103543000D01*
X70513812Y103667482D01*
X70477502Y103787180D01*
X70418537Y103897494D01*
X70339185Y103994185D01*
X70242494Y104073537D01*
X70132180Y104132502D01*
X70012482Y104168812D01*
X69888000Y104181072D01*
X69880785Y104181072D01*
X69901097Y104250298D01*
X69088000Y105063395D01*
X68274903Y104250298D01*
X68295215Y104181072D01*
X68288000Y104181072D01*
X68163518Y104168812D01*
X68043820Y104132502D01*
X67933506Y104073537D01*
X67836815Y103994185D01*
X67757463Y103897494D01*
X67698498Y103787180D01*
X67662188Y103667482D01*
X67649928Y103543000D01*
X67649928Y101943000D01*
X67662188Y101818518D01*
X67698498Y101698820D01*
X67757463Y101588506D01*
X67836815Y101491815D01*
X67933506Y101412463D01*
X68043820Y101353498D01*
X68163518Y101317188D01*
X68287541Y101304973D01*
X68312828Y101221614D01*
X68390364Y101076555D01*
X68390365Y101076554D01*
X68494710Y100949409D01*
X68526574Y100923259D01*
X68818801Y100631031D01*
X68818801Y97946188D01*
X68739839Y98023601D01*
X68503483Y98178166D01*
X68241514Y98283650D01*
X67964000Y98336000D01*
X67564000Y98336000D01*
X67564000Y97028000D01*
X67584000Y97028000D01*
X67584000Y96774000D01*
X67564000Y96774000D01*
X67564000Y96754000D01*
X67310000Y96754000D01*
X67310000Y96774000D01*
X65767085Y96774000D01*
X65645096Y96551961D01*
X65662633Y96469182D01*
X65773285Y96209354D01*
X65932500Y95976105D01*
X66134161Y95778399D01*
X66363741Y95628265D01*
X66235899Y95559932D01*
X66017392Y95380608D01*
X65838068Y95162101D01*
X65704818Y94912808D01*
X65622764Y94642309D01*
X65595057Y94361000D01*
X65622764Y94079691D01*
X65704818Y93809192D01*
X65838068Y93559899D01*
X66017392Y93341392D01*
X66235899Y93162068D01*
X66368858Y93091000D01*
X66235899Y93019932D01*
X66017392Y92840608D01*
X65838068Y92622101D01*
X65704818Y92372808D01*
X65622764Y92102309D01*
X65595057Y91821000D01*
X65622764Y91539691D01*
X65704818Y91269192D01*
X65838068Y91019899D01*
X66017392Y90801392D01*
X66235899Y90622068D01*
X66368858Y90551000D01*
X66235899Y90479932D01*
X66017392Y90300608D01*
X65838068Y90082101D01*
X65704818Y89832808D01*
X65622764Y89562309D01*
X65595057Y89281000D01*
X65622764Y88999691D01*
X65704818Y88729192D01*
X65838068Y88479899D01*
X66017392Y88261392D01*
X66235899Y88082068D01*
X66368858Y88011000D01*
X66235899Y87939932D01*
X66017392Y87760608D01*
X65838068Y87542101D01*
X65704818Y87292808D01*
X65622764Y87022309D01*
X65595057Y86741000D01*
X65622764Y86459691D01*
X65704818Y86189192D01*
X65838068Y85939899D01*
X66017392Y85721392D01*
X66235899Y85542068D01*
X66368858Y85471000D01*
X66235899Y85399932D01*
X66017392Y85220608D01*
X65838068Y85002101D01*
X65704818Y84752808D01*
X65622764Y84482309D01*
X65595057Y84201000D01*
X65622764Y83919691D01*
X65704818Y83649192D01*
X65838068Y83399899D01*
X66017392Y83181392D01*
X66235899Y83002068D01*
X66368858Y82931000D01*
X66235899Y82859932D01*
X66017392Y82680608D01*
X65838068Y82462101D01*
X65704818Y82212808D01*
X65622764Y81942309D01*
X65595057Y81661000D01*
X65622764Y81379691D01*
X65704818Y81109192D01*
X65838068Y80859899D01*
X66017392Y80641392D01*
X66235899Y80462068D01*
X66368858Y80391000D01*
X66235899Y80319932D01*
X66017392Y80140608D01*
X65838068Y79922101D01*
X65704818Y79672808D01*
X65622764Y79402309D01*
X65595057Y79121000D01*
X65622764Y78839691D01*
X65704818Y78569192D01*
X65838068Y78319899D01*
X66017392Y78101392D01*
X66235899Y77922068D01*
X66368858Y77851000D01*
X66235899Y77779932D01*
X66017392Y77600608D01*
X65838068Y77382101D01*
X65704818Y77132808D01*
X65622764Y76862309D01*
X65595057Y76581000D01*
X65622764Y76299691D01*
X65704818Y76029192D01*
X65838068Y75779899D01*
X66017392Y75561392D01*
X66235899Y75382068D01*
X66368858Y75311000D01*
X66235899Y75239932D01*
X66017392Y75060608D01*
X65838068Y74842101D01*
X65704818Y74592808D01*
X65622764Y74322309D01*
X65595057Y74041000D01*
X65622764Y73759691D01*
X65704818Y73489192D01*
X65838068Y73239899D01*
X66017392Y73021392D01*
X66235899Y72842068D01*
X66368858Y72771000D01*
X66235899Y72699932D01*
X66017392Y72520608D01*
X65838068Y72302101D01*
X65704818Y72052808D01*
X65622764Y71782309D01*
X65595057Y71501000D01*
X65622764Y71219691D01*
X65704818Y70949192D01*
X65838068Y70699899D01*
X66017392Y70481392D01*
X66235899Y70302068D01*
X66368858Y70231000D01*
X66235899Y70159932D01*
X66017392Y69980608D01*
X65838068Y69762101D01*
X65704818Y69512808D01*
X65622764Y69242309D01*
X65595057Y68961000D01*
X65622764Y68679691D01*
X65704818Y68409192D01*
X65838068Y68159899D01*
X66017392Y67941392D01*
X66235899Y67762068D01*
X66368858Y67691000D01*
X66235899Y67619932D01*
X66017392Y67440608D01*
X65838068Y67222101D01*
X65704818Y66972808D01*
X65622764Y66702309D01*
X65595057Y66421000D01*
X65622764Y66139691D01*
X65704818Y65869192D01*
X65838068Y65619899D01*
X66017392Y65401392D01*
X66130482Y65308581D01*
X66112518Y65306812D01*
X65992820Y65270502D01*
X65882506Y65211537D01*
X65785815Y65132185D01*
X65706463Y65035494D01*
X65647498Y64925180D01*
X65611188Y64805482D01*
X65598928Y64681000D01*
X65598928Y63223796D01*
X62627465Y60252332D01*
X62595787Y60466130D01*
X62500603Y60732292D01*
X62433671Y60857514D01*
X62189702Y60929097D01*
X61376605Y60116000D01*
X61390748Y60101857D01*
X61211143Y59922252D01*
X61197000Y59936395D01*
X61182858Y59922252D01*
X61003253Y60101857D01*
X61017395Y60116000D01*
X60204298Y60929097D01*
X59960329Y60857514D01*
X59946676Y60828659D01*
X59811637Y61030759D01*
X59733694Y61108702D01*
X60383903Y61108702D01*
X61197000Y60295605D01*
X62010097Y61108702D01*
X61938514Y61352671D01*
X61683004Y61473571D01*
X61408816Y61542300D01*
X61126488Y61556217D01*
X60846870Y61514787D01*
X60580708Y61419603D01*
X60455486Y61352671D01*
X60383903Y61108702D01*
X59733694Y61108702D01*
X59611759Y61230637D01*
X59376727Y61387680D01*
X59115574Y61495853D01*
X58838335Y61551000D01*
X58555665Y61551000D01*
X58278426Y61495853D01*
X58017273Y61387680D01*
X57782241Y61230637D01*
X57582363Y61030759D01*
X57529070Y60951000D01*
X56307869Y60951000D01*
X54860842Y62398025D01*
X54860838Y62398030D01*
X54860833Y62398035D01*
X54834690Y62429890D01*
X54802835Y62456033D01*
X53929297Y63329571D01*
X54011236Y63599691D01*
X54038943Y63881000D01*
X54011236Y64162309D01*
X53929182Y64432808D01*
X53795932Y64682101D01*
X53616608Y64900608D01*
X53398101Y65079932D01*
X53265142Y65151000D01*
X53398101Y65222068D01*
X53616608Y65401392D01*
X53795932Y65619899D01*
X53929182Y65869192D01*
X54011236Y66139691D01*
X54038943Y66421000D01*
X54011236Y66702309D01*
X53929182Y66972808D01*
X53795932Y67222101D01*
X53616608Y67440608D01*
X53398101Y67619932D01*
X53265142Y67691000D01*
X53398101Y67762068D01*
X53616608Y67941392D01*
X53795932Y68159899D01*
X53929182Y68409192D01*
X54011236Y68679691D01*
X54038943Y68961000D01*
X54011236Y69242309D01*
X53929182Y69512808D01*
X53795932Y69762101D01*
X53616608Y69980608D01*
X53398101Y70159932D01*
X53265142Y70231000D01*
X53398101Y70302068D01*
X53616608Y70481392D01*
X53795932Y70699899D01*
X53929182Y70949192D01*
X54011236Y71219691D01*
X54038943Y71501000D01*
X54011236Y71782309D01*
X53929182Y72052808D01*
X53795932Y72302101D01*
X53616608Y72520608D01*
X53398101Y72699932D01*
X53265142Y72771000D01*
X53398101Y72842068D01*
X53616608Y73021392D01*
X53795932Y73239899D01*
X53929182Y73489192D01*
X54011236Y73759691D01*
X54038943Y74041000D01*
X54011236Y74322309D01*
X53929182Y74592808D01*
X53795932Y74842101D01*
X53616608Y75060608D01*
X53398101Y75239932D01*
X53265142Y75311000D01*
X53398101Y75382068D01*
X53616608Y75561392D01*
X53795932Y75779899D01*
X53929182Y76029192D01*
X54011236Y76299691D01*
X54038943Y76581000D01*
X54011236Y76862309D01*
X53929182Y77132808D01*
X53795932Y77382101D01*
X53616608Y77600608D01*
X53398101Y77779932D01*
X53265142Y77851000D01*
X53398101Y77922068D01*
X53616608Y78101392D01*
X53795932Y78319899D01*
X53929182Y78569192D01*
X54011236Y78839691D01*
X54038943Y79121000D01*
X54011236Y79402309D01*
X53929182Y79672808D01*
X53795932Y79922101D01*
X53616608Y80140608D01*
X53398101Y80319932D01*
X53265142Y80391000D01*
X53398101Y80462068D01*
X53616608Y80641392D01*
X53795932Y80859899D01*
X53929182Y81109192D01*
X54011236Y81379691D01*
X54038943Y81661000D01*
X54011236Y81942309D01*
X53929182Y82212808D01*
X53795932Y82462101D01*
X53616608Y82680608D01*
X53398101Y82859932D01*
X53265142Y82931000D01*
X53398101Y83002068D01*
X53616608Y83181392D01*
X53795932Y83399899D01*
X53929182Y83649192D01*
X54011236Y83919691D01*
X54038943Y84201000D01*
X54011236Y84482309D01*
X53929182Y84752808D01*
X53795932Y85002101D01*
X53616608Y85220608D01*
X53398101Y85399932D01*
X53265142Y85471000D01*
X53398101Y85542068D01*
X53616608Y85721392D01*
X53795932Y85939899D01*
X53929182Y86189192D01*
X54011236Y86459691D01*
X54038943Y86741000D01*
X54011236Y87022309D01*
X53929182Y87292808D01*
X53795932Y87542101D01*
X53616608Y87760608D01*
X53398101Y87939932D01*
X53265142Y88011000D01*
X53398101Y88082068D01*
X53616608Y88261392D01*
X53795932Y88479899D01*
X53929182Y88729192D01*
X54011236Y88999691D01*
X54038943Y89281000D01*
X54011236Y89562309D01*
X53929182Y89832808D01*
X53795932Y90082101D01*
X53734321Y90157175D01*
X57754193Y94177046D01*
X57782238Y94200062D01*
X57874087Y94311980D01*
X57942337Y94439667D01*
X57984365Y94578215D01*
X57995000Y94686195D01*
X57995000Y94686204D01*
X57998555Y94722299D01*
X57995000Y94758394D01*
X57995000Y97250039D01*
X65645096Y97250039D01*
X65767085Y97028000D01*
X67310000Y97028000D01*
X67310000Y98336000D01*
X66910000Y98336000D01*
X66632486Y98283650D01*
X66370517Y98178166D01*
X66134161Y98023601D01*
X65932500Y97825895D01*
X65773285Y97592646D01*
X65662633Y97332818D01*
X65645096Y97250039D01*
X57995000Y97250039D01*
X57995000Y105172488D01*
X67647783Y105172488D01*
X67689213Y104892870D01*
X67784397Y104626708D01*
X67851329Y104501486D01*
X68095298Y104429903D01*
X68908395Y105243000D01*
X69267605Y105243000D01*
X70080702Y104429903D01*
X70324671Y104501486D01*
X70445571Y104756996D01*
X70514300Y105031184D01*
X70528217Y105313512D01*
X70486787Y105593130D01*
X70391603Y105859292D01*
X70324671Y105984514D01*
X70080702Y106056097D01*
X69267605Y105243000D01*
X68908395Y105243000D01*
X68095298Y106056097D01*
X67851329Y105984514D01*
X67730429Y105729004D01*
X67661700Y105454816D01*
X67647783Y105172488D01*
X57995000Y105172488D01*
X57995000Y106235702D01*
X68274903Y106235702D01*
X69088000Y105422605D01*
X69901097Y106235702D01*
X69829514Y106479671D01*
X69574004Y106600571D01*
X69299816Y106669300D01*
X69017488Y106683217D01*
X68737870Y106641787D01*
X68471708Y106546603D01*
X68346486Y106479671D01*
X68274903Y106235702D01*
X57995000Y106235702D01*
X57995000Y110220128D01*
X71765000Y110220128D01*
X71765000Y109779872D01*
X71850890Y109348075D01*
X72019369Y108941331D01*
X72263962Y108575271D01*
X72575271Y108263962D01*
X72941331Y108019369D01*
X73348075Y107850890D01*
X73779872Y107765000D01*
X74220128Y107765000D01*
X74651925Y107850890D01*
X75058669Y108019369D01*
X75424729Y108263962D01*
X75736038Y108575271D01*
X75980631Y108941331D01*
X76149110Y109348075D01*
X76235000Y109779872D01*
X76235000Y110220128D01*
X76149110Y110651925D01*
X75980631Y111058669D01*
X75736038Y111424729D01*
X75424729Y111736038D01*
X75058669Y111980631D01*
X74651925Y112149110D01*
X74220128Y112235000D01*
X73779872Y112235000D01*
X73348075Y112149110D01*
X72941331Y111980631D01*
X72575271Y111736038D01*
X72263962Y111424729D01*
X72019369Y111058669D01*
X71850890Y110651925D01*
X71765000Y110220128D01*
X57995000Y110220128D01*
X57995000Y115373000D01*
X78334048Y115373000D01*
X78339966Y660000D01*
G04 #@! TA.AperFunction,Conductor*
D24*
G36*
X78339966Y660000D02*
G01*
X50877295Y660000D01*
X50910537Y700506D01*
X50969502Y810820D01*
X51005812Y930518D01*
X51018072Y1055000D01*
X51015000Y1619250D01*
X50856250Y1778000D01*
X49657000Y1778000D01*
X49657000Y1758000D01*
X49403000Y1758000D01*
X49403000Y1778000D01*
X49383000Y1778000D01*
X49383000Y2032000D01*
X49403000Y2032000D01*
X49403000Y3231250D01*
X49657000Y3231250D01*
X49657000Y2032000D01*
X50856250Y2032000D01*
X51015000Y2190750D01*
X51018072Y2755000D01*
X51005812Y2879482D01*
X50969502Y2999180D01*
X50910537Y3109494D01*
X50831185Y3206185D01*
X50734494Y3285537D01*
X50624180Y3344502D01*
X50504482Y3380812D01*
X50380000Y3393072D01*
X49815750Y3390000D01*
X49657000Y3231250D01*
X49403000Y3231250D01*
X49244250Y3390000D01*
X48680000Y3393072D01*
X48555518Y3380812D01*
X48435820Y3344502D01*
X48325506Y3285537D01*
X48228815Y3206185D01*
X48149463Y3109494D01*
X48090498Y2999180D01*
X48068487Y2926620D01*
X47936632Y3058475D01*
X47693411Y3220990D01*
X47423158Y3332932D01*
X47177386Y3381819D01*
X48381902Y4586335D01*
X54445000Y4586335D01*
X54445000Y4303665D01*
X54500147Y4026426D01*
X54608320Y3765273D01*
X54765363Y3530241D01*
X54965241Y3330363D01*
X55200273Y3173320D01*
X55461426Y3065147D01*
X55738665Y3010000D01*
X56021335Y3010000D01*
X56298574Y3065147D01*
X56559727Y3173320D01*
X56794759Y3330363D01*
X56994637Y3530241D01*
X57151680Y3765273D01*
X57259853Y4026426D01*
X57315000Y4303665D01*
X57315000Y4586335D01*
X57259853Y4863574D01*
X57151680Y5124727D01*
X56994637Y5359759D01*
X56794759Y5559637D01*
X56559727Y5716680D01*
X56549135Y5721067D01*
X56735131Y5832615D01*
X56943519Y6021586D01*
X57111037Y6247580D01*
X57231246Y6501913D01*
X57271904Y6635961D01*
X57149915Y6858000D01*
X56007000Y6858000D01*
X56007000Y6838000D01*
X55753000Y6838000D01*
X55753000Y6858000D01*
X54610085Y6858000D01*
X54488096Y6635961D01*
X54528754Y6501913D01*
X54648963Y6247580D01*
X54816481Y6021586D01*
X55024869Y5832615D01*
X55210865Y5721067D01*
X55200273Y5716680D01*
X54965241Y5559637D01*
X54765363Y5359759D01*
X54608320Y5124727D01*
X54500147Y4863574D01*
X54445000Y4586335D01*
X48381902Y4586335D01*
X54855586Y11060018D01*
X54965241Y10950363D01*
X55197759Y10795000D01*
X54965241Y10639637D01*
X54765363Y10439759D01*
X54608320Y10204727D01*
X54500147Y9943574D01*
X54445000Y9666335D01*
X54445000Y9383665D01*
X54500147Y9106426D01*
X54608320Y8845273D01*
X54765363Y8610241D01*
X54965241Y8410363D01*
X55200273Y8253320D01*
X55210865Y8248933D01*
X55024869Y8137385D01*
X54816481Y7948414D01*
X54648963Y7722420D01*
X54528754Y7468087D01*
X54488096Y7334039D01*
X54610085Y7112000D01*
X55753000Y7112000D01*
X55753000Y7132000D01*
X56007000Y7132000D01*
X56007000Y7112000D01*
X57149915Y7112000D01*
X57271904Y7334039D01*
X57231246Y7468087D01*
X57111037Y7722420D01*
X56943519Y7948414D01*
X56735131Y8137385D01*
X56549135Y8248933D01*
X56559727Y8253320D01*
X56794759Y8410363D01*
X56994637Y8610241D01*
X57151680Y8845273D01*
X57259853Y9106426D01*
X57315000Y9383665D01*
X57315000Y9666335D01*
X57259853Y9943574D01*
X57151680Y10204727D01*
X56994637Y10439759D01*
X56794759Y10639637D01*
X56562241Y10795000D01*
X56794759Y10950363D01*
X56994637Y11150241D01*
X57151680Y11385273D01*
X57259853Y11646426D01*
X57315000Y11923665D01*
X57315000Y12206335D01*
X57259853Y12483574D01*
X57254646Y12496144D01*
X57305363Y12420241D01*
X57505241Y12220363D01*
X57740273Y12063320D01*
X58001426Y11955147D01*
X58278665Y11900000D01*
X58561335Y11900000D01*
X58838574Y11955147D01*
X59099727Y12063320D01*
X59334759Y12220363D01*
X59534637Y12420241D01*
X59691680Y12655273D01*
X59799853Y12916426D01*
X59855000Y13193665D01*
X59855000Y13476335D01*
X59799853Y13753574D01*
X59691680Y14014727D01*
X59534637Y14249759D01*
X59334759Y14449637D01*
X59102241Y14605000D01*
X59334759Y14760363D01*
X59534637Y14960241D01*
X59691680Y15195273D01*
X59799853Y15456426D01*
X59855000Y15733665D01*
X59855000Y16016335D01*
X59799853Y16293574D01*
X59691680Y16554727D01*
X59534637Y16789759D01*
X59334759Y16989637D01*
X59099727Y17146680D01*
X58838574Y17254853D01*
X58561335Y17310000D01*
X58278665Y17310000D01*
X58001426Y17254853D01*
X57930900Y17225640D01*
X57930900Y22144360D01*
X58001426Y22115147D01*
X58278665Y22060000D01*
X58561335Y22060000D01*
X58838574Y22115147D01*
X59099727Y22223320D01*
X59334759Y22380363D01*
X59534637Y22580241D01*
X59691680Y22815273D01*
X59799853Y23076426D01*
X59855000Y23353665D01*
X59855000Y23636335D01*
X59799853Y23913574D01*
X59691680Y24174727D01*
X59534637Y24409759D01*
X59334759Y24609637D01*
X59102241Y24765000D01*
X59334759Y24920363D01*
X59534637Y25120241D01*
X59691680Y25355273D01*
X59799853Y25616426D01*
X59855000Y25893665D01*
X59855000Y26176335D01*
X59799853Y26453574D01*
X59691680Y26714727D01*
X59534637Y26949759D01*
X59334759Y27149637D01*
X59099727Y27306680D01*
X58838574Y27414853D01*
X58561335Y27470000D01*
X58278665Y27470000D01*
X58001426Y27414853D01*
X57930900Y27385640D01*
X57930900Y36909370D01*
X57995000Y36903057D01*
X58276309Y36930764D01*
X58546808Y37012818D01*
X58796101Y37146068D01*
X59014608Y37325392D01*
X59193932Y37543899D01*
X59265000Y37676858D01*
X59336068Y37543899D01*
X59515393Y37325392D01*
X59733900Y37146068D01*
X59983193Y37012818D01*
X60253692Y36930764D01*
X60535000Y36903057D01*
X60816309Y36930764D01*
X61086808Y37012818D01*
X61336101Y37146068D01*
X61554608Y37325392D01*
X61733932Y37543899D01*
X61867182Y37793192D01*
X61949236Y38063691D01*
X61970000Y38274509D01*
X61970000Y39215492D01*
X61949236Y39426309D01*
X61867182Y39696808D01*
X61733932Y39946101D01*
X61554607Y40164608D01*
X61336100Y40343932D01*
X61086807Y40477182D01*
X60816308Y40559236D01*
X60535000Y40586943D01*
X60253691Y40559236D01*
X59983192Y40477182D01*
X59733899Y40343932D01*
X59515392Y40164607D01*
X59336068Y39946100D01*
X59265000Y39813142D01*
X59193932Y39946101D01*
X59014607Y40164608D01*
X58796100Y40343932D01*
X58546807Y40477182D01*
X58276308Y40559236D01*
X57995000Y40586943D01*
X57713691Y40559236D01*
X57560000Y40512615D01*
X57560000Y44227298D01*
X63016903Y44227298D01*
X63088486Y43983329D01*
X63343996Y43862429D01*
X63618184Y43793700D01*
X63900512Y43779783D01*
X64180130Y43821213D01*
X64446292Y43916397D01*
X64571514Y43983329D01*
X64643097Y44227298D01*
X63830000Y45040395D01*
X63016903Y44227298D01*
X57560000Y44227298D01*
X57560000Y45149488D01*
X62389783Y45149488D01*
X62431213Y44869870D01*
X62526397Y44603708D01*
X62593329Y44478486D01*
X62837298Y44406903D01*
X63650395Y45220000D01*
X64009605Y45220000D01*
X64822702Y44406903D01*
X65066671Y44478486D01*
X65187571Y44733996D01*
X65256300Y45008184D01*
X65270217Y45290512D01*
X65228787Y45570130D01*
X65133603Y45836292D01*
X65066671Y45961514D01*
X64822702Y46033097D01*
X64009605Y45220000D01*
X63650395Y45220000D01*
X62837298Y46033097D01*
X62593329Y45961514D01*
X62472429Y45706004D01*
X62403700Y45431816D01*
X62389783Y45149488D01*
X57560000Y45149488D01*
X57560000Y46885000D01*
X62662070Y46885000D01*
X62715363Y46805241D01*
X62915241Y46605363D01*
X63115869Y46471308D01*
X63088486Y46456671D01*
X63016903Y46212702D01*
X63830000Y45399605D01*
X64643097Y46212702D01*
X64571514Y46456671D01*
X64542659Y46470324D01*
X64744759Y46605363D01*
X64944637Y46805241D01*
X65082574Y47011679D01*
X69284701Y42809552D01*
X69284700Y24324005D01*
X69281144Y24287900D01*
X69294636Y24150913D01*
X69295335Y24143816D01*
X69337363Y24005268D01*
X69405613Y23877581D01*
X69497462Y23765663D01*
X69525508Y23742646D01*
X70066879Y23201275D01*
X70005363Y23139759D01*
X69848320Y22904727D01*
X69740147Y22643574D01*
X69685000Y22366335D01*
X69685000Y22083665D01*
X69740147Y21806426D01*
X69848320Y21545273D01*
X70005363Y21310241D01*
X70205241Y21110363D01*
X70437759Y20955000D01*
X70205241Y20799637D01*
X70005363Y20599759D01*
X69848320Y20364727D01*
X69740147Y20103574D01*
X69685000Y19826335D01*
X69685000Y19543665D01*
X69740147Y19266426D01*
X69848320Y19005273D01*
X70005363Y18770241D01*
X70205241Y18570363D01*
X70437759Y18415000D01*
X70205241Y18259637D01*
X70005363Y18059759D01*
X69848320Y17824727D01*
X69740147Y17563574D01*
X69685000Y17286335D01*
X69685000Y17003665D01*
X69740147Y16726426D01*
X69848320Y16465273D01*
X70005363Y16230241D01*
X70205241Y16030363D01*
X70437759Y15875000D01*
X70205241Y15719637D01*
X70005363Y15519759D01*
X69848320Y15284727D01*
X69740147Y15023574D01*
X69685000Y14746335D01*
X69685000Y14463665D01*
X69740147Y14186426D01*
X69848320Y13925273D01*
X70005363Y13690241D01*
X70205241Y13490363D01*
X70437759Y13335000D01*
X70205241Y13179637D01*
X70005363Y12979759D01*
X69848320Y12744727D01*
X69740147Y12483574D01*
X69685000Y12206335D01*
X69685000Y11923665D01*
X69740147Y11646426D01*
X69848320Y11385273D01*
X70005363Y11150241D01*
X70205241Y10950363D01*
X70437759Y10795000D01*
X70205241Y10639637D01*
X70005363Y10439759D01*
X69848320Y10204727D01*
X69740147Y9943574D01*
X69685000Y9666335D01*
X69685000Y9383665D01*
X69740147Y9106426D01*
X69848320Y8845273D01*
X70005363Y8610241D01*
X70205241Y8410363D01*
X70437759Y8255000D01*
X70205241Y8099637D01*
X70005363Y7899759D01*
X69848320Y7664727D01*
X69740147Y7403574D01*
X69685000Y7126335D01*
X69685000Y6843665D01*
X69740147Y6566426D01*
X69848320Y6305273D01*
X70005363Y6070241D01*
X70203961Y5871643D01*
X70195518Y5870812D01*
X70075820Y5834502D01*
X69965506Y5775537D01*
X69868815Y5696185D01*
X69789463Y5599494D01*
X69730498Y5489180D01*
X69694188Y5369482D01*
X69681928Y5245000D01*
X69681928Y3645000D01*
X69694188Y3520518D01*
X69730498Y3400820D01*
X69789463Y3290506D01*
X69868815Y3193815D01*
X69965506Y3114463D01*
X70075820Y3055498D01*
X70195518Y3019188D01*
X70320000Y3006928D01*
X71920000Y3006928D01*
X72044482Y3019188D01*
X72164180Y3055498D01*
X72274494Y3114463D01*
X72371185Y3193815D01*
X72450537Y3290506D01*
X72509502Y3400820D01*
X72545812Y3520518D01*
X72558072Y3645000D01*
X72558072Y5245000D01*
X72545812Y5369482D01*
X72509502Y5489180D01*
X72450537Y5599494D01*
X72371185Y5696185D01*
X72274494Y5775537D01*
X72164180Y5834502D01*
X72044482Y5870812D01*
X72036039Y5871643D01*
X72234637Y6070241D01*
X72391680Y6305273D01*
X72499853Y6566426D01*
X72555000Y6843665D01*
X72555000Y7126335D01*
X72499853Y7403574D01*
X72391680Y7664727D01*
X72234637Y7899759D01*
X72034759Y8099637D01*
X71802241Y8255000D01*
X72034759Y8410363D01*
X72234637Y8610241D01*
X72391680Y8845273D01*
X72499853Y9106426D01*
X72555000Y9383665D01*
X72555000Y9666335D01*
X72499853Y9943574D01*
X72391680Y10204727D01*
X72234637Y10439759D01*
X72034759Y10639637D01*
X71802241Y10795000D01*
X72034759Y10950363D01*
X72234637Y11150241D01*
X72391680Y11385273D01*
X72499853Y11646426D01*
X72555000Y11923665D01*
X72555000Y12206335D01*
X72499853Y12483574D01*
X72391680Y12744727D01*
X72234637Y12979759D01*
X72034759Y13179637D01*
X71802241Y13335000D01*
X72034759Y13490363D01*
X72234637Y13690241D01*
X72391680Y13925273D01*
X72499853Y14186426D01*
X72555000Y14463665D01*
X72555000Y14746335D01*
X72499853Y15023574D01*
X72391680Y15284727D01*
X72234637Y15519759D01*
X72034759Y15719637D01*
X71802241Y15875000D01*
X72034759Y16030363D01*
X72234637Y16230241D01*
X72391680Y16465273D01*
X72499853Y16726426D01*
X72555000Y17003665D01*
X72555000Y17286335D01*
X72499853Y17563574D01*
X72391680Y17824727D01*
X72234637Y18059759D01*
X72034759Y18259637D01*
X71802241Y18415000D01*
X72034759Y18570363D01*
X72234637Y18770241D01*
X72391680Y19005273D01*
X72499853Y19266426D01*
X72555000Y19543665D01*
X72555000Y19826335D01*
X72499853Y20103574D01*
X72391680Y20364727D01*
X72234637Y20599759D01*
X72034759Y20799637D01*
X71802241Y20955000D01*
X72034759Y21110363D01*
X72234637Y21310241D01*
X72391680Y21545273D01*
X72499853Y21806426D01*
X72555000Y22083665D01*
X72555000Y22366335D01*
X72499853Y22643574D01*
X72391680Y22904727D01*
X72234637Y23139759D01*
X72034759Y23339637D01*
X71844632Y23466676D01*
X71844365Y23469385D01*
X71830805Y23514086D01*
X72034759Y23650363D01*
X72234637Y23850241D01*
X72391680Y24085273D01*
X72499853Y24346426D01*
X72555000Y24623665D01*
X72555000Y24906335D01*
X72499853Y25183574D01*
X72391680Y25444727D01*
X72234637Y25679759D01*
X72034759Y25879637D01*
X71802241Y26035000D01*
X72034759Y26190363D01*
X72234637Y26390241D01*
X72391680Y26625273D01*
X72499853Y26886426D01*
X72555000Y27163665D01*
X72555000Y27446335D01*
X72499853Y27723574D01*
X72391680Y27984727D01*
X72234637Y28219759D01*
X72034759Y28419637D01*
X71802241Y28575000D01*
X72034759Y28730363D01*
X72234637Y28930241D01*
X72391680Y29165273D01*
X72499853Y29426426D01*
X72555000Y29703665D01*
X72555000Y29986335D01*
X72499853Y30263574D01*
X72391680Y30524727D01*
X72234637Y30759759D01*
X72034759Y30959637D01*
X71802241Y31115000D01*
X72034759Y31270363D01*
X72234637Y31470241D01*
X72391680Y31705273D01*
X72499853Y31966426D01*
X72555000Y32243665D01*
X72555000Y32526335D01*
X72499853Y32803574D01*
X72391680Y33064727D01*
X72234637Y33299759D01*
X72034759Y33499637D01*
X71799727Y33656680D01*
X71538574Y33764853D01*
X71261335Y33820000D01*
X70978665Y33820000D01*
X70754700Y33775450D01*
X70754700Y41220128D01*
X71765000Y41220128D01*
X71765000Y40779872D01*
X71850890Y40348075D01*
X72019369Y39941331D01*
X72263962Y39575271D01*
X72575271Y39263962D01*
X72941331Y39019369D01*
X73348075Y38850890D01*
X73779872Y38765000D01*
X74220128Y38765000D01*
X74651925Y38850890D01*
X75058669Y39019369D01*
X75424729Y39263962D01*
X75736038Y39575271D01*
X75980631Y39941331D01*
X76149110Y40348075D01*
X76235000Y40779872D01*
X76235000Y41220128D01*
X76149110Y41651925D01*
X75980631Y42058669D01*
X75736038Y42424729D01*
X75424729Y42736038D01*
X75058669Y42980631D01*
X74651925Y43149110D01*
X74220128Y43235000D01*
X73779872Y43235000D01*
X73348075Y43149110D01*
X72941331Y42980631D01*
X72575271Y42736038D01*
X72263962Y42424729D01*
X72019369Y42058669D01*
X71850890Y41651925D01*
X71765000Y41220128D01*
X70754700Y41220128D01*
X70754700Y43077896D01*
X70758256Y43114001D01*
X70744065Y43258086D01*
X70731316Y43300114D01*
X70702037Y43396633D01*
X70633787Y43524320D01*
X70541938Y43636238D01*
X70513893Y43659254D01*
X61578564Y52594582D01*
X61733932Y52783899D01*
X61867182Y53033192D01*
X61949236Y53303691D01*
X61970000Y53514509D01*
X61970000Y54455492D01*
X61949236Y54666309D01*
X61867182Y54936808D01*
X61733932Y55186101D01*
X61554607Y55404608D01*
X61336100Y55583932D01*
X61086807Y55717182D01*
X60816308Y55799236D01*
X60535000Y55826943D01*
X60253691Y55799236D01*
X59983192Y55717182D01*
X59733899Y55583932D01*
X59515392Y55404607D01*
X59336068Y55186100D01*
X59265000Y55053142D01*
X59193932Y55186101D01*
X59014607Y55404608D01*
X58796100Y55583932D01*
X58546807Y55717182D01*
X58276308Y55799236D01*
X57995000Y55826943D01*
X57713691Y55799236D01*
X57443192Y55717182D01*
X57193899Y55583932D01*
X56975392Y55404607D01*
X56796068Y55186100D01*
X56725000Y55053142D01*
X56653932Y55186101D01*
X56474607Y55404608D01*
X56256100Y55583932D01*
X56006807Y55717182D01*
X55736308Y55799236D01*
X55455000Y55826943D01*
X55173691Y55799236D01*
X54903192Y55717182D01*
X54653899Y55583932D01*
X54435392Y55404607D01*
X54256068Y55186100D01*
X54185000Y55053142D01*
X54113932Y55186101D01*
X53934607Y55404608D01*
X53716100Y55583932D01*
X53466807Y55717182D01*
X53196308Y55799236D01*
X52915000Y55826943D01*
X52633691Y55799236D01*
X52363192Y55717182D01*
X52113899Y55583932D01*
X51895392Y55404607D01*
X51716068Y55186100D01*
X51645000Y55053142D01*
X51573932Y55186101D01*
X51394607Y55404608D01*
X51176100Y55583932D01*
X50926807Y55717182D01*
X50656308Y55799236D01*
X50375000Y55826943D01*
X50093691Y55799236D01*
X49823192Y55717182D01*
X49573899Y55583932D01*
X49355392Y55404607D01*
X49176068Y55186100D01*
X49105000Y55053142D01*
X49033932Y55186101D01*
X48915760Y55330093D01*
X54241400Y60655732D01*
X55342563Y59554568D01*
X55368709Y59522709D01*
X55400568Y59496563D01*
X55400570Y59496561D01*
X55495854Y59418364D01*
X55640913Y59340828D01*
X55798311Y59293082D01*
X55962000Y59276960D01*
X56003018Y59281000D01*
X57529070Y59281000D01*
X57582363Y59201241D01*
X57782241Y59001363D01*
X58017273Y58844320D01*
X58278426Y58736147D01*
X58555665Y58681000D01*
X58838335Y58681000D01*
X58932418Y58699714D01*
X59277558Y58354574D01*
X59303709Y58322709D01*
X59430854Y58218364D01*
X59575913Y58140828D01*
X59733311Y58093082D01*
X59855981Y58081000D01*
X59855991Y58081000D01*
X59896999Y58076961D01*
X59938007Y58081000D01*
X62430982Y58081000D01*
X62472000Y58076960D01*
X62513018Y58081000D01*
X62513019Y58081000D01*
X62635689Y58093082D01*
X62793087Y58140828D01*
X62938146Y58218364D01*
X63065291Y58322709D01*
X63091446Y58354579D01*
X67179796Y62442928D01*
X68637000Y62442928D01*
X68761482Y62455188D01*
X68881180Y62491498D01*
X68991494Y62550463D01*
X69088185Y62629815D01*
X69167537Y62726506D01*
X69226502Y62836820D01*
X69262812Y62956518D01*
X69275027Y63080541D01*
X69358387Y63105828D01*
X69503446Y63183364D01*
X69630591Y63287709D01*
X69656745Y63319578D01*
X70215232Y63878064D01*
X70247091Y63904209D01*
X70351436Y64031354D01*
X70428972Y64176413D01*
X70476718Y64333811D01*
X70488800Y64456481D01*
X70488800Y64456482D01*
X70492840Y64497500D01*
X70488800Y64538518D01*
X70488800Y100935882D01*
X70492840Y100976901D01*
X70476718Y101140589D01*
X70428972Y101297987D01*
X70351436Y101443046D01*
X70322589Y101478195D01*
X70339185Y101491815D01*
X70418537Y101588506D01*
X70477502Y101698820D01*
X70513812Y101818518D01*
X70526072Y101943000D01*
X70526072Y103543000D01*
X70513812Y103667482D01*
X70477502Y103787180D01*
X70418537Y103897494D01*
X70339185Y103994185D01*
X70242494Y104073537D01*
X70132180Y104132502D01*
X70012482Y104168812D01*
X69888000Y104181072D01*
X69880785Y104181072D01*
X69901097Y104250298D01*
X69088000Y105063395D01*
X68274903Y104250298D01*
X68295215Y104181072D01*
X68288000Y104181072D01*
X68163518Y104168812D01*
X68043820Y104132502D01*
X67933506Y104073537D01*
X67836815Y103994185D01*
X67757463Y103897494D01*
X67698498Y103787180D01*
X67662188Y103667482D01*
X67649928Y103543000D01*
X67649928Y101943000D01*
X67662188Y101818518D01*
X67698498Y101698820D01*
X67757463Y101588506D01*
X67836815Y101491815D01*
X67933506Y101412463D01*
X68043820Y101353498D01*
X68163518Y101317188D01*
X68287541Y101304973D01*
X68312828Y101221614D01*
X68390364Y101076555D01*
X68390365Y101076554D01*
X68494710Y100949409D01*
X68526574Y100923259D01*
X68818801Y100631031D01*
X68818801Y97946188D01*
X68739839Y98023601D01*
X68503483Y98178166D01*
X68241514Y98283650D01*
X67964000Y98336000D01*
X67564000Y98336000D01*
X67564000Y97028000D01*
X67584000Y97028000D01*
X67584000Y96774000D01*
X67564000Y96774000D01*
X67564000Y96754000D01*
X67310000Y96754000D01*
X67310000Y96774000D01*
X65767085Y96774000D01*
X65645096Y96551961D01*
X65662633Y96469182D01*
X65773285Y96209354D01*
X65932500Y95976105D01*
X66134161Y95778399D01*
X66363741Y95628265D01*
X66235899Y95559932D01*
X66017392Y95380608D01*
X65838068Y95162101D01*
X65704818Y94912808D01*
X65622764Y94642309D01*
X65595057Y94361000D01*
X65622764Y94079691D01*
X65704818Y93809192D01*
X65838068Y93559899D01*
X66017392Y93341392D01*
X66235899Y93162068D01*
X66368858Y93091000D01*
X66235899Y93019932D01*
X66017392Y92840608D01*
X65838068Y92622101D01*
X65704818Y92372808D01*
X65622764Y92102309D01*
X65595057Y91821000D01*
X65622764Y91539691D01*
X65704818Y91269192D01*
X65838068Y91019899D01*
X66017392Y90801392D01*
X66235899Y90622068D01*
X66368858Y90551000D01*
X66235899Y90479932D01*
X66017392Y90300608D01*
X65838068Y90082101D01*
X65704818Y89832808D01*
X65622764Y89562309D01*
X65595057Y89281000D01*
X65622764Y88999691D01*
X65704818Y88729192D01*
X65838068Y88479899D01*
X66017392Y88261392D01*
X66235899Y88082068D01*
X66368858Y88011000D01*
X66235899Y87939932D01*
X66017392Y87760608D01*
X65838068Y87542101D01*
X65704818Y87292808D01*
X65622764Y87022309D01*
X65595057Y86741000D01*
X65622764Y86459691D01*
X65704818Y86189192D01*
X65838068Y85939899D01*
X66017392Y85721392D01*
X66235899Y85542068D01*
X66368858Y85471000D01*
X66235899Y85399932D01*
X66017392Y85220608D01*
X65838068Y85002101D01*
X65704818Y84752808D01*
X65622764Y84482309D01*
X65595057Y84201000D01*
X65622764Y83919691D01*
X65704818Y83649192D01*
X65838068Y83399899D01*
X66017392Y83181392D01*
X66235899Y83002068D01*
X66368858Y82931000D01*
X66235899Y82859932D01*
X66017392Y82680608D01*
X65838068Y82462101D01*
X65704818Y82212808D01*
X65622764Y81942309D01*
X65595057Y81661000D01*
X65622764Y81379691D01*
X65704818Y81109192D01*
X65838068Y80859899D01*
X66017392Y80641392D01*
X66235899Y80462068D01*
X66368858Y80391000D01*
X66235899Y80319932D01*
X66017392Y80140608D01*
X65838068Y79922101D01*
X65704818Y79672808D01*
X65622764Y79402309D01*
X65595057Y79121000D01*
X65622764Y78839691D01*
X65704818Y78569192D01*
X65838068Y78319899D01*
X66017392Y78101392D01*
X66235899Y77922068D01*
X66368858Y77851000D01*
X66235899Y77779932D01*
X66017392Y77600608D01*
X65838068Y77382101D01*
X65704818Y77132808D01*
X65622764Y76862309D01*
X65595057Y76581000D01*
X65622764Y76299691D01*
X65704818Y76029192D01*
X65838068Y75779899D01*
X66017392Y75561392D01*
X66235899Y75382068D01*
X66368858Y75311000D01*
X66235899Y75239932D01*
X66017392Y75060608D01*
X65838068Y74842101D01*
X65704818Y74592808D01*
X65622764Y74322309D01*
X65595057Y74041000D01*
X65622764Y73759691D01*
X65704818Y73489192D01*
X65838068Y73239899D01*
X66017392Y73021392D01*
X66235899Y72842068D01*
X66368858Y72771000D01*
X66235899Y72699932D01*
X66017392Y72520608D01*
X65838068Y72302101D01*
X65704818Y72052808D01*
X65622764Y71782309D01*
X65595057Y71501000D01*
X65622764Y71219691D01*
X65704818Y70949192D01*
X65838068Y70699899D01*
X66017392Y70481392D01*
X66235899Y70302068D01*
X66368858Y70231000D01*
X66235899Y70159932D01*
X66017392Y69980608D01*
X65838068Y69762101D01*
X65704818Y69512808D01*
X65622764Y69242309D01*
X65595057Y68961000D01*
X65622764Y68679691D01*
X65704818Y68409192D01*
X65838068Y68159899D01*
X66017392Y67941392D01*
X66235899Y67762068D01*
X66368858Y67691000D01*
X66235899Y67619932D01*
X66017392Y67440608D01*
X65838068Y67222101D01*
X65704818Y66972808D01*
X65622764Y66702309D01*
X65595057Y66421000D01*
X65622764Y66139691D01*
X65704818Y65869192D01*
X65838068Y65619899D01*
X66017392Y65401392D01*
X66130482Y65308581D01*
X66112518Y65306812D01*
X65992820Y65270502D01*
X65882506Y65211537D01*
X65785815Y65132185D01*
X65706463Y65035494D01*
X65647498Y64925180D01*
X65611188Y64805482D01*
X65598928Y64681000D01*
X65598928Y63223796D01*
X62627465Y60252332D01*
X62595787Y60466130D01*
X62500603Y60732292D01*
X62433671Y60857514D01*
X62189702Y60929097D01*
X61376605Y60116000D01*
X61390748Y60101857D01*
X61211143Y59922252D01*
X61197000Y59936395D01*
X61182858Y59922252D01*
X61003253Y60101857D01*
X61017395Y60116000D01*
X60204298Y60929097D01*
X59960329Y60857514D01*
X59946676Y60828659D01*
X59811637Y61030759D01*
X59733694Y61108702D01*
X60383903Y61108702D01*
X61197000Y60295605D01*
X62010097Y61108702D01*
X61938514Y61352671D01*
X61683004Y61473571D01*
X61408816Y61542300D01*
X61126488Y61556217D01*
X60846870Y61514787D01*
X60580708Y61419603D01*
X60455486Y61352671D01*
X60383903Y61108702D01*
X59733694Y61108702D01*
X59611759Y61230637D01*
X59376727Y61387680D01*
X59115574Y61495853D01*
X58838335Y61551000D01*
X58555665Y61551000D01*
X58278426Y61495853D01*
X58017273Y61387680D01*
X57782241Y61230637D01*
X57582363Y61030759D01*
X57529070Y60951000D01*
X56307869Y60951000D01*
X54860842Y62398025D01*
X54860838Y62398030D01*
X54860833Y62398035D01*
X54834690Y62429890D01*
X54802835Y62456033D01*
X53929297Y63329571D01*
X54011236Y63599691D01*
X54038943Y63881000D01*
X54011236Y64162309D01*
X53929182Y64432808D01*
X53795932Y64682101D01*
X53616608Y64900608D01*
X53398101Y65079932D01*
X53265142Y65151000D01*
X53398101Y65222068D01*
X53616608Y65401392D01*
X53795932Y65619899D01*
X53929182Y65869192D01*
X54011236Y66139691D01*
X54038943Y66421000D01*
X54011236Y66702309D01*
X53929182Y66972808D01*
X53795932Y67222101D01*
X53616608Y67440608D01*
X53398101Y67619932D01*
X53265142Y67691000D01*
X53398101Y67762068D01*
X53616608Y67941392D01*
X53795932Y68159899D01*
X53929182Y68409192D01*
X54011236Y68679691D01*
X54038943Y68961000D01*
X54011236Y69242309D01*
X53929182Y69512808D01*
X53795932Y69762101D01*
X53616608Y69980608D01*
X53398101Y70159932D01*
X53265142Y70231000D01*
X53398101Y70302068D01*
X53616608Y70481392D01*
X53795932Y70699899D01*
X53929182Y70949192D01*
X54011236Y71219691D01*
X54038943Y71501000D01*
X54011236Y71782309D01*
X53929182Y72052808D01*
X53795932Y72302101D01*
X53616608Y72520608D01*
X53398101Y72699932D01*
X53265142Y72771000D01*
X53398101Y72842068D01*
X53616608Y73021392D01*
X53795932Y73239899D01*
X53929182Y73489192D01*
X54011236Y73759691D01*
X54038943Y74041000D01*
X54011236Y74322309D01*
X53929182Y74592808D01*
X53795932Y74842101D01*
X53616608Y75060608D01*
X53398101Y75239932D01*
X53265142Y75311000D01*
X53398101Y75382068D01*
X53616608Y75561392D01*
X53795932Y75779899D01*
X53929182Y76029192D01*
X54011236Y76299691D01*
X54038943Y76581000D01*
X54011236Y76862309D01*
X53929182Y77132808D01*
X53795932Y77382101D01*
X53616608Y77600608D01*
X53398101Y77779932D01*
X53265142Y77851000D01*
X53398101Y77922068D01*
X53616608Y78101392D01*
X53795932Y78319899D01*
X53929182Y78569192D01*
X54011236Y78839691D01*
X54038943Y79121000D01*
X54011236Y79402309D01*
X53929182Y79672808D01*
X53795932Y79922101D01*
X53616608Y80140608D01*
X53398101Y80319932D01*
X53265142Y80391000D01*
X53398101Y80462068D01*
X53616608Y80641392D01*
X53795932Y80859899D01*
X53929182Y81109192D01*
X54011236Y81379691D01*
X54038943Y81661000D01*
X54011236Y81942309D01*
X53929182Y82212808D01*
X53795932Y82462101D01*
X53616608Y82680608D01*
X53398101Y82859932D01*
X53265142Y82931000D01*
X53398101Y83002068D01*
X53616608Y83181392D01*
X53795932Y83399899D01*
X53929182Y83649192D01*
X54011236Y83919691D01*
X54038943Y84201000D01*
X54011236Y84482309D01*
X53929182Y84752808D01*
X53795932Y85002101D01*
X53616608Y85220608D01*
X53398101Y85399932D01*
X53265142Y85471000D01*
X53398101Y85542068D01*
X53616608Y85721392D01*
X53795932Y85939899D01*
X53929182Y86189192D01*
X54011236Y86459691D01*
X54038943Y86741000D01*
X54011236Y87022309D01*
X53929182Y87292808D01*
X53795932Y87542101D01*
X53616608Y87760608D01*
X53398101Y87939932D01*
X53265142Y88011000D01*
X53398101Y88082068D01*
X53616608Y88261392D01*
X53795932Y88479899D01*
X53929182Y88729192D01*
X54011236Y88999691D01*
X54038943Y89281000D01*
X54011236Y89562309D01*
X53929182Y89832808D01*
X53795932Y90082101D01*
X53734321Y90157175D01*
X57754193Y94177046D01*
X57782238Y94200062D01*
X57874087Y94311980D01*
X57942337Y94439667D01*
X57984365Y94578215D01*
X57995000Y94686195D01*
X57995000Y94686204D01*
X57998555Y94722299D01*
X57995000Y94758394D01*
X57995000Y97250039D01*
X65645096Y97250039D01*
X65767085Y97028000D01*
X67310000Y97028000D01*
X67310000Y98336000D01*
X66910000Y98336000D01*
X66632486Y98283650D01*
X66370517Y98178166D01*
X66134161Y98023601D01*
X65932500Y97825895D01*
X65773285Y97592646D01*
X65662633Y97332818D01*
X65645096Y97250039D01*
X57995000Y97250039D01*
X57995000Y105172488D01*
X67647783Y105172488D01*
X67689213Y104892870D01*
X67784397Y104626708D01*
X67851329Y104501486D01*
X68095298Y104429903D01*
X68908395Y105243000D01*
X69267605Y105243000D01*
X70080702Y104429903D01*
X70324671Y104501486D01*
X70445571Y104756996D01*
X70514300Y105031184D01*
X70528217Y105313512D01*
X70486787Y105593130D01*
X70391603Y105859292D01*
X70324671Y105984514D01*
X70080702Y106056097D01*
X69267605Y105243000D01*
X68908395Y105243000D01*
X68095298Y106056097D01*
X67851329Y105984514D01*
X67730429Y105729004D01*
X67661700Y105454816D01*
X67647783Y105172488D01*
X57995000Y105172488D01*
X57995000Y106235702D01*
X68274903Y106235702D01*
X69088000Y105422605D01*
X69901097Y106235702D01*
X69829514Y106479671D01*
X69574004Y106600571D01*
X69299816Y106669300D01*
X69017488Y106683217D01*
X68737870Y106641787D01*
X68471708Y106546603D01*
X68346486Y106479671D01*
X68274903Y106235702D01*
X57995000Y106235702D01*
X57995000Y110220128D01*
X71765000Y110220128D01*
X71765000Y109779872D01*
X71850890Y109348075D01*
X72019369Y108941331D01*
X72263962Y108575271D01*
X72575271Y108263962D01*
X72941331Y108019369D01*
X73348075Y107850890D01*
X73779872Y107765000D01*
X74220128Y107765000D01*
X74651925Y107850890D01*
X75058669Y108019369D01*
X75424729Y108263962D01*
X75736038Y108575271D01*
X75980631Y108941331D01*
X76149110Y109348075D01*
X76235000Y109779872D01*
X76235000Y110220128D01*
X76149110Y110651925D01*
X75980631Y111058669D01*
X75736038Y111424729D01*
X75424729Y111736038D01*
X75058669Y111980631D01*
X74651925Y112149110D01*
X74220128Y112235000D01*
X73779872Y112235000D01*
X73348075Y112149110D01*
X72941331Y111980631D01*
X72575271Y111736038D01*
X72263962Y111424729D01*
X72019369Y111058669D01*
X71850890Y110651925D01*
X71765000Y110220128D01*
X57995000Y110220128D01*
X57995000Y115373000D01*
X78334048Y115373000D01*
X78339966Y660000D01*
G37*
G04 #@! TD.AperFunction*
D23*
X10805000Y113296453D02*
X10755723Y113222705D01*
X10689010Y113061645D01*
X10655000Y112890665D01*
X10655000Y112716335D01*
X10689010Y112545355D01*
X10755723Y112384295D01*
X10852576Y112239345D01*
X10975845Y112116076D01*
X11120795Y112019223D01*
X11281855Y111952510D01*
X11452835Y111918500D01*
X11627165Y111918500D01*
X11798145Y111952510D01*
X11959205Y112019223D01*
X12104155Y112116076D01*
X12227424Y112239345D01*
X12324277Y112384295D01*
X12390990Y112545355D01*
X12425000Y112716335D01*
X12425000Y112890665D01*
X12390990Y113061645D01*
X12324277Y113222705D01*
X12275000Y113296453D01*
X12275000Y115373000D01*
X17833653Y115373000D01*
X16194208Y113733554D01*
X16166162Y113710537D01*
X16074313Y113598619D01*
X16006063Y113470932D01*
X15990754Y113420464D01*
X15964035Y113332385D01*
X15949844Y113188300D01*
X15953400Y113152195D01*
X15953400Y112615234D01*
X15841308Y112649236D01*
X15560000Y112676943D01*
X15278691Y112649236D01*
X15008192Y112567182D01*
X14758899Y112433932D01*
X14540392Y112254607D01*
X14361068Y112036100D01*
X14227818Y111786807D01*
X14145764Y111516308D01*
X14138800Y111445600D01*
X14117709Y111428291D01*
X14091559Y111396427D01*
X12366418Y109671285D01*
X12272335Y109690000D01*
X11989665Y109690000D01*
X11712426Y109634853D01*
X11451273Y109526680D01*
X11216241Y109369637D01*
X11016363Y109169759D01*
X10859320Y108934727D01*
X10751147Y108673574D01*
X10696000Y108396335D01*
X10696000Y108113665D01*
X10714714Y108019583D01*
X8250574Y105555441D01*
X8218710Y105529291D01*
X8157590Y105454816D01*
X8114364Y105402145D01*
X8036828Y105257086D01*
X7989082Y105099688D01*
X7972960Y104936000D01*
X7977001Y104894971D01*
X7977000Y72562518D01*
X7972960Y72521500D01*
X7977000Y72480482D01*
X7989082Y72357812D01*
X8036828Y72200414D01*
X8114364Y72055355D01*
X8218709Y71928209D01*
X8250579Y71902054D01*
X8583882Y71568751D01*
X8574057Y71469000D01*
X8601764Y71187691D01*
X8683818Y70917192D01*
X8817068Y70667899D01*
X8996392Y70449392D01*
X9214899Y70270068D01*
X9464192Y70136818D01*
X9628025Y70087120D01*
X9640828Y70044914D01*
X9718364Y69899855D01*
X9822709Y69772709D01*
X9854579Y69746554D01*
X11452714Y68148417D01*
X11434000Y68054335D01*
X11434000Y67771665D01*
X11489147Y67494426D01*
X11597320Y67233273D01*
X11754363Y66998241D01*
X11954241Y66798363D01*
X12189273Y66641320D01*
X12450426Y66533147D01*
X12727665Y66478000D01*
X13010335Y66478000D01*
X13287574Y66533147D01*
X13548727Y66641320D01*
X13783759Y66798363D01*
X13905694Y66920298D01*
X14555903Y66920298D01*
X14627486Y66676329D01*
X14882996Y66555429D01*
X15157184Y66486700D01*
X15439512Y66472783D01*
X15719130Y66514213D01*
X15985292Y66609397D01*
X16110514Y66676329D01*
X16182097Y66920298D01*
X15369000Y67733395D01*
X14555903Y66920298D01*
X13905694Y66920298D01*
X13983637Y66998241D01*
X14117692Y67198869D01*
X14132329Y67171486D01*
X14376298Y67099903D01*
X15189395Y67913000D01*
X15548605Y67913000D01*
X16361702Y67099903D01*
X16605671Y67171486D01*
X16726571Y67426996D01*
X16795300Y67701184D01*
X16809217Y67983512D01*
X16767787Y68263130D01*
X16672603Y68529292D01*
X16605671Y68654514D01*
X16361702Y68726097D01*
X15548605Y67913000D01*
X15189395Y67913000D01*
X14376298Y68726097D01*
X14132329Y68654514D01*
X14118676Y68625659D01*
X13983637Y68827759D01*
X13905694Y68905702D01*
X14555903Y68905702D01*
X15369000Y68092605D01*
X16182097Y68905702D01*
X16110514Y69149671D01*
X15855004Y69270571D01*
X15580816Y69339300D01*
X15298488Y69353217D01*
X15018870Y69311787D01*
X14752708Y69216603D01*
X14627486Y69149671D01*
X14555903Y68905702D01*
X13905694Y68905702D01*
X13783759Y69027637D01*
X13548727Y69184680D01*
X13287574Y69292853D01*
X13010335Y69348000D01*
X12727665Y69348000D01*
X12633583Y69329286D01*
X11658678Y70304189D01*
X11835608Y70449392D01*
X12014932Y70667899D01*
X12148182Y70917192D01*
X12230236Y71187691D01*
X12257943Y71469000D01*
X12230236Y71750309D01*
X12148182Y72020808D01*
X12014932Y72270101D01*
X11835608Y72488608D01*
X11617101Y72667932D01*
X11489259Y72736265D01*
X11718839Y72886399D01*
X11920500Y73084105D01*
X12079715Y73317354D01*
X12190367Y73577182D01*
X12207904Y73659961D01*
X12085915Y73882000D01*
X10543000Y73882000D01*
X10543000Y73862000D01*
X10289000Y73862000D01*
X10289000Y73882000D01*
X10269000Y73882000D01*
X10269000Y74136000D01*
X10289000Y74136000D01*
X10289000Y76422000D01*
X10543000Y76422000D01*
X10543000Y74136000D01*
X12085915Y74136000D01*
X12207904Y74358039D01*
X12190367Y74440818D01*
X12079715Y74700646D01*
X11920500Y74933895D01*
X11718839Y75131601D01*
X11493441Y75279000D01*
X11718839Y75426399D01*
X11920500Y75624105D01*
X12079715Y75857354D01*
X12190367Y76117182D01*
X12207904Y76199961D01*
X12085915Y76422000D01*
X10543000Y76422000D01*
X10289000Y76422000D01*
X10269000Y76422000D01*
X10269000Y76676000D01*
X10289000Y76676000D01*
X10289000Y76696000D01*
X10543000Y76696000D01*
X10543000Y76676000D01*
X12085915Y76676000D01*
X12207904Y76898039D01*
X12190367Y76980818D01*
X12079715Y77240646D01*
X11920500Y77473895D01*
X11718839Y77671601D01*
X11489259Y77821735D01*
X11617101Y77890068D01*
X11835608Y78069392D01*
X12014932Y78287899D01*
X12148182Y78537192D01*
X12230236Y78807691D01*
X12257943Y79089000D01*
X12230236Y79370309D01*
X12148182Y79640808D01*
X12014932Y79890101D01*
X11835608Y80108608D01*
X11617101Y80287932D01*
X11489259Y80356265D01*
X11718839Y80506399D01*
X11920500Y80704105D01*
X12079715Y80937354D01*
X12190367Y81197182D01*
X12207904Y81279961D01*
X12085915Y81502000D01*
X10543000Y81502000D01*
X10543000Y81482000D01*
X10289000Y81482000D01*
X10289000Y81502000D01*
X10269000Y81502000D01*
X10269000Y81756000D01*
X10289000Y81756000D01*
X10289000Y84042000D01*
X10543000Y84042000D01*
X10543000Y81756000D01*
X12085915Y81756000D01*
X12207904Y81978039D01*
X12190367Y82060818D01*
X12079715Y82320646D01*
X11920500Y82553895D01*
X11718839Y82751601D01*
X11493441Y82899000D01*
X11718839Y83046399D01*
X11920500Y83244105D01*
X12079715Y83477354D01*
X12190367Y83737182D01*
X12207904Y83819961D01*
X12085915Y84042000D01*
X10543000Y84042000D01*
X10289000Y84042000D01*
X10269000Y84042000D01*
X10269000Y84296000D01*
X10289000Y84296000D01*
X10289000Y84316000D01*
X10543000Y84316000D01*
X10543000Y84296000D01*
X12085915Y84296000D01*
X12207904Y84518039D01*
X12190367Y84600818D01*
X12079715Y84860646D01*
X11920500Y85093895D01*
X11718839Y85291601D01*
X11489259Y85441735D01*
X11617101Y85510068D01*
X11835608Y85689392D01*
X12014932Y85907899D01*
X12148182Y86157192D01*
X12230236Y86427691D01*
X12257943Y86709000D01*
X12230236Y86990309D01*
X12148182Y87260808D01*
X12014932Y87510101D01*
X11835608Y87728608D01*
X11617101Y87907932D01*
X11367808Y88041182D01*
X11097309Y88123236D01*
X10886492Y88144000D01*
X9945508Y88144000D01*
X9734691Y88123236D01*
X9647000Y88096636D01*
X9647000Y104590133D01*
X9819165Y104762298D01*
X11317903Y104762298D01*
X11389486Y104518329D01*
X11644996Y104397429D01*
X11919184Y104328700D01*
X12201512Y104314783D01*
X12481130Y104356213D01*
X12747292Y104451397D01*
X12872514Y104518329D01*
X12944097Y104762298D01*
X12131000Y105575395D01*
X11317903Y104762298D01*
X9819165Y104762298D01*
X10697309Y105640441D01*
X10732213Y105404870D01*
X10827397Y105138708D01*
X10894329Y105013486D01*
X11138298Y104941903D01*
X11951395Y105755000D01*
X12310605Y105755000D01*
X13123702Y104941903D01*
X13367671Y105013486D01*
X13488571Y105268996D01*
X13557300Y105543184D01*
X13571217Y105825512D01*
X13529787Y106105130D01*
X13434603Y106371292D01*
X13367671Y106496514D01*
X13123702Y106568097D01*
X12310605Y105755000D01*
X11951395Y105755000D01*
X11937253Y105769142D01*
X12116858Y105948747D01*
X12131000Y105934605D01*
X12944097Y106747702D01*
X12872514Y106991671D01*
X12843659Y107005324D01*
X13045759Y107140363D01*
X13245637Y107340241D01*
X13402680Y107575273D01*
X13510853Y107836426D01*
X13566000Y108113665D01*
X13566000Y108396335D01*
X13547285Y108490418D01*
X14509682Y109452814D01*
X14540393Y109415392D01*
X14758900Y109236068D01*
X15008193Y109102818D01*
X15278692Y109020764D01*
X15560000Y108993057D01*
X15841309Y109020764D01*
X15853235Y109024382D01*
X13926008Y107097154D01*
X13897962Y107074137D01*
X13806113Y106962219D01*
X13737863Y106834532D01*
X13708795Y106738707D01*
X13695835Y106695985D01*
X13681644Y106551900D01*
X13685200Y106515795D01*
X13685201Y83780615D01*
X13681644Y83744500D01*
X13695835Y83600415D01*
X13733166Y83477354D01*
X13737864Y83461867D01*
X13806114Y83334180D01*
X13897963Y83222262D01*
X13926008Y83199246D01*
X15990446Y81134807D01*
X16013462Y81106762D01*
X16125380Y81014913D01*
X16253067Y80946663D01*
X16377806Y80908824D01*
X16391615Y80904635D01*
X16396298Y80904174D01*
X16437068Y80827899D01*
X16616392Y80609392D01*
X16834899Y80430068D01*
X16967858Y80359000D01*
X16834899Y80287932D01*
X16616392Y80108608D01*
X16437068Y79890101D01*
X16303818Y79640808D01*
X16221764Y79370309D01*
X16194057Y79089000D01*
X16221764Y78807691D01*
X16303818Y78537192D01*
X16437068Y78287899D01*
X16616392Y78069392D01*
X16834899Y77890068D01*
X16967858Y77819000D01*
X16834899Y77747932D01*
X16616392Y77568608D01*
X16437068Y77350101D01*
X16303818Y77100808D01*
X16221764Y76830309D01*
X16194057Y76549000D01*
X16221764Y76267691D01*
X16303818Y75997192D01*
X16437068Y75747899D01*
X16616392Y75529392D01*
X16834899Y75350068D01*
X16967858Y75279000D01*
X16834899Y75207932D01*
X16616392Y75028608D01*
X16437068Y74810101D01*
X16303818Y74560808D01*
X16221764Y74290309D01*
X16194057Y74009000D01*
X16221764Y73727691D01*
X16303818Y73457192D01*
X16437068Y73207899D01*
X16616392Y72989392D01*
X16729482Y72896581D01*
X16711518Y72894812D01*
X16591820Y72858502D01*
X16481506Y72799537D01*
X16384815Y72720185D01*
X16305463Y72623494D01*
X16246498Y72513180D01*
X16210188Y72393482D01*
X16197928Y72269000D01*
X16197928Y70669000D01*
X16210188Y70544518D01*
X16246498Y70424820D01*
X16305463Y70314506D01*
X16384815Y70217815D01*
X16481506Y70138463D01*
X16591820Y70079498D01*
X16711518Y70043188D01*
X16836000Y70030928D01*
X19210301Y70030928D01*
X19210301Y56539948D01*
X18295808Y55625454D01*
X18267762Y55602437D01*
X18213748Y55536621D01*
X18156100Y55583932D01*
X17906807Y55717182D01*
X17636308Y55799236D01*
X17355000Y55826943D01*
X17073691Y55799236D01*
X16803192Y55717182D01*
X16553899Y55583932D01*
X16335392Y55404607D01*
X16156068Y55186100D01*
X16085000Y55053142D01*
X16013932Y55186101D01*
X15834607Y55404608D01*
X15616100Y55583932D01*
X15366807Y55717182D01*
X15096308Y55799236D01*
X14815000Y55826943D01*
X14533691Y55799236D01*
X14263192Y55717182D01*
X14013899Y55583932D01*
X13795392Y55404607D01*
X13616068Y55186100D01*
X13545000Y55053142D01*
X13473932Y55186101D01*
X13294607Y55404608D01*
X13076100Y55583932D01*
X12826807Y55717182D01*
X12556308Y55799236D01*
X12275000Y55826943D01*
X11993691Y55799236D01*
X11723192Y55717182D01*
X11473899Y55583932D01*
X11255392Y55404607D01*
X11076068Y55186100D01*
X10942818Y54936807D01*
X10860764Y54666308D01*
X10840000Y54455491D01*
X10840000Y53514508D01*
X10860764Y53303691D01*
X10942818Y53033192D01*
X11076068Y52783899D01*
X11255393Y52565392D01*
X11473900Y52386068D01*
X11723193Y52252818D01*
X11993692Y52170764D01*
X12275000Y52143057D01*
X12556309Y52170764D01*
X12826808Y52252818D01*
X13076101Y52386068D01*
X13294608Y52565392D01*
X13473932Y52783899D01*
X13545000Y52916858D01*
X13616068Y52783899D01*
X13795393Y52565392D01*
X14013900Y52386068D01*
X14263193Y52252818D01*
X14533692Y52170764D01*
X14815000Y52143057D01*
X15096309Y52170764D01*
X15366808Y52252818D01*
X15616101Y52386068D01*
X15834608Y52565392D01*
X16013932Y52783899D01*
X16085000Y52916858D01*
X16156068Y52783899D01*
X16335393Y52565392D01*
X16553900Y52386068D01*
X16803193Y52252818D01*
X17073692Y52170764D01*
X17355000Y52143057D01*
X17636309Y52170764D01*
X17906808Y52252818D01*
X18055000Y52332029D01*
X18055001Y46990915D01*
X18051444Y46954800D01*
X18065635Y46810715D01*
X18107664Y46672167D01*
X18175914Y46544480D01*
X18267763Y46432562D01*
X18295808Y46409546D01*
X24296102Y40409251D01*
X24173899Y40343932D01*
X23955392Y40164607D01*
X23776068Y39946100D01*
X23705000Y39813142D01*
X23633932Y39946101D01*
X23454607Y40164608D01*
X23236100Y40343932D01*
X22986807Y40477182D01*
X22716308Y40559236D01*
X22435000Y40586943D01*
X22153691Y40559236D01*
X21883192Y40477182D01*
X21633899Y40343932D01*
X21415392Y40164607D01*
X21236068Y39946100D01*
X21165000Y39813142D01*
X21093932Y39946101D01*
X20914607Y40164608D01*
X20696100Y40343932D01*
X20446807Y40477182D01*
X20176308Y40559236D01*
X19895000Y40586943D01*
X19613691Y40559236D01*
X19343192Y40477182D01*
X19093899Y40343932D01*
X18875392Y40164607D01*
X18696068Y39946100D01*
X18625000Y39813142D01*
X18553932Y39946101D01*
X18374607Y40164608D01*
X18156100Y40343932D01*
X17906807Y40477182D01*
X17636308Y40559236D01*
X17355000Y40586943D01*
X17073691Y40559236D01*
X16803192Y40477182D01*
X16553899Y40343932D01*
X16335392Y40164607D01*
X16156068Y39946100D01*
X16085000Y39813142D01*
X16013932Y39946101D01*
X15834607Y40164608D01*
X15616100Y40343932D01*
X15366807Y40477182D01*
X15096308Y40559236D01*
X14815000Y40586943D01*
X14533691Y40559236D01*
X14263192Y40477182D01*
X14013899Y40343932D01*
X13795392Y40164607D01*
X13702581Y40051517D01*
X13700812Y40069482D01*
X13664502Y40189180D01*
X13605537Y40299494D01*
X13526185Y40396185D01*
X13429494Y40475537D01*
X13319180Y40534502D01*
X13199482Y40570812D01*
X13075000Y40583072D01*
X11475000Y40583072D01*
X11350518Y40570812D01*
X11230820Y40534502D01*
X11120506Y40475537D01*
X11023815Y40396185D01*
X10944463Y40299494D01*
X10885498Y40189180D01*
X10849188Y40069482D01*
X10836928Y39945000D01*
X10836928Y37545000D01*
X10849188Y37420518D01*
X10885498Y37300820D01*
X10944463Y37190506D01*
X11023815Y37093815D01*
X11120506Y37014463D01*
X11230820Y36955498D01*
X11350518Y36919188D01*
X11475000Y36906928D01*
X13075000Y36906928D01*
X13199482Y36919188D01*
X13319180Y36955498D01*
X13429494Y37014463D01*
X13526185Y37093815D01*
X13605537Y37190506D01*
X13664502Y37300820D01*
X13700812Y37420518D01*
X13702581Y37438483D01*
X13795393Y37325392D01*
X14013900Y37146068D01*
X14263193Y37012818D01*
X14533692Y36930764D01*
X14815000Y36903057D01*
X15096309Y36930764D01*
X15366808Y37012818D01*
X15616101Y37146068D01*
X15834608Y37325392D01*
X16013932Y37543899D01*
X16085000Y37676858D01*
X16156068Y37543899D01*
X16335393Y37325392D01*
X16553900Y37146068D01*
X16803193Y37012818D01*
X17073692Y36930764D01*
X17355000Y36903057D01*
X17636309Y36930764D01*
X17906808Y37012818D01*
X18156101Y37146068D01*
X18374608Y37325392D01*
X18553932Y37543899D01*
X18625000Y37676858D01*
X18696068Y37543899D01*
X18875393Y37325392D01*
X19093900Y37146068D01*
X19343193Y37012818D01*
X19613692Y36930764D01*
X19895000Y36903057D01*
X20176309Y36930764D01*
X20446808Y37012818D01*
X20696101Y37146068D01*
X20914608Y37325392D01*
X21093932Y37543899D01*
X21165000Y37676858D01*
X21236068Y37543899D01*
X21415393Y37325392D01*
X21633900Y37146068D01*
X21883193Y37012818D01*
X22153692Y36930764D01*
X22435000Y36903057D01*
X22716309Y36930764D01*
X22986808Y37012818D01*
X23236101Y37146068D01*
X23454608Y37325392D01*
X23633932Y37543899D01*
X23705000Y37676858D01*
X23776068Y37543899D01*
X23955393Y37325392D01*
X24173900Y37146068D01*
X24423193Y37012818D01*
X24693692Y36930764D01*
X24975000Y36903057D01*
X25256309Y36930764D01*
X25526808Y37012818D01*
X25549000Y37024680D01*
X25549001Y31282605D01*
X25499823Y31209005D01*
X25433110Y31047945D01*
X25399100Y30876965D01*
X25399100Y30702635D01*
X25433110Y30531655D01*
X25499823Y30370595D01*
X25596676Y30225645D01*
X25719945Y30102376D01*
X25864895Y30005523D01*
X26025955Y29938810D01*
X26196935Y29904800D01*
X26371265Y29904800D01*
X26542245Y29938810D01*
X26703305Y30005523D01*
X26848255Y30102376D01*
X26971524Y30225645D01*
X27068377Y30370595D01*
X27135090Y30531655D01*
X27169100Y30702635D01*
X27169100Y30876965D01*
X27135090Y31047945D01*
X27068377Y31209005D01*
X27019000Y31282903D01*
X27019000Y36997966D01*
X27083182Y36970633D01*
X27165961Y36953096D01*
X27388000Y37075085D01*
X27388000Y38618000D01*
X27368000Y38618000D01*
X27368000Y38872000D01*
X27388000Y38872000D01*
X27388000Y40414915D01*
X27165961Y40536904D01*
X27083182Y40519367D01*
X26823354Y40408715D01*
X26590105Y40249500D01*
X26562700Y40221547D01*
X19525000Y47259246D01*
X19525000Y52197668D01*
X19613692Y52170764D01*
X19895000Y52143057D01*
X20176309Y52170764D01*
X20446808Y52252818D01*
X20696101Y52386068D01*
X20879980Y52536974D01*
X21426446Y51990507D01*
X21449462Y51962462D01*
X21561380Y51870613D01*
X21689067Y51802363D01*
X21785586Y51773084D01*
X21827614Y51760335D01*
X21841832Y51758935D01*
X21935595Y51749700D01*
X21935602Y51749700D01*
X21971699Y51746145D01*
X22007796Y51749700D01*
X24938895Y51749700D01*
X24975000Y51746144D01*
X25011105Y51749700D01*
X25119085Y51760335D01*
X25257633Y51802363D01*
X25385320Y51870613D01*
X25497238Y51962462D01*
X25589087Y52074380D01*
X25657337Y52202067D01*
X25699365Y52340615D01*
X25699826Y52345298D01*
X25776101Y52386068D01*
X25994608Y52565392D01*
X26173932Y52783899D01*
X26245000Y52916858D01*
X26316068Y52783899D01*
X26495393Y52565392D01*
X26713900Y52386068D01*
X26963193Y52252818D01*
X27233692Y52170764D01*
X27515000Y52143057D01*
X27796309Y52170764D01*
X28066808Y52252818D01*
X28316101Y52386068D01*
X28534608Y52565392D01*
X28713932Y52783899D01*
X28785000Y52916858D01*
X28856068Y52783899D01*
X29035393Y52565392D01*
X29253900Y52386068D01*
X29503193Y52252818D01*
X29773692Y52170764D01*
X30055000Y52143057D01*
X30336309Y52170764D01*
X30606808Y52252818D01*
X30856101Y52386068D01*
X31074608Y52565392D01*
X31253932Y52783899D01*
X31325000Y52916858D01*
X31396068Y52783899D01*
X31575393Y52565392D01*
X31793900Y52386068D01*
X32043193Y52252818D01*
X32313692Y52170764D01*
X32595000Y52143057D01*
X32876309Y52170764D01*
X33130000Y52247719D01*
X33130001Y41819748D01*
X32100808Y40790554D01*
X32072763Y40767538D01*
X31980914Y40655620D01*
X31935583Y40570812D01*
X31912664Y40527933D01*
X31870635Y40389385D01*
X31870174Y40384702D01*
X31793899Y40343932D01*
X31575392Y40164607D01*
X31396068Y39946100D01*
X31325000Y39813142D01*
X31253932Y39946101D01*
X31074607Y40164608D01*
X30856100Y40343932D01*
X30606807Y40477182D01*
X30336308Y40559236D01*
X30055000Y40586943D01*
X29773691Y40559236D01*
X29503192Y40477182D01*
X29253899Y40343932D01*
X29035392Y40164607D01*
X28856068Y39946100D01*
X28787735Y39818258D01*
X28637601Y40047839D01*
X28439895Y40249500D01*
X28206646Y40408715D01*
X27946818Y40519367D01*
X27864039Y40536904D01*
X27642000Y40414915D01*
X27642000Y38872000D01*
X27662000Y38872000D01*
X27662000Y38618000D01*
X27642000Y38618000D01*
X27642000Y37075085D01*
X27864039Y36953096D01*
X27946818Y36970633D01*
X28206646Y37081285D01*
X28439895Y37240500D01*
X28637601Y37442161D01*
X28787735Y37671741D01*
X28856068Y37543899D01*
X29035393Y37325392D01*
X29253900Y37146068D01*
X29503193Y37012818D01*
X29773692Y36930764D01*
X30055000Y36903057D01*
X30336309Y36930764D01*
X30606808Y37012818D01*
X30856101Y37146068D01*
X31074608Y37325392D01*
X31253932Y37543899D01*
X31325000Y37676858D01*
X31396068Y37543899D01*
X31575393Y37325392D01*
X31793900Y37146068D01*
X32043193Y37012818D01*
X32313692Y36930764D01*
X32595000Y36903057D01*
X32876309Y36930764D01*
X33146808Y37012818D01*
X33396101Y37146068D01*
X33614608Y37325392D01*
X33793932Y37543899D01*
X33865000Y37676858D01*
X33936068Y37543899D01*
X34115393Y37325392D01*
X34333900Y37146068D01*
X34583193Y37012818D01*
X34853692Y36930764D01*
X35135000Y36903057D01*
X35416309Y36930764D01*
X35686808Y37012818D01*
X35936101Y37146068D01*
X36154608Y37325392D01*
X36333932Y37543899D01*
X36405000Y37676858D01*
X36476068Y37543899D01*
X36655393Y37325392D01*
X36873900Y37146068D01*
X37123193Y37012818D01*
X37393692Y36930764D01*
X37675000Y36903057D01*
X37956309Y36930764D01*
X38226808Y37012818D01*
X38476101Y37146068D01*
X38694608Y37325392D01*
X38873932Y37543899D01*
X38945000Y37676858D01*
X39016068Y37543899D01*
X39195393Y37325392D01*
X39413900Y37146068D01*
X39663193Y37012818D01*
X39933692Y36930764D01*
X40215000Y36903057D01*
X40496309Y36930764D01*
X40766808Y37012818D01*
X41016101Y37146068D01*
X41234608Y37325392D01*
X41413932Y37543899D01*
X41485000Y37676858D01*
X41556068Y37543899D01*
X41735393Y37325392D01*
X41953900Y37146068D01*
X42203193Y37012818D01*
X42473692Y36930764D01*
X42755000Y36903057D01*
X43036309Y36930764D01*
X43306808Y37012818D01*
X43556101Y37146068D01*
X43774608Y37325392D01*
X43953932Y37543899D01*
X44025000Y37676858D01*
X44096068Y37543899D01*
X44275393Y37325392D01*
X44493900Y37146068D01*
X44743193Y37012818D01*
X45013692Y36930764D01*
X45295000Y36903057D01*
X45576309Y36930764D01*
X45846808Y37012818D01*
X46096101Y37146068D01*
X46314608Y37325392D01*
X46493932Y37543899D01*
X46565000Y37676858D01*
X46636068Y37543899D01*
X46815393Y37325392D01*
X47033900Y37146068D01*
X47283193Y37012818D01*
X47553692Y36930764D01*
X47835000Y36903057D01*
X48116309Y36930764D01*
X48386808Y37012818D01*
X48636101Y37146068D01*
X48854608Y37325392D01*
X49033932Y37543899D01*
X49105000Y37676858D01*
X49176068Y37543899D01*
X49355393Y37325392D01*
X49573900Y37146068D01*
X49823193Y37012818D01*
X50093692Y36930764D01*
X50375000Y36903057D01*
X50656309Y36930764D01*
X50926808Y37012818D01*
X51176101Y37146068D01*
X51394608Y37325392D01*
X51573932Y37543899D01*
X51645000Y37676858D01*
X51716068Y37543899D01*
X51895393Y37325392D01*
X52113900Y37146068D01*
X52363193Y37012818D01*
X52633692Y36930764D01*
X52915000Y36903057D01*
X53196309Y36930764D01*
X53466808Y37012818D01*
X53716101Y37146068D01*
X53934608Y37325392D01*
X54113932Y37543899D01*
X54185000Y37676858D01*
X54256068Y37543899D01*
X54435393Y37325392D01*
X54653900Y37146068D01*
X54903193Y37012818D01*
X55173692Y36930764D01*
X55455000Y36903057D01*
X55736309Y36930764D01*
X56006808Y37012818D01*
X56033097Y37026870D01*
X56131710Y36906709D01*
X56163574Y36880559D01*
X56260900Y36783233D01*
X56260900Y33772347D01*
X56021335Y33820000D01*
X55738665Y33820000D01*
X55461426Y33764853D01*
X55200273Y33656680D01*
X54965241Y33499637D01*
X54765363Y33299759D01*
X54645252Y33120000D01*
X51996394Y33120000D01*
X51960299Y33123555D01*
X51924204Y33120000D01*
X51924195Y33120000D01*
X51816215Y33109365D01*
X51677667Y33067337D01*
X51549980Y32999087D01*
X51438062Y32907238D01*
X51415046Y32879193D01*
X39205480Y20669627D01*
X39046632Y20828475D01*
X38803411Y20990990D01*
X38533158Y21102932D01*
X38246260Y21160000D01*
X37953740Y21160000D01*
X37666842Y21102932D01*
X37396589Y20990990D01*
X37153368Y20828475D01*
X36946525Y20621632D01*
X36784010Y20378411D01*
X36672068Y20108158D01*
X36615000Y19821260D01*
X36615000Y19528740D01*
X36672068Y19241842D01*
X36784010Y18971589D01*
X36946525Y18728368D01*
X37153368Y18521525D01*
X37327760Y18405000D01*
X37153368Y18288475D01*
X36946525Y18081632D01*
X36784010Y17838411D01*
X36672068Y17568158D01*
X36615000Y17281260D01*
X36615000Y16988740D01*
X36672068Y16701842D01*
X36784010Y16431589D01*
X36946525Y16188368D01*
X37153368Y15981525D01*
X37327760Y15865000D01*
X37153368Y15748475D01*
X36994520Y15589627D01*
X33684959Y18899187D01*
X33661938Y18927238D01*
X33550020Y19019087D01*
X33422333Y19087337D01*
X33283785Y19129365D01*
X33175805Y19140000D01*
X33139700Y19143556D01*
X33103595Y19140000D01*
X31774883Y19140000D01*
X31633475Y19351632D01*
X31426632Y19558475D01*
X31252240Y19675000D01*
X31426632Y19791525D01*
X31633475Y19998368D01*
X31795990Y20241589D01*
X31907932Y20511842D01*
X31965000Y20798740D01*
X31965000Y21091260D01*
X31907932Y21378158D01*
X31795990Y21648411D01*
X31633475Y21891632D01*
X31426632Y22098475D01*
X31252240Y22215000D01*
X31426632Y22331525D01*
X31633475Y22538368D01*
X31795990Y22781589D01*
X31907932Y23051842D01*
X31965000Y23338740D01*
X31965000Y23631260D01*
X31907932Y23918158D01*
X31795990Y24188411D01*
X31633475Y24431632D01*
X31426632Y24638475D01*
X31183411Y24800990D01*
X30913158Y24912932D01*
X30626260Y24970000D01*
X30333740Y24970000D01*
X30046842Y24912932D01*
X29776589Y24800990D01*
X29533368Y24638475D01*
X29326525Y24431632D01*
X29164010Y24188411D01*
X29052068Y23918158D01*
X28995000Y23631260D01*
X28995000Y23338740D01*
X29052068Y23051842D01*
X29164010Y22781589D01*
X29326525Y22538368D01*
X29533368Y22331525D01*
X29707760Y22215000D01*
X29533368Y22098475D01*
X29326525Y21891632D01*
X29164010Y21648411D01*
X29052068Y21378158D01*
X28995000Y21091260D01*
X28995000Y20798740D01*
X29052068Y20511842D01*
X29164010Y20241589D01*
X29326525Y19998368D01*
X29533368Y19791525D01*
X29707760Y19675000D01*
X29533368Y19558475D01*
X29326525Y19351632D01*
X29164010Y19108411D01*
X29052068Y18838158D01*
X28995000Y18551260D01*
X28995000Y18258740D01*
X29052068Y17971842D01*
X29164010Y17701589D01*
X29326525Y17458368D01*
X29533368Y17251525D01*
X29707760Y17135000D01*
X29533368Y17018475D01*
X29326525Y16811632D01*
X29164010Y16568411D01*
X29052068Y16298158D01*
X28995000Y16011260D01*
X28995000Y15718740D01*
X29052068Y15431842D01*
X29164010Y15161589D01*
X29326525Y14918368D01*
X29533368Y14711525D01*
X29707760Y14595000D01*
X29533368Y14478475D01*
X29326525Y14271632D01*
X29164010Y14028411D01*
X29052068Y13758158D01*
X28995000Y13471260D01*
X28995000Y13178740D01*
X29052068Y12891842D01*
X29164010Y12621589D01*
X29326525Y12378368D01*
X29533368Y12171525D01*
X29715534Y12049805D01*
X29598645Y11980178D01*
X29382412Y11785269D01*
X29208359Y11551920D01*
X29083175Y11289099D01*
X29038524Y11141890D01*
X29159845Y10912000D01*
X30353000Y10912000D01*
X30353000Y10932000D01*
X30607000Y10932000D01*
X30607000Y10912000D01*
X31800155Y10912000D01*
X31921476Y11141890D01*
X31876825Y11289099D01*
X31751641Y11551920D01*
X31577588Y11785269D01*
X31361355Y11980178D01*
X31244466Y12049805D01*
X31426632Y12171525D01*
X31585480Y12330373D01*
X33545646Y10370207D01*
X33568662Y10342162D01*
X33680580Y10250313D01*
X33808267Y10182063D01*
X33946815Y10140035D01*
X34090900Y10125844D01*
X34127005Y10129400D01*
X36747141Y10129400D01*
X36672068Y9948158D01*
X36615000Y9661260D01*
X36615000Y9368740D01*
X36672068Y9081842D01*
X36784010Y8811589D01*
X36946525Y8568368D01*
X37078380Y8436513D01*
X37005820Y8414502D01*
X36895506Y8355537D01*
X36798815Y8276185D01*
X36719463Y8179494D01*
X36660498Y8069180D01*
X36624188Y7949482D01*
X36611928Y7825000D01*
X36615000Y7260750D01*
X36773750Y7102000D01*
X37973000Y7102000D01*
X37973000Y7122000D01*
X38227000Y7122000D01*
X38227000Y7102000D01*
X39426250Y7102000D01*
X39585000Y7260750D01*
X39588072Y7825000D01*
X39575812Y7949482D01*
X39539502Y8069180D01*
X39480537Y8179494D01*
X39401185Y8276185D01*
X39304494Y8355537D01*
X39194180Y8414502D01*
X39121620Y8436513D01*
X39253475Y8568368D01*
X39415990Y8811589D01*
X39527932Y9081842D01*
X39585000Y9368740D01*
X39585000Y9661260D01*
X39527932Y9948158D01*
X39452859Y10129400D01*
X40842995Y10129400D01*
X40879100Y10125844D01*
X40915205Y10129400D01*
X41023185Y10140035D01*
X41161733Y10182063D01*
X41289420Y10250313D01*
X41401338Y10342162D01*
X41424359Y10370213D01*
X54834875Y23780729D01*
X54965241Y23650363D01*
X55197759Y23495000D01*
X54965241Y23339637D01*
X54765363Y23139759D01*
X54608320Y22904727D01*
X54500147Y22643574D01*
X54445000Y22366335D01*
X54445000Y22083665D01*
X54500147Y21806426D01*
X54608320Y21545273D01*
X54765363Y21310241D01*
X54965241Y21110363D01*
X55197759Y20955000D01*
X54965241Y20799637D01*
X54765363Y20599759D01*
X54608320Y20364727D01*
X54500147Y20103574D01*
X54445000Y19826335D01*
X54445000Y19543665D01*
X54500147Y19266426D01*
X54608320Y19005273D01*
X54765363Y18770241D01*
X54965241Y18570363D01*
X55197759Y18415000D01*
X54965241Y18259637D01*
X54765363Y18059759D01*
X54608320Y17824727D01*
X54500147Y17563574D01*
X54445000Y17286335D01*
X54445000Y17003665D01*
X54500147Y16726426D01*
X54608320Y16465273D01*
X54765363Y16230241D01*
X54965241Y16030363D01*
X55197759Y15875000D01*
X54965241Y15719637D01*
X54765363Y15519759D01*
X54608320Y15284727D01*
X54500147Y15023574D01*
X54445000Y14746335D01*
X54445000Y14463665D01*
X54500147Y14186426D01*
X54608320Y13925273D01*
X54765363Y13690241D01*
X54965241Y13490363D01*
X55057084Y13428996D01*
X55057082Y13428989D01*
X55040960Y13265300D01*
X55044201Y13232396D01*
X54965241Y13179637D01*
X54765363Y12979759D01*
X54712603Y12900798D01*
X54679699Y12904039D01*
X54638691Y12900000D01*
X54638681Y12900000D01*
X54516011Y12887918D01*
X54358613Y12840172D01*
X54213554Y12762636D01*
X54086409Y12658291D01*
X54060259Y12626427D01*
X45138874Y3705041D01*
X45107010Y3678891D01*
X45040754Y3598158D01*
X45002664Y3551745D01*
X44925128Y3406686D01*
X44900568Y3325721D01*
X44883158Y3332932D01*
X44596260Y3390000D01*
X44303740Y3390000D01*
X44016842Y3332932D01*
X43746589Y3220990D01*
X43503368Y3058475D01*
X43296525Y2851632D01*
X43134010Y2608411D01*
X43022068Y2338158D01*
X42965000Y2051260D01*
X42965000Y1758740D01*
X43022068Y1471842D01*
X43134010Y1201589D01*
X43296525Y958368D01*
X43503368Y751525D01*
X43640345Y660000D01*
X660000Y660000D01*
X660000Y3311260D01*
X1055000Y3311260D01*
X1055000Y3018740D01*
X1112068Y2731842D01*
X1224010Y2461589D01*
X1386525Y2218368D01*
X1593368Y2011525D01*
X1836589Y1849010D01*
X2106842Y1737068D01*
X2393740Y1680000D01*
X2686260Y1680000D01*
X2973158Y1737068D01*
X3243411Y1849010D01*
X3486632Y2011525D01*
X3693475Y2218368D01*
X3810000Y2392760D01*
X3926525Y2218368D01*
X4133368Y2011525D01*
X4376589Y1849010D01*
X4646842Y1737068D01*
X4933740Y1680000D01*
X5226260Y1680000D01*
X5513158Y1737068D01*
X5783411Y1849010D01*
X6026632Y2011525D01*
X6233475Y2218368D01*
X6395990Y2461589D01*
X6507932Y2731842D01*
X6565000Y3018740D01*
X6565000Y3311260D01*
X6507932Y3598158D01*
X6395990Y3868411D01*
X6298043Y4015000D01*
X28991928Y4015000D01*
X28991928Y2315000D01*
X29004188Y2190518D01*
X29040498Y2070820D01*
X29099463Y1960506D01*
X29178815Y1863815D01*
X29275506Y1784463D01*
X29385820Y1725498D01*
X29505518Y1689188D01*
X29630000Y1676928D01*
X31330000Y1676928D01*
X31454482Y1689188D01*
X31574180Y1725498D01*
X31684494Y1784463D01*
X31781185Y1863815D01*
X31860537Y1960506D01*
X31919502Y2070820D01*
X31955812Y2190518D01*
X31968072Y2315000D01*
X31968072Y4015000D01*
X31955812Y4139482D01*
X31919502Y4259180D01*
X31860537Y4369494D01*
X31781185Y4466185D01*
X31684494Y4545537D01*
X31574180Y4604502D01*
X31501620Y4626513D01*
X31633475Y4758368D01*
X31795990Y5001589D01*
X31907932Y5271842D01*
X31965000Y5558740D01*
X31965000Y5851260D01*
X31910550Y6125000D01*
X36611928Y6125000D01*
X36624188Y6000518D01*
X36660498Y5880820D01*
X36719463Y5770506D01*
X36798815Y5673815D01*
X36895506Y5594463D01*
X37005820Y5535498D01*
X37125518Y5499188D01*
X37250000Y5486928D01*
X37814250Y5490000D01*
X37973000Y5648750D01*
X37973000Y6848000D01*
X38227000Y6848000D01*
X38227000Y5648750D01*
X38385750Y5490000D01*
X38950000Y5486928D01*
X39074482Y5499188D01*
X39194180Y5535498D01*
X39304494Y5594463D01*
X39401185Y5673815D01*
X39480537Y5770506D01*
X39539502Y5880820D01*
X39575812Y6000518D01*
X39588072Y6125000D01*
X39585000Y6689250D01*
X39426250Y6848000D01*
X38227000Y6848000D01*
X37973000Y6848000D01*
X36773750Y6848000D01*
X36615000Y6689250D01*
X36611928Y6125000D01*
X31910550Y6125000D01*
X31907932Y6138158D01*
X31795990Y6408411D01*
X31633475Y6651632D01*
X31426632Y6858475D01*
X31252240Y6975000D01*
X31426632Y7091525D01*
X31633475Y7298368D01*
X31795990Y7541589D01*
X31907932Y7811842D01*
X31965000Y8098740D01*
X31965000Y8391260D01*
X31907932Y8678158D01*
X31795990Y8948411D01*
X31633475Y9191632D01*
X31426632Y9398475D01*
X31244466Y9520195D01*
X31361355Y9589822D01*
X31577588Y9784731D01*
X31751641Y10018080D01*
X31876825Y10280901D01*
X31921476Y10428110D01*
X31800155Y10658000D01*
X30607000Y10658000D01*
X30607000Y10638000D01*
X30353000Y10638000D01*
X30353000Y10658000D01*
X29159845Y10658000D01*
X29038524Y10428110D01*
X29083175Y10280901D01*
X29208359Y10018080D01*
X29382412Y9784731D01*
X29598645Y9589822D01*
X29715534Y9520195D01*
X29533368Y9398475D01*
X29326525Y9191632D01*
X29164010Y8948411D01*
X29052068Y8678158D01*
X28995000Y8391260D01*
X28995000Y8098740D01*
X29052068Y7811842D01*
X29164010Y7541589D01*
X29326525Y7298368D01*
X29533368Y7091525D01*
X29707760Y6975000D01*
X29533368Y6858475D01*
X29326525Y6651632D01*
X29164010Y6408411D01*
X29052068Y6138158D01*
X28995000Y5851260D01*
X28995000Y5558740D01*
X29052068Y5271842D01*
X29164010Y5001589D01*
X29326525Y4758368D01*
X29458380Y4626513D01*
X29385820Y4604502D01*
X29275506Y4545537D01*
X29178815Y4466185D01*
X29099463Y4369494D01*
X29040498Y4259180D01*
X29004188Y4139482D01*
X28991928Y4015000D01*
X6298043Y4015000D01*
X6233475Y4111632D01*
X6026632Y4318475D01*
X5783411Y4480990D01*
X5513158Y4592932D01*
X5226260Y4650000D01*
X4933740Y4650000D01*
X4646842Y4592932D01*
X4376589Y4480990D01*
X4133368Y4318475D01*
X3926525Y4111632D01*
X3810000Y3937240D01*
X3693475Y4111632D01*
X3486632Y4318475D01*
X3243411Y4480990D01*
X2973158Y4592932D01*
X2686260Y4650000D01*
X2393740Y4650000D01*
X2106842Y4592932D01*
X1836589Y4480990D01*
X1593368Y4318475D01*
X1386525Y4111632D01*
X1224010Y3868411D01*
X1112068Y3598158D01*
X1055000Y3311260D01*
X660000Y3311260D01*
X660000Y23631260D01*
X1055000Y23631260D01*
X1055000Y23338740D01*
X1112068Y23051842D01*
X1224010Y22781589D01*
X1386525Y22538368D01*
X1593368Y22331525D01*
X1836589Y22169010D01*
X2106842Y22057068D01*
X2393740Y22000000D01*
X2686260Y22000000D01*
X2973158Y22057068D01*
X3243411Y22169010D01*
X3486632Y22331525D01*
X3693475Y22538368D01*
X3810000Y22712760D01*
X3926525Y22538368D01*
X4133368Y22331525D01*
X4376589Y22169010D01*
X4646842Y22057068D01*
X4933740Y22000000D01*
X5226260Y22000000D01*
X5513158Y22057068D01*
X5783411Y22169010D01*
X6026632Y22331525D01*
X6233475Y22538368D01*
X6395990Y22781589D01*
X6507932Y23051842D01*
X6565000Y23338740D01*
X6565000Y23631260D01*
X6507932Y23918158D01*
X6395990Y24188411D01*
X6233475Y24431632D01*
X6026632Y24638475D01*
X5783411Y24800990D01*
X5513158Y24912932D01*
X5226260Y24970000D01*
X4933740Y24970000D01*
X4646842Y24912932D01*
X4376589Y24800990D01*
X4133368Y24638475D01*
X3926525Y24431632D01*
X3810000Y24257240D01*
X3693475Y24431632D01*
X3486632Y24638475D01*
X3243411Y24800990D01*
X2973158Y24912932D01*
X2686260Y24970000D01*
X2393740Y24970000D01*
X2106842Y24912932D01*
X1836589Y24800990D01*
X1593368Y24638475D01*
X1386525Y24431632D01*
X1224010Y24188411D01*
X1112068Y23918158D01*
X1055000Y23631260D01*
X660000Y23631260D01*
X660000Y41220128D01*
X2765000Y41220128D01*
X2765000Y40779872D01*
X2850890Y40348075D01*
X3019369Y39941331D01*
X3263962Y39575271D01*
X3575271Y39263962D01*
X3941331Y39019369D01*
X4348075Y38850890D01*
X4779872Y38765000D01*
X5220128Y38765000D01*
X5651925Y38850890D01*
X6058669Y39019369D01*
X6424729Y39263962D01*
X6736038Y39575271D01*
X6980631Y39941331D01*
X7149110Y40348075D01*
X7235000Y40779872D01*
X7235000Y41220128D01*
X7149110Y41651925D01*
X6980631Y42058669D01*
X6736038Y42424729D01*
X6424729Y42736038D01*
X6058669Y42980631D01*
X5651925Y43149110D01*
X5220128Y43235000D01*
X4779872Y43235000D01*
X4348075Y43149110D01*
X3941331Y42980631D01*
X3575271Y42736038D01*
X3263962Y42424729D01*
X3019369Y42058669D01*
X2850890Y41651925D01*
X2765000Y41220128D01*
X660000Y41220128D01*
X660000Y110220128D01*
X2765000Y110220128D01*
X2765000Y109779872D01*
X2850890Y109348075D01*
X3019369Y108941331D01*
X3263962Y108575271D01*
X3575271Y108263962D01*
X3941331Y108019369D01*
X4348075Y107850890D01*
X4779872Y107765000D01*
X5220128Y107765000D01*
X5651925Y107850890D01*
X6058669Y108019369D01*
X6424729Y108263962D01*
X6736038Y108575271D01*
X6980631Y108941331D01*
X7149110Y109348075D01*
X7235000Y109779872D01*
X7235000Y110220128D01*
X7149110Y110651925D01*
X6980631Y111058669D01*
X6736038Y111424729D01*
X6424729Y111736038D01*
X6058669Y111980631D01*
X5651925Y112149110D01*
X5220128Y112235000D01*
X4779872Y112235000D01*
X4348075Y112149110D01*
X3941331Y111980631D01*
X3575271Y111736038D01*
X3263962Y111424729D01*
X3019369Y111058669D01*
X2850890Y110651925D01*
X2765000Y110220128D01*
X660000Y110220128D01*
X660000Y115373000D01*
X10805000Y115373000D01*
X10805000Y113296453D01*
G04 #@! TA.AperFunction,Conductor*
D24*
G36*
X10805000Y113296453D02*
G01*
X10755723Y113222705D01*
X10689010Y113061645D01*
X10655000Y112890665D01*
X10655000Y112716335D01*
X10689010Y112545355D01*
X10755723Y112384295D01*
X10852576Y112239345D01*
X10975845Y112116076D01*
X11120795Y112019223D01*
X11281855Y111952510D01*
X11452835Y111918500D01*
X11627165Y111918500D01*
X11798145Y111952510D01*
X11959205Y112019223D01*
X12104155Y112116076D01*
X12227424Y112239345D01*
X12324277Y112384295D01*
X12390990Y112545355D01*
X12425000Y112716335D01*
X12425000Y112890665D01*
X12390990Y113061645D01*
X12324277Y113222705D01*
X12275000Y113296453D01*
X12275000Y115373000D01*
X17833653Y115373000D01*
X16194208Y113733554D01*
X16166162Y113710537D01*
X16074313Y113598619D01*
X16006063Y113470932D01*
X15990754Y113420464D01*
X15964035Y113332385D01*
X15949844Y113188300D01*
X15953400Y113152195D01*
X15953400Y112615234D01*
X15841308Y112649236D01*
X15560000Y112676943D01*
X15278691Y112649236D01*
X15008192Y112567182D01*
X14758899Y112433932D01*
X14540392Y112254607D01*
X14361068Y112036100D01*
X14227818Y111786807D01*
X14145764Y111516308D01*
X14138800Y111445600D01*
X14117709Y111428291D01*
X14091559Y111396427D01*
X12366418Y109671285D01*
X12272335Y109690000D01*
X11989665Y109690000D01*
X11712426Y109634853D01*
X11451273Y109526680D01*
X11216241Y109369637D01*
X11016363Y109169759D01*
X10859320Y108934727D01*
X10751147Y108673574D01*
X10696000Y108396335D01*
X10696000Y108113665D01*
X10714714Y108019583D01*
X8250574Y105555441D01*
X8218710Y105529291D01*
X8157590Y105454816D01*
X8114364Y105402145D01*
X8036828Y105257086D01*
X7989082Y105099688D01*
X7972960Y104936000D01*
X7977001Y104894971D01*
X7977000Y72562518D01*
X7972960Y72521500D01*
X7977000Y72480482D01*
X7989082Y72357812D01*
X8036828Y72200414D01*
X8114364Y72055355D01*
X8218709Y71928209D01*
X8250579Y71902054D01*
X8583882Y71568751D01*
X8574057Y71469000D01*
X8601764Y71187691D01*
X8683818Y70917192D01*
X8817068Y70667899D01*
X8996392Y70449392D01*
X9214899Y70270068D01*
X9464192Y70136818D01*
X9628025Y70087120D01*
X9640828Y70044914D01*
X9718364Y69899855D01*
X9822709Y69772709D01*
X9854579Y69746554D01*
X11452714Y68148417D01*
X11434000Y68054335D01*
X11434000Y67771665D01*
X11489147Y67494426D01*
X11597320Y67233273D01*
X11754363Y66998241D01*
X11954241Y66798363D01*
X12189273Y66641320D01*
X12450426Y66533147D01*
X12727665Y66478000D01*
X13010335Y66478000D01*
X13287574Y66533147D01*
X13548727Y66641320D01*
X13783759Y66798363D01*
X13905694Y66920298D01*
X14555903Y66920298D01*
X14627486Y66676329D01*
X14882996Y66555429D01*
X15157184Y66486700D01*
X15439512Y66472783D01*
X15719130Y66514213D01*
X15985292Y66609397D01*
X16110514Y66676329D01*
X16182097Y66920298D01*
X15369000Y67733395D01*
X14555903Y66920298D01*
X13905694Y66920298D01*
X13983637Y66998241D01*
X14117692Y67198869D01*
X14132329Y67171486D01*
X14376298Y67099903D01*
X15189395Y67913000D01*
X15548605Y67913000D01*
X16361702Y67099903D01*
X16605671Y67171486D01*
X16726571Y67426996D01*
X16795300Y67701184D01*
X16809217Y67983512D01*
X16767787Y68263130D01*
X16672603Y68529292D01*
X16605671Y68654514D01*
X16361702Y68726097D01*
X15548605Y67913000D01*
X15189395Y67913000D01*
X14376298Y68726097D01*
X14132329Y68654514D01*
X14118676Y68625659D01*
X13983637Y68827759D01*
X13905694Y68905702D01*
X14555903Y68905702D01*
X15369000Y68092605D01*
X16182097Y68905702D01*
X16110514Y69149671D01*
X15855004Y69270571D01*
X15580816Y69339300D01*
X15298488Y69353217D01*
X15018870Y69311787D01*
X14752708Y69216603D01*
X14627486Y69149671D01*
X14555903Y68905702D01*
X13905694Y68905702D01*
X13783759Y69027637D01*
X13548727Y69184680D01*
X13287574Y69292853D01*
X13010335Y69348000D01*
X12727665Y69348000D01*
X12633583Y69329286D01*
X11658678Y70304189D01*
X11835608Y70449392D01*
X12014932Y70667899D01*
X12148182Y70917192D01*
X12230236Y71187691D01*
X12257943Y71469000D01*
X12230236Y71750309D01*
X12148182Y72020808D01*
X12014932Y72270101D01*
X11835608Y72488608D01*
X11617101Y72667932D01*
X11489259Y72736265D01*
X11718839Y72886399D01*
X11920500Y73084105D01*
X12079715Y73317354D01*
X12190367Y73577182D01*
X12207904Y73659961D01*
X12085915Y73882000D01*
X10543000Y73882000D01*
X10543000Y73862000D01*
X10289000Y73862000D01*
X10289000Y73882000D01*
X10269000Y73882000D01*
X10269000Y74136000D01*
X10289000Y74136000D01*
X10289000Y76422000D01*
X10543000Y76422000D01*
X10543000Y74136000D01*
X12085915Y74136000D01*
X12207904Y74358039D01*
X12190367Y74440818D01*
X12079715Y74700646D01*
X11920500Y74933895D01*
X11718839Y75131601D01*
X11493441Y75279000D01*
X11718839Y75426399D01*
X11920500Y75624105D01*
X12079715Y75857354D01*
X12190367Y76117182D01*
X12207904Y76199961D01*
X12085915Y76422000D01*
X10543000Y76422000D01*
X10289000Y76422000D01*
X10269000Y76422000D01*
X10269000Y76676000D01*
X10289000Y76676000D01*
X10289000Y76696000D01*
X10543000Y76696000D01*
X10543000Y76676000D01*
X12085915Y76676000D01*
X12207904Y76898039D01*
X12190367Y76980818D01*
X12079715Y77240646D01*
X11920500Y77473895D01*
X11718839Y77671601D01*
X11489259Y77821735D01*
X11617101Y77890068D01*
X11835608Y78069392D01*
X12014932Y78287899D01*
X12148182Y78537192D01*
X12230236Y78807691D01*
X12257943Y79089000D01*
X12230236Y79370309D01*
X12148182Y79640808D01*
X12014932Y79890101D01*
X11835608Y80108608D01*
X11617101Y80287932D01*
X11489259Y80356265D01*
X11718839Y80506399D01*
X11920500Y80704105D01*
X12079715Y80937354D01*
X12190367Y81197182D01*
X12207904Y81279961D01*
X12085915Y81502000D01*
X10543000Y81502000D01*
X10543000Y81482000D01*
X10289000Y81482000D01*
X10289000Y81502000D01*
X10269000Y81502000D01*
X10269000Y81756000D01*
X10289000Y81756000D01*
X10289000Y84042000D01*
X10543000Y84042000D01*
X10543000Y81756000D01*
X12085915Y81756000D01*
X12207904Y81978039D01*
X12190367Y82060818D01*
X12079715Y82320646D01*
X11920500Y82553895D01*
X11718839Y82751601D01*
X11493441Y82899000D01*
X11718839Y83046399D01*
X11920500Y83244105D01*
X12079715Y83477354D01*
X12190367Y83737182D01*
X12207904Y83819961D01*
X12085915Y84042000D01*
X10543000Y84042000D01*
X10289000Y84042000D01*
X10269000Y84042000D01*
X10269000Y84296000D01*
X10289000Y84296000D01*
X10289000Y84316000D01*
X10543000Y84316000D01*
X10543000Y84296000D01*
X12085915Y84296000D01*
X12207904Y84518039D01*
X12190367Y84600818D01*
X12079715Y84860646D01*
X11920500Y85093895D01*
X11718839Y85291601D01*
X11489259Y85441735D01*
X11617101Y85510068D01*
X11835608Y85689392D01*
X12014932Y85907899D01*
X12148182Y86157192D01*
X12230236Y86427691D01*
X12257943Y86709000D01*
X12230236Y86990309D01*
X12148182Y87260808D01*
X12014932Y87510101D01*
X11835608Y87728608D01*
X11617101Y87907932D01*
X11367808Y88041182D01*
X11097309Y88123236D01*
X10886492Y88144000D01*
X9945508Y88144000D01*
X9734691Y88123236D01*
X9647000Y88096636D01*
X9647000Y104590133D01*
X9819165Y104762298D01*
X11317903Y104762298D01*
X11389486Y104518329D01*
X11644996Y104397429D01*
X11919184Y104328700D01*
X12201512Y104314783D01*
X12481130Y104356213D01*
X12747292Y104451397D01*
X12872514Y104518329D01*
X12944097Y104762298D01*
X12131000Y105575395D01*
X11317903Y104762298D01*
X9819165Y104762298D01*
X10697309Y105640441D01*
X10732213Y105404870D01*
X10827397Y105138708D01*
X10894329Y105013486D01*
X11138298Y104941903D01*
X11951395Y105755000D01*
X12310605Y105755000D01*
X13123702Y104941903D01*
X13367671Y105013486D01*
X13488571Y105268996D01*
X13557300Y105543184D01*
X13571217Y105825512D01*
X13529787Y106105130D01*
X13434603Y106371292D01*
X13367671Y106496514D01*
X13123702Y106568097D01*
X12310605Y105755000D01*
X11951395Y105755000D01*
X11937253Y105769142D01*
X12116858Y105948747D01*
X12131000Y105934605D01*
X12944097Y106747702D01*
X12872514Y106991671D01*
X12843659Y107005324D01*
X13045759Y107140363D01*
X13245637Y107340241D01*
X13402680Y107575273D01*
X13510853Y107836426D01*
X13566000Y108113665D01*
X13566000Y108396335D01*
X13547285Y108490418D01*
X14509682Y109452814D01*
X14540393Y109415392D01*
X14758900Y109236068D01*
X15008193Y109102818D01*
X15278692Y109020764D01*
X15560000Y108993057D01*
X15841309Y109020764D01*
X15853235Y109024382D01*
X13926008Y107097154D01*
X13897962Y107074137D01*
X13806113Y106962219D01*
X13737863Y106834532D01*
X13708795Y106738707D01*
X13695835Y106695985D01*
X13681644Y106551900D01*
X13685200Y106515795D01*
X13685201Y83780615D01*
X13681644Y83744500D01*
X13695835Y83600415D01*
X13733166Y83477354D01*
X13737864Y83461867D01*
X13806114Y83334180D01*
X13897963Y83222262D01*
X13926008Y83199246D01*
X15990446Y81134807D01*
X16013462Y81106762D01*
X16125380Y81014913D01*
X16253067Y80946663D01*
X16377806Y80908824D01*
X16391615Y80904635D01*
X16396298Y80904174D01*
X16437068Y80827899D01*
X16616392Y80609392D01*
X16834899Y80430068D01*
X16967858Y80359000D01*
X16834899Y80287932D01*
X16616392Y80108608D01*
X16437068Y79890101D01*
X16303818Y79640808D01*
X16221764Y79370309D01*
X16194057Y79089000D01*
X16221764Y78807691D01*
X16303818Y78537192D01*
X16437068Y78287899D01*
X16616392Y78069392D01*
X16834899Y77890068D01*
X16967858Y77819000D01*
X16834899Y77747932D01*
X16616392Y77568608D01*
X16437068Y77350101D01*
X16303818Y77100808D01*
X16221764Y76830309D01*
X16194057Y76549000D01*
X16221764Y76267691D01*
X16303818Y75997192D01*
X16437068Y75747899D01*
X16616392Y75529392D01*
X16834899Y75350068D01*
X16967858Y75279000D01*
X16834899Y75207932D01*
X16616392Y75028608D01*
X16437068Y74810101D01*
X16303818Y74560808D01*
X16221764Y74290309D01*
X16194057Y74009000D01*
X16221764Y73727691D01*
X16303818Y73457192D01*
X16437068Y73207899D01*
X16616392Y72989392D01*
X16729482Y72896581D01*
X16711518Y72894812D01*
X16591820Y72858502D01*
X16481506Y72799537D01*
X16384815Y72720185D01*
X16305463Y72623494D01*
X16246498Y72513180D01*
X16210188Y72393482D01*
X16197928Y72269000D01*
X16197928Y70669000D01*
X16210188Y70544518D01*
X16246498Y70424820D01*
X16305463Y70314506D01*
X16384815Y70217815D01*
X16481506Y70138463D01*
X16591820Y70079498D01*
X16711518Y70043188D01*
X16836000Y70030928D01*
X19210301Y70030928D01*
X19210301Y56539948D01*
X18295808Y55625454D01*
X18267762Y55602437D01*
X18213748Y55536621D01*
X18156100Y55583932D01*
X17906807Y55717182D01*
X17636308Y55799236D01*
X17355000Y55826943D01*
X17073691Y55799236D01*
X16803192Y55717182D01*
X16553899Y55583932D01*
X16335392Y55404607D01*
X16156068Y55186100D01*
X16085000Y55053142D01*
X16013932Y55186101D01*
X15834607Y55404608D01*
X15616100Y55583932D01*
X15366807Y55717182D01*
X15096308Y55799236D01*
X14815000Y55826943D01*
X14533691Y55799236D01*
X14263192Y55717182D01*
X14013899Y55583932D01*
X13795392Y55404607D01*
X13616068Y55186100D01*
X13545000Y55053142D01*
X13473932Y55186101D01*
X13294607Y55404608D01*
X13076100Y55583932D01*
X12826807Y55717182D01*
X12556308Y55799236D01*
X12275000Y55826943D01*
X11993691Y55799236D01*
X11723192Y55717182D01*
X11473899Y55583932D01*
X11255392Y55404607D01*
X11076068Y55186100D01*
X10942818Y54936807D01*
X10860764Y54666308D01*
X10840000Y54455491D01*
X10840000Y53514508D01*
X10860764Y53303691D01*
X10942818Y53033192D01*
X11076068Y52783899D01*
X11255393Y52565392D01*
X11473900Y52386068D01*
X11723193Y52252818D01*
X11993692Y52170764D01*
X12275000Y52143057D01*
X12556309Y52170764D01*
X12826808Y52252818D01*
X13076101Y52386068D01*
X13294608Y52565392D01*
X13473932Y52783899D01*
X13545000Y52916858D01*
X13616068Y52783899D01*
X13795393Y52565392D01*
X14013900Y52386068D01*
X14263193Y52252818D01*
X14533692Y52170764D01*
X14815000Y52143057D01*
X15096309Y52170764D01*
X15366808Y52252818D01*
X15616101Y52386068D01*
X15834608Y52565392D01*
X16013932Y52783899D01*
X16085000Y52916858D01*
X16156068Y52783899D01*
X16335393Y52565392D01*
X16553900Y52386068D01*
X16803193Y52252818D01*
X17073692Y52170764D01*
X17355000Y52143057D01*
X17636309Y52170764D01*
X17906808Y52252818D01*
X18055000Y52332029D01*
X18055001Y46990915D01*
X18051444Y46954800D01*
X18065635Y46810715D01*
X18107664Y46672167D01*
X18175914Y46544480D01*
X18267763Y46432562D01*
X18295808Y46409546D01*
X24296102Y40409251D01*
X24173899Y40343932D01*
X23955392Y40164607D01*
X23776068Y39946100D01*
X23705000Y39813142D01*
X23633932Y39946101D01*
X23454607Y40164608D01*
X23236100Y40343932D01*
X22986807Y40477182D01*
X22716308Y40559236D01*
X22435000Y40586943D01*
X22153691Y40559236D01*
X21883192Y40477182D01*
X21633899Y40343932D01*
X21415392Y40164607D01*
X21236068Y39946100D01*
X21165000Y39813142D01*
X21093932Y39946101D01*
X20914607Y40164608D01*
X20696100Y40343932D01*
X20446807Y40477182D01*
X20176308Y40559236D01*
X19895000Y40586943D01*
X19613691Y40559236D01*
X19343192Y40477182D01*
X19093899Y40343932D01*
X18875392Y40164607D01*
X18696068Y39946100D01*
X18625000Y39813142D01*
X18553932Y39946101D01*
X18374607Y40164608D01*
X18156100Y40343932D01*
X17906807Y40477182D01*
X17636308Y40559236D01*
X17355000Y40586943D01*
X17073691Y40559236D01*
X16803192Y40477182D01*
X16553899Y40343932D01*
X16335392Y40164607D01*
X16156068Y39946100D01*
X16085000Y39813142D01*
X16013932Y39946101D01*
X15834607Y40164608D01*
X15616100Y40343932D01*
X15366807Y40477182D01*
X15096308Y40559236D01*
X14815000Y40586943D01*
X14533691Y40559236D01*
X14263192Y40477182D01*
X14013899Y40343932D01*
X13795392Y40164607D01*
X13702581Y40051517D01*
X13700812Y40069482D01*
X13664502Y40189180D01*
X13605537Y40299494D01*
X13526185Y40396185D01*
X13429494Y40475537D01*
X13319180Y40534502D01*
X13199482Y40570812D01*
X13075000Y40583072D01*
X11475000Y40583072D01*
X11350518Y40570812D01*
X11230820Y40534502D01*
X11120506Y40475537D01*
X11023815Y40396185D01*
X10944463Y40299494D01*
X10885498Y40189180D01*
X10849188Y40069482D01*
X10836928Y39945000D01*
X10836928Y37545000D01*
X10849188Y37420518D01*
X10885498Y37300820D01*
X10944463Y37190506D01*
X11023815Y37093815D01*
X11120506Y37014463D01*
X11230820Y36955498D01*
X11350518Y36919188D01*
X11475000Y36906928D01*
X13075000Y36906928D01*
X13199482Y36919188D01*
X13319180Y36955498D01*
X13429494Y37014463D01*
X13526185Y37093815D01*
X13605537Y37190506D01*
X13664502Y37300820D01*
X13700812Y37420518D01*
X13702581Y37438483D01*
X13795393Y37325392D01*
X14013900Y37146068D01*
X14263193Y37012818D01*
X14533692Y36930764D01*
X14815000Y36903057D01*
X15096309Y36930764D01*
X15366808Y37012818D01*
X15616101Y37146068D01*
X15834608Y37325392D01*
X16013932Y37543899D01*
X16085000Y37676858D01*
X16156068Y37543899D01*
X16335393Y37325392D01*
X16553900Y37146068D01*
X16803193Y37012818D01*
X17073692Y36930764D01*
X17355000Y36903057D01*
X17636309Y36930764D01*
X17906808Y37012818D01*
X18156101Y37146068D01*
X18374608Y37325392D01*
X18553932Y37543899D01*
X18625000Y37676858D01*
X18696068Y37543899D01*
X18875393Y37325392D01*
X19093900Y37146068D01*
X19343193Y37012818D01*
X19613692Y36930764D01*
X19895000Y36903057D01*
X20176309Y36930764D01*
X20446808Y37012818D01*
X20696101Y37146068D01*
X20914608Y37325392D01*
X21093932Y37543899D01*
X21165000Y37676858D01*
X21236068Y37543899D01*
X21415393Y37325392D01*
X21633900Y37146068D01*
X21883193Y37012818D01*
X22153692Y36930764D01*
X22435000Y36903057D01*
X22716309Y36930764D01*
X22986808Y37012818D01*
X23236101Y37146068D01*
X23454608Y37325392D01*
X23633932Y37543899D01*
X23705000Y37676858D01*
X23776068Y37543899D01*
X23955393Y37325392D01*
X24173900Y37146068D01*
X24423193Y37012818D01*
X24693692Y36930764D01*
X24975000Y36903057D01*
X25256309Y36930764D01*
X25526808Y37012818D01*
X25549000Y37024680D01*
X25549001Y31282605D01*
X25499823Y31209005D01*
X25433110Y31047945D01*
X25399100Y30876965D01*
X25399100Y30702635D01*
X25433110Y30531655D01*
X25499823Y30370595D01*
X25596676Y30225645D01*
X25719945Y30102376D01*
X25864895Y30005523D01*
X26025955Y29938810D01*
X26196935Y29904800D01*
X26371265Y29904800D01*
X26542245Y29938810D01*
X26703305Y30005523D01*
X26848255Y30102376D01*
X26971524Y30225645D01*
X27068377Y30370595D01*
X27135090Y30531655D01*
X27169100Y30702635D01*
X27169100Y30876965D01*
X27135090Y31047945D01*
X27068377Y31209005D01*
X27019000Y31282903D01*
X27019000Y36997966D01*
X27083182Y36970633D01*
X27165961Y36953096D01*
X27388000Y37075085D01*
X27388000Y38618000D01*
X27368000Y38618000D01*
X27368000Y38872000D01*
X27388000Y38872000D01*
X27388000Y40414915D01*
X27165961Y40536904D01*
X27083182Y40519367D01*
X26823354Y40408715D01*
X26590105Y40249500D01*
X26562700Y40221547D01*
X19525000Y47259246D01*
X19525000Y52197668D01*
X19613692Y52170764D01*
X19895000Y52143057D01*
X20176309Y52170764D01*
X20446808Y52252818D01*
X20696101Y52386068D01*
X20879980Y52536974D01*
X21426446Y51990507D01*
X21449462Y51962462D01*
X21561380Y51870613D01*
X21689067Y51802363D01*
X21785586Y51773084D01*
X21827614Y51760335D01*
X21841832Y51758935D01*
X21935595Y51749700D01*
X21935602Y51749700D01*
X21971699Y51746145D01*
X22007796Y51749700D01*
X24938895Y51749700D01*
X24975000Y51746144D01*
X25011105Y51749700D01*
X25119085Y51760335D01*
X25257633Y51802363D01*
X25385320Y51870613D01*
X25497238Y51962462D01*
X25589087Y52074380D01*
X25657337Y52202067D01*
X25699365Y52340615D01*
X25699826Y52345298D01*
X25776101Y52386068D01*
X25994608Y52565392D01*
X26173932Y52783899D01*
X26245000Y52916858D01*
X26316068Y52783899D01*
X26495393Y52565392D01*
X26713900Y52386068D01*
X26963193Y52252818D01*
X27233692Y52170764D01*
X27515000Y52143057D01*
X27796309Y52170764D01*
X28066808Y52252818D01*
X28316101Y52386068D01*
X28534608Y52565392D01*
X28713932Y52783899D01*
X28785000Y52916858D01*
X28856068Y52783899D01*
X29035393Y52565392D01*
X29253900Y52386068D01*
X29503193Y52252818D01*
X29773692Y52170764D01*
X30055000Y52143057D01*
X30336309Y52170764D01*
X30606808Y52252818D01*
X30856101Y52386068D01*
X31074608Y52565392D01*
X31253932Y52783899D01*
X31325000Y52916858D01*
X31396068Y52783899D01*
X31575393Y52565392D01*
X31793900Y52386068D01*
X32043193Y52252818D01*
X32313692Y52170764D01*
X32595000Y52143057D01*
X32876309Y52170764D01*
X33130000Y52247719D01*
X33130001Y41819748D01*
X32100808Y40790554D01*
X32072763Y40767538D01*
X31980914Y40655620D01*
X31935583Y40570812D01*
X31912664Y40527933D01*
X31870635Y40389385D01*
X31870174Y40384702D01*
X31793899Y40343932D01*
X31575392Y40164607D01*
X31396068Y39946100D01*
X31325000Y39813142D01*
X31253932Y39946101D01*
X31074607Y40164608D01*
X30856100Y40343932D01*
X30606807Y40477182D01*
X30336308Y40559236D01*
X30055000Y40586943D01*
X29773691Y40559236D01*
X29503192Y40477182D01*
X29253899Y40343932D01*
X29035392Y40164607D01*
X28856068Y39946100D01*
X28787735Y39818258D01*
X28637601Y40047839D01*
X28439895Y40249500D01*
X28206646Y40408715D01*
X27946818Y40519367D01*
X27864039Y40536904D01*
X27642000Y40414915D01*
X27642000Y38872000D01*
X27662000Y38872000D01*
X27662000Y38618000D01*
X27642000Y38618000D01*
X27642000Y37075085D01*
X27864039Y36953096D01*
X27946818Y36970633D01*
X28206646Y37081285D01*
X28439895Y37240500D01*
X28637601Y37442161D01*
X28787735Y37671741D01*
X28856068Y37543899D01*
X29035393Y37325392D01*
X29253900Y37146068D01*
X29503193Y37012818D01*
X29773692Y36930764D01*
X30055000Y36903057D01*
X30336309Y36930764D01*
X30606808Y37012818D01*
X30856101Y37146068D01*
X31074608Y37325392D01*
X31253932Y37543899D01*
X31325000Y37676858D01*
X31396068Y37543899D01*
X31575393Y37325392D01*
X31793900Y37146068D01*
X32043193Y37012818D01*
X32313692Y36930764D01*
X32595000Y36903057D01*
X32876309Y36930764D01*
X33146808Y37012818D01*
X33396101Y37146068D01*
X33614608Y37325392D01*
X33793932Y37543899D01*
X33865000Y37676858D01*
X33936068Y37543899D01*
X34115393Y37325392D01*
X34333900Y37146068D01*
X34583193Y37012818D01*
X34853692Y36930764D01*
X35135000Y36903057D01*
X35416309Y36930764D01*
X35686808Y37012818D01*
X35936101Y37146068D01*
X36154608Y37325392D01*
X36333932Y37543899D01*
X36405000Y37676858D01*
X36476068Y37543899D01*
X36655393Y37325392D01*
X36873900Y37146068D01*
X37123193Y37012818D01*
X37393692Y36930764D01*
X37675000Y36903057D01*
X37956309Y36930764D01*
X38226808Y37012818D01*
X38476101Y37146068D01*
X38694608Y37325392D01*
X38873932Y37543899D01*
X38945000Y37676858D01*
X39016068Y37543899D01*
X39195393Y37325392D01*
X39413900Y37146068D01*
X39663193Y37012818D01*
X39933692Y36930764D01*
X40215000Y36903057D01*
X40496309Y36930764D01*
X40766808Y37012818D01*
X41016101Y37146068D01*
X41234608Y37325392D01*
X41413932Y37543899D01*
X41485000Y37676858D01*
X41556068Y37543899D01*
X41735393Y37325392D01*
X41953900Y37146068D01*
X42203193Y37012818D01*
X42473692Y36930764D01*
X42755000Y36903057D01*
X43036309Y36930764D01*
X43306808Y37012818D01*
X43556101Y37146068D01*
X43774608Y37325392D01*
X43953932Y37543899D01*
X44025000Y37676858D01*
X44096068Y37543899D01*
X44275393Y37325392D01*
X44493900Y37146068D01*
X44743193Y37012818D01*
X45013692Y36930764D01*
X45295000Y36903057D01*
X45576309Y36930764D01*
X45846808Y37012818D01*
X46096101Y37146068D01*
X46314608Y37325392D01*
X46493932Y37543899D01*
X46565000Y37676858D01*
X46636068Y37543899D01*
X46815393Y37325392D01*
X47033900Y37146068D01*
X47283193Y37012818D01*
X47553692Y36930764D01*
X47835000Y36903057D01*
X48116309Y36930764D01*
X48386808Y37012818D01*
X48636101Y37146068D01*
X48854608Y37325392D01*
X49033932Y37543899D01*
X49105000Y37676858D01*
X49176068Y37543899D01*
X49355393Y37325392D01*
X49573900Y37146068D01*
X49823193Y37012818D01*
X50093692Y36930764D01*
X50375000Y36903057D01*
X50656309Y36930764D01*
X50926808Y37012818D01*
X51176101Y37146068D01*
X51394608Y37325392D01*
X51573932Y37543899D01*
X51645000Y37676858D01*
X51716068Y37543899D01*
X51895393Y37325392D01*
X52113900Y37146068D01*
X52363193Y37012818D01*
X52633692Y36930764D01*
X52915000Y36903057D01*
X53196309Y36930764D01*
X53466808Y37012818D01*
X53716101Y37146068D01*
X53934608Y37325392D01*
X54113932Y37543899D01*
X54185000Y37676858D01*
X54256068Y37543899D01*
X54435393Y37325392D01*
X54653900Y37146068D01*
X54903193Y37012818D01*
X55173692Y36930764D01*
X55455000Y36903057D01*
X55736309Y36930764D01*
X56006808Y37012818D01*
X56033097Y37026870D01*
X56131710Y36906709D01*
X56163574Y36880559D01*
X56260900Y36783233D01*
X56260900Y33772347D01*
X56021335Y33820000D01*
X55738665Y33820000D01*
X55461426Y33764853D01*
X55200273Y33656680D01*
X54965241Y33499637D01*
X54765363Y33299759D01*
X54645252Y33120000D01*
X51996394Y33120000D01*
X51960299Y33123555D01*
X51924204Y33120000D01*
X51924195Y33120000D01*
X51816215Y33109365D01*
X51677667Y33067337D01*
X51549980Y32999087D01*
X51438062Y32907238D01*
X51415046Y32879193D01*
X39205480Y20669627D01*
X39046632Y20828475D01*
X38803411Y20990990D01*
X38533158Y21102932D01*
X38246260Y21160000D01*
X37953740Y21160000D01*
X37666842Y21102932D01*
X37396589Y20990990D01*
X37153368Y20828475D01*
X36946525Y20621632D01*
X36784010Y20378411D01*
X36672068Y20108158D01*
X36615000Y19821260D01*
X36615000Y19528740D01*
X36672068Y19241842D01*
X36784010Y18971589D01*
X36946525Y18728368D01*
X37153368Y18521525D01*
X37327760Y18405000D01*
X37153368Y18288475D01*
X36946525Y18081632D01*
X36784010Y17838411D01*
X36672068Y17568158D01*
X36615000Y17281260D01*
X36615000Y16988740D01*
X36672068Y16701842D01*
X36784010Y16431589D01*
X36946525Y16188368D01*
X37153368Y15981525D01*
X37327760Y15865000D01*
X37153368Y15748475D01*
X36994520Y15589627D01*
X33684959Y18899187D01*
X33661938Y18927238D01*
X33550020Y19019087D01*
X33422333Y19087337D01*
X33283785Y19129365D01*
X33175805Y19140000D01*
X33139700Y19143556D01*
X33103595Y19140000D01*
X31774883Y19140000D01*
X31633475Y19351632D01*
X31426632Y19558475D01*
X31252240Y19675000D01*
X31426632Y19791525D01*
X31633475Y19998368D01*
X31795990Y20241589D01*
X31907932Y20511842D01*
X31965000Y20798740D01*
X31965000Y21091260D01*
X31907932Y21378158D01*
X31795990Y21648411D01*
X31633475Y21891632D01*
X31426632Y22098475D01*
X31252240Y22215000D01*
X31426632Y22331525D01*
X31633475Y22538368D01*
X31795990Y22781589D01*
X31907932Y23051842D01*
X31965000Y23338740D01*
X31965000Y23631260D01*
X31907932Y23918158D01*
X31795990Y24188411D01*
X31633475Y24431632D01*
X31426632Y24638475D01*
X31183411Y24800990D01*
X30913158Y24912932D01*
X30626260Y24970000D01*
X30333740Y24970000D01*
X30046842Y24912932D01*
X29776589Y24800990D01*
X29533368Y24638475D01*
X29326525Y24431632D01*
X29164010Y24188411D01*
X29052068Y23918158D01*
X28995000Y23631260D01*
X28995000Y23338740D01*
X29052068Y23051842D01*
X29164010Y22781589D01*
X29326525Y22538368D01*
X29533368Y22331525D01*
X29707760Y22215000D01*
X29533368Y22098475D01*
X29326525Y21891632D01*
X29164010Y21648411D01*
X29052068Y21378158D01*
X28995000Y21091260D01*
X28995000Y20798740D01*
X29052068Y20511842D01*
X29164010Y20241589D01*
X29326525Y19998368D01*
X29533368Y19791525D01*
X29707760Y19675000D01*
X29533368Y19558475D01*
X29326525Y19351632D01*
X29164010Y19108411D01*
X29052068Y18838158D01*
X28995000Y18551260D01*
X28995000Y18258740D01*
X29052068Y17971842D01*
X29164010Y17701589D01*
X29326525Y17458368D01*
X29533368Y17251525D01*
X29707760Y17135000D01*
X29533368Y17018475D01*
X29326525Y16811632D01*
X29164010Y16568411D01*
X29052068Y16298158D01*
X28995000Y16011260D01*
X28995000Y15718740D01*
X29052068Y15431842D01*
X29164010Y15161589D01*
X29326525Y14918368D01*
X29533368Y14711525D01*
X29707760Y14595000D01*
X29533368Y14478475D01*
X29326525Y14271632D01*
X29164010Y14028411D01*
X29052068Y13758158D01*
X28995000Y13471260D01*
X28995000Y13178740D01*
X29052068Y12891842D01*
X29164010Y12621589D01*
X29326525Y12378368D01*
X29533368Y12171525D01*
X29715534Y12049805D01*
X29598645Y11980178D01*
X29382412Y11785269D01*
X29208359Y11551920D01*
X29083175Y11289099D01*
X29038524Y11141890D01*
X29159845Y10912000D01*
X30353000Y10912000D01*
X30353000Y10932000D01*
X30607000Y10932000D01*
X30607000Y10912000D01*
X31800155Y10912000D01*
X31921476Y11141890D01*
X31876825Y11289099D01*
X31751641Y11551920D01*
X31577588Y11785269D01*
X31361355Y11980178D01*
X31244466Y12049805D01*
X31426632Y12171525D01*
X31585480Y12330373D01*
X33545646Y10370207D01*
X33568662Y10342162D01*
X33680580Y10250313D01*
X33808267Y10182063D01*
X33946815Y10140035D01*
X34090900Y10125844D01*
X34127005Y10129400D01*
X36747141Y10129400D01*
X36672068Y9948158D01*
X36615000Y9661260D01*
X36615000Y9368740D01*
X36672068Y9081842D01*
X36784010Y8811589D01*
X36946525Y8568368D01*
X37078380Y8436513D01*
X37005820Y8414502D01*
X36895506Y8355537D01*
X36798815Y8276185D01*
X36719463Y8179494D01*
X36660498Y8069180D01*
X36624188Y7949482D01*
X36611928Y7825000D01*
X36615000Y7260750D01*
X36773750Y7102000D01*
X37973000Y7102000D01*
X37973000Y7122000D01*
X38227000Y7122000D01*
X38227000Y7102000D01*
X39426250Y7102000D01*
X39585000Y7260750D01*
X39588072Y7825000D01*
X39575812Y7949482D01*
X39539502Y8069180D01*
X39480537Y8179494D01*
X39401185Y8276185D01*
X39304494Y8355537D01*
X39194180Y8414502D01*
X39121620Y8436513D01*
X39253475Y8568368D01*
X39415990Y8811589D01*
X39527932Y9081842D01*
X39585000Y9368740D01*
X39585000Y9661260D01*
X39527932Y9948158D01*
X39452859Y10129400D01*
X40842995Y10129400D01*
X40879100Y10125844D01*
X40915205Y10129400D01*
X41023185Y10140035D01*
X41161733Y10182063D01*
X41289420Y10250313D01*
X41401338Y10342162D01*
X41424359Y10370213D01*
X54834875Y23780729D01*
X54965241Y23650363D01*
X55197759Y23495000D01*
X54965241Y23339637D01*
X54765363Y23139759D01*
X54608320Y22904727D01*
X54500147Y22643574D01*
X54445000Y22366335D01*
X54445000Y22083665D01*
X54500147Y21806426D01*
X54608320Y21545273D01*
X54765363Y21310241D01*
X54965241Y21110363D01*
X55197759Y20955000D01*
X54965241Y20799637D01*
X54765363Y20599759D01*
X54608320Y20364727D01*
X54500147Y20103574D01*
X54445000Y19826335D01*
X54445000Y19543665D01*
X54500147Y19266426D01*
X54608320Y19005273D01*
X54765363Y18770241D01*
X54965241Y18570363D01*
X55197759Y18415000D01*
X54965241Y18259637D01*
X54765363Y18059759D01*
X54608320Y17824727D01*
X54500147Y17563574D01*
X54445000Y17286335D01*
X54445000Y17003665D01*
X54500147Y16726426D01*
X54608320Y16465273D01*
X54765363Y16230241D01*
X54965241Y16030363D01*
X55197759Y15875000D01*
X54965241Y15719637D01*
X54765363Y15519759D01*
X54608320Y15284727D01*
X54500147Y15023574D01*
X54445000Y14746335D01*
X54445000Y14463665D01*
X54500147Y14186426D01*
X54608320Y13925273D01*
X54765363Y13690241D01*
X54965241Y13490363D01*
X55057084Y13428996D01*
X55057082Y13428989D01*
X55040960Y13265300D01*
X55044201Y13232396D01*
X54965241Y13179637D01*
X54765363Y12979759D01*
X54712603Y12900798D01*
X54679699Y12904039D01*
X54638691Y12900000D01*
X54638681Y12900000D01*
X54516011Y12887918D01*
X54358613Y12840172D01*
X54213554Y12762636D01*
X54086409Y12658291D01*
X54060259Y12626427D01*
X45138874Y3705041D01*
X45107010Y3678891D01*
X45040754Y3598158D01*
X45002664Y3551745D01*
X44925128Y3406686D01*
X44900568Y3325721D01*
X44883158Y3332932D01*
X44596260Y3390000D01*
X44303740Y3390000D01*
X44016842Y3332932D01*
X43746589Y3220990D01*
X43503368Y3058475D01*
X43296525Y2851632D01*
X43134010Y2608411D01*
X43022068Y2338158D01*
X42965000Y2051260D01*
X42965000Y1758740D01*
X43022068Y1471842D01*
X43134010Y1201589D01*
X43296525Y958368D01*
X43503368Y751525D01*
X43640345Y660000D01*
X660000Y660000D01*
X660000Y3311260D01*
X1055000Y3311260D01*
X1055000Y3018740D01*
X1112068Y2731842D01*
X1224010Y2461589D01*
X1386525Y2218368D01*
X1593368Y2011525D01*
X1836589Y1849010D01*
X2106842Y1737068D01*
X2393740Y1680000D01*
X2686260Y1680000D01*
X2973158Y1737068D01*
X3243411Y1849010D01*
X3486632Y2011525D01*
X3693475Y2218368D01*
X3810000Y2392760D01*
X3926525Y2218368D01*
X4133368Y2011525D01*
X4376589Y1849010D01*
X4646842Y1737068D01*
X4933740Y1680000D01*
X5226260Y1680000D01*
X5513158Y1737068D01*
X5783411Y1849010D01*
X6026632Y2011525D01*
X6233475Y2218368D01*
X6395990Y2461589D01*
X6507932Y2731842D01*
X6565000Y3018740D01*
X6565000Y3311260D01*
X6507932Y3598158D01*
X6395990Y3868411D01*
X6298043Y4015000D01*
X28991928Y4015000D01*
X28991928Y2315000D01*
X29004188Y2190518D01*
X29040498Y2070820D01*
X29099463Y1960506D01*
X29178815Y1863815D01*
X29275506Y1784463D01*
X29385820Y1725498D01*
X29505518Y1689188D01*
X29630000Y1676928D01*
X31330000Y1676928D01*
X31454482Y1689188D01*
X31574180Y1725498D01*
X31684494Y1784463D01*
X31781185Y1863815D01*
X31860537Y1960506D01*
X31919502Y2070820D01*
X31955812Y2190518D01*
X31968072Y2315000D01*
X31968072Y4015000D01*
X31955812Y4139482D01*
X31919502Y4259180D01*
X31860537Y4369494D01*
X31781185Y4466185D01*
X31684494Y4545537D01*
X31574180Y4604502D01*
X31501620Y4626513D01*
X31633475Y4758368D01*
X31795990Y5001589D01*
X31907932Y5271842D01*
X31965000Y5558740D01*
X31965000Y5851260D01*
X31910550Y6125000D01*
X36611928Y6125000D01*
X36624188Y6000518D01*
X36660498Y5880820D01*
X36719463Y5770506D01*
X36798815Y5673815D01*
X36895506Y5594463D01*
X37005820Y5535498D01*
X37125518Y5499188D01*
X37250000Y5486928D01*
X37814250Y5490000D01*
X37973000Y5648750D01*
X37973000Y6848000D01*
X38227000Y6848000D01*
X38227000Y5648750D01*
X38385750Y5490000D01*
X38950000Y5486928D01*
X39074482Y5499188D01*
X39194180Y5535498D01*
X39304494Y5594463D01*
X39401185Y5673815D01*
X39480537Y5770506D01*
X39539502Y5880820D01*
X39575812Y6000518D01*
X39588072Y6125000D01*
X39585000Y6689250D01*
X39426250Y6848000D01*
X38227000Y6848000D01*
X37973000Y6848000D01*
X36773750Y6848000D01*
X36615000Y6689250D01*
X36611928Y6125000D01*
X31910550Y6125000D01*
X31907932Y6138158D01*
X31795990Y6408411D01*
X31633475Y6651632D01*
X31426632Y6858475D01*
X31252240Y6975000D01*
X31426632Y7091525D01*
X31633475Y7298368D01*
X31795990Y7541589D01*
X31907932Y7811842D01*
X31965000Y8098740D01*
X31965000Y8391260D01*
X31907932Y8678158D01*
X31795990Y8948411D01*
X31633475Y9191632D01*
X31426632Y9398475D01*
X31244466Y9520195D01*
X31361355Y9589822D01*
X31577588Y9784731D01*
X31751641Y10018080D01*
X31876825Y10280901D01*
X31921476Y10428110D01*
X31800155Y10658000D01*
X30607000Y10658000D01*
X30607000Y10638000D01*
X30353000Y10638000D01*
X30353000Y10658000D01*
X29159845Y10658000D01*
X29038524Y10428110D01*
X29083175Y10280901D01*
X29208359Y10018080D01*
X29382412Y9784731D01*
X29598645Y9589822D01*
X29715534Y9520195D01*
X29533368Y9398475D01*
X29326525Y9191632D01*
X29164010Y8948411D01*
X29052068Y8678158D01*
X28995000Y8391260D01*
X28995000Y8098740D01*
X29052068Y7811842D01*
X29164010Y7541589D01*
X29326525Y7298368D01*
X29533368Y7091525D01*
X29707760Y6975000D01*
X29533368Y6858475D01*
X29326525Y6651632D01*
X29164010Y6408411D01*
X29052068Y6138158D01*
X28995000Y5851260D01*
X28995000Y5558740D01*
X29052068Y5271842D01*
X29164010Y5001589D01*
X29326525Y4758368D01*
X29458380Y4626513D01*
X29385820Y4604502D01*
X29275506Y4545537D01*
X29178815Y4466185D01*
X29099463Y4369494D01*
X29040498Y4259180D01*
X29004188Y4139482D01*
X28991928Y4015000D01*
X6298043Y4015000D01*
X6233475Y4111632D01*
X6026632Y4318475D01*
X5783411Y4480990D01*
X5513158Y4592932D01*
X5226260Y4650000D01*
X4933740Y4650000D01*
X4646842Y4592932D01*
X4376589Y4480990D01*
X4133368Y4318475D01*
X3926525Y4111632D01*
X3810000Y3937240D01*
X3693475Y4111632D01*
X3486632Y4318475D01*
X3243411Y4480990D01*
X2973158Y4592932D01*
X2686260Y4650000D01*
X2393740Y4650000D01*
X2106842Y4592932D01*
X1836589Y4480990D01*
X1593368Y4318475D01*
X1386525Y4111632D01*
X1224010Y3868411D01*
X1112068Y3598158D01*
X1055000Y3311260D01*
X660000Y3311260D01*
X660000Y23631260D01*
X1055000Y23631260D01*
X1055000Y23338740D01*
X1112068Y23051842D01*
X1224010Y22781589D01*
X1386525Y22538368D01*
X1593368Y22331525D01*
X1836589Y22169010D01*
X2106842Y22057068D01*
X2393740Y22000000D01*
X2686260Y22000000D01*
X2973158Y22057068D01*
X3243411Y22169010D01*
X3486632Y22331525D01*
X3693475Y22538368D01*
X3810000Y22712760D01*
X3926525Y22538368D01*
X4133368Y22331525D01*
X4376589Y22169010D01*
X4646842Y22057068D01*
X4933740Y22000000D01*
X5226260Y22000000D01*
X5513158Y22057068D01*
X5783411Y22169010D01*
X6026632Y22331525D01*
X6233475Y22538368D01*
X6395990Y22781589D01*
X6507932Y23051842D01*
X6565000Y23338740D01*
X6565000Y23631260D01*
X6507932Y23918158D01*
X6395990Y24188411D01*
X6233475Y24431632D01*
X6026632Y24638475D01*
X5783411Y24800990D01*
X5513158Y24912932D01*
X5226260Y24970000D01*
X4933740Y24970000D01*
X4646842Y24912932D01*
X4376589Y24800990D01*
X4133368Y24638475D01*
X3926525Y24431632D01*
X3810000Y24257240D01*
X3693475Y24431632D01*
X3486632Y24638475D01*
X3243411Y24800990D01*
X2973158Y24912932D01*
X2686260Y24970000D01*
X2393740Y24970000D01*
X2106842Y24912932D01*
X1836589Y24800990D01*
X1593368Y24638475D01*
X1386525Y24431632D01*
X1224010Y24188411D01*
X1112068Y23918158D01*
X1055000Y23631260D01*
X660000Y23631260D01*
X660000Y41220128D01*
X2765000Y41220128D01*
X2765000Y40779872D01*
X2850890Y40348075D01*
X3019369Y39941331D01*
X3263962Y39575271D01*
X3575271Y39263962D01*
X3941331Y39019369D01*
X4348075Y38850890D01*
X4779872Y38765000D01*
X5220128Y38765000D01*
X5651925Y38850890D01*
X6058669Y39019369D01*
X6424729Y39263962D01*
X6736038Y39575271D01*
X6980631Y39941331D01*
X7149110Y40348075D01*
X7235000Y40779872D01*
X7235000Y41220128D01*
X7149110Y41651925D01*
X6980631Y42058669D01*
X6736038Y42424729D01*
X6424729Y42736038D01*
X6058669Y42980631D01*
X5651925Y43149110D01*
X5220128Y43235000D01*
X4779872Y43235000D01*
X4348075Y43149110D01*
X3941331Y42980631D01*
X3575271Y42736038D01*
X3263962Y42424729D01*
X3019369Y42058669D01*
X2850890Y41651925D01*
X2765000Y41220128D01*
X660000Y41220128D01*
X660000Y110220128D01*
X2765000Y110220128D01*
X2765000Y109779872D01*
X2850890Y109348075D01*
X3019369Y108941331D01*
X3263962Y108575271D01*
X3575271Y108263962D01*
X3941331Y108019369D01*
X4348075Y107850890D01*
X4779872Y107765000D01*
X5220128Y107765000D01*
X5651925Y107850890D01*
X6058669Y108019369D01*
X6424729Y108263962D01*
X6736038Y108575271D01*
X6980631Y108941331D01*
X7149110Y109348075D01*
X7235000Y109779872D01*
X7235000Y110220128D01*
X7149110Y110651925D01*
X6980631Y111058669D01*
X6736038Y111424729D01*
X6424729Y111736038D01*
X6058669Y111980631D01*
X5651925Y112149110D01*
X5220128Y112235000D01*
X4779872Y112235000D01*
X4348075Y112149110D01*
X3941331Y111980631D01*
X3575271Y111736038D01*
X3263962Y111424729D01*
X3019369Y111058669D01*
X2850890Y110651925D01*
X2765000Y110220128D01*
X660000Y110220128D01*
X660000Y115373000D01*
X10805000Y115373000D01*
X10805000Y113296453D01*
G37*
G04 #@! TD.AperFunction*
D23*
X32810486Y59164329D02*
X33065996Y59043429D01*
X33340184Y58974700D01*
X33401720Y58971667D01*
X32100808Y57670754D01*
X32072762Y57647737D01*
X31980913Y57535819D01*
X31912663Y57408132D01*
X31894392Y57347900D01*
X31870635Y57269585D01*
X31856444Y57125500D01*
X31860000Y57089395D01*
X31860000Y55619264D01*
X31793899Y55583932D01*
X31575392Y55404607D01*
X31396068Y55186100D01*
X31325000Y55053142D01*
X31253932Y55186101D01*
X31074607Y55404608D01*
X30856100Y55583932D01*
X30790000Y55619263D01*
X30790000Y57487154D01*
X32608750Y59305903D01*
X32622630Y59292023D01*
X32738903Y59408296D01*
X32810486Y59164329D01*
G04 #@! TA.AperFunction,Conductor*
D24*
G36*
X32810486Y59164329D02*
G01*
X33065996Y59043429D01*
X33340184Y58974700D01*
X33401720Y58971667D01*
X32100808Y57670754D01*
X32072762Y57647737D01*
X31980913Y57535819D01*
X31912663Y57408132D01*
X31894392Y57347900D01*
X31870635Y57269585D01*
X31856444Y57125500D01*
X31860000Y57089395D01*
X31860000Y55619264D01*
X31793899Y55583932D01*
X31575392Y55404607D01*
X31396068Y55186100D01*
X31325000Y55053142D01*
X31253932Y55186101D01*
X31074607Y55404608D01*
X30856100Y55583932D01*
X30790000Y55619263D01*
X30790000Y57487154D01*
X32608750Y59305903D01*
X32622630Y59292023D01*
X32738903Y59408296D01*
X32810486Y59164329D01*
G37*
G04 #@! TD.AperFunction*
D23*
X20767000Y103342000D02*
X20787000Y103342000D01*
X20787000Y103088000D01*
X20767000Y103088000D01*
X20767000Y101545085D01*
X20989039Y101423096D01*
X21040600Y101434019D01*
X21040601Y55830247D01*
X20823408Y55613054D01*
X20795362Y55590037D01*
X20752420Y55537712D01*
X20696100Y55583932D01*
X20462254Y55708925D01*
X20467538Y55713262D01*
X20559387Y55825180D01*
X20627637Y55952867D01*
X20669665Y56091415D01*
X20680300Y56199395D01*
X20683856Y56235500D01*
X20680300Y56271605D01*
X20680300Y84230695D01*
X20683856Y84266800D01*
X20669665Y84410885D01*
X20627637Y84549434D01*
X20559387Y84677120D01*
X20490553Y84760994D01*
X20490550Y84760997D01*
X20467537Y84789038D01*
X20439497Y84812050D01*
X19503609Y85747937D01*
X19540500Y85784105D01*
X19699715Y86017354D01*
X19810367Y86277182D01*
X19827904Y86359961D01*
X19705915Y86582000D01*
X18163000Y86582000D01*
X18163000Y86562000D01*
X17909000Y86562000D01*
X17909000Y86582000D01*
X17889000Y86582000D01*
X17889000Y86836000D01*
X17909000Y86836000D01*
X17909000Y88144000D01*
X18163000Y88144000D01*
X18163000Y86836000D01*
X19705915Y86836000D01*
X19827904Y87058039D01*
X19810367Y87140818D01*
X19699715Y87400646D01*
X19540500Y87633895D01*
X19338839Y87831601D01*
X19102483Y87986166D01*
X18840514Y88091650D01*
X18563000Y88144000D01*
X18163000Y88144000D01*
X17909000Y88144000D01*
X17509000Y88144000D01*
X17246800Y88094539D01*
X17246800Y99822054D01*
X18594193Y101169446D01*
X18622238Y101192462D01*
X18714087Y101304380D01*
X18782337Y101432067D01*
X18811616Y101528586D01*
X18824365Y101570614D01*
X18824826Y101575298D01*
X18901101Y101616068D01*
X19119608Y101795392D01*
X19298932Y102013899D01*
X19367265Y102141741D01*
X19517399Y101912161D01*
X19715105Y101710500D01*
X19948354Y101551285D01*
X20208182Y101440633D01*
X20290961Y101423096D01*
X20513000Y101545085D01*
X20513000Y103088000D01*
X20493000Y103088000D01*
X20493000Y103342000D01*
X20513000Y103342000D01*
X20513000Y103362000D01*
X20767000Y103362000D01*
X20767000Y103342000D01*
G04 #@! TA.AperFunction,Conductor*
D24*
G36*
X20767000Y103342000D02*
G01*
X20787000Y103342000D01*
X20787000Y103088000D01*
X20767000Y103088000D01*
X20767000Y101545085D01*
X20989039Y101423096D01*
X21040600Y101434019D01*
X21040601Y55830247D01*
X20823408Y55613054D01*
X20795362Y55590037D01*
X20752420Y55537712D01*
X20696100Y55583932D01*
X20462254Y55708925D01*
X20467538Y55713262D01*
X20559387Y55825180D01*
X20627637Y55952867D01*
X20669665Y56091415D01*
X20680300Y56199395D01*
X20683856Y56235500D01*
X20680300Y56271605D01*
X20680300Y84230695D01*
X20683856Y84266800D01*
X20669665Y84410885D01*
X20627637Y84549434D01*
X20559387Y84677120D01*
X20490553Y84760994D01*
X20490550Y84760997D01*
X20467537Y84789038D01*
X20439497Y84812050D01*
X19503609Y85747937D01*
X19540500Y85784105D01*
X19699715Y86017354D01*
X19810367Y86277182D01*
X19827904Y86359961D01*
X19705915Y86582000D01*
X18163000Y86582000D01*
X18163000Y86562000D01*
X17909000Y86562000D01*
X17909000Y86582000D01*
X17889000Y86582000D01*
X17889000Y86836000D01*
X17909000Y86836000D01*
X17909000Y88144000D01*
X18163000Y88144000D01*
X18163000Y86836000D01*
X19705915Y86836000D01*
X19827904Y87058039D01*
X19810367Y87140818D01*
X19699715Y87400646D01*
X19540500Y87633895D01*
X19338839Y87831601D01*
X19102483Y87986166D01*
X18840514Y88091650D01*
X18563000Y88144000D01*
X18163000Y88144000D01*
X17909000Y88144000D01*
X17509000Y88144000D01*
X17246800Y88094539D01*
X17246800Y99822054D01*
X18594193Y101169446D01*
X18622238Y101192462D01*
X18714087Y101304380D01*
X18782337Y101432067D01*
X18811616Y101528586D01*
X18824365Y101570614D01*
X18824826Y101575298D01*
X18901101Y101616068D01*
X19119608Y101795392D01*
X19298932Y102013899D01*
X19367265Y102141741D01*
X19517399Y101912161D01*
X19715105Y101710500D01*
X19948354Y101551285D01*
X20208182Y101440633D01*
X20290961Y101423096D01*
X20513000Y101545085D01*
X20513000Y103088000D01*
X20493000Y103088000D01*
X20493000Y103342000D01*
X20513000Y103342000D01*
X20513000Y103362000D01*
X20767000Y103362000D01*
X20767000Y103342000D01*
G37*
G04 #@! TD.AperFunction*
D23*
X46825001Y67530848D02*
X38546600Y59252446D01*
X38546600Y62476701D01*
X38617518Y62455188D01*
X38742000Y62442928D01*
X39656250Y62446000D01*
X39815000Y62604750D01*
X39815000Y63754000D01*
X40069000Y63754000D01*
X40069000Y62604750D01*
X40227750Y62446000D01*
X41142000Y62442928D01*
X41266482Y62455188D01*
X41386180Y62491498D01*
X41496494Y62550463D01*
X41593185Y62629815D01*
X41672537Y62726506D01*
X41731502Y62836820D01*
X41767812Y62956518D01*
X41780072Y63081000D01*
X41777000Y63595250D01*
X41618250Y63754000D01*
X40069000Y63754000D01*
X39815000Y63754000D01*
X39795000Y63754000D01*
X39795000Y64008000D01*
X39815000Y64008000D01*
X39815000Y64028000D01*
X40069000Y64028000D01*
X40069000Y64008000D01*
X41618250Y64008000D01*
X41777000Y64166750D01*
X41780072Y64681000D01*
X41767812Y64805482D01*
X41731502Y64925180D01*
X41672537Y65035494D01*
X41593185Y65132185D01*
X41496494Y65211537D01*
X41386180Y65270502D01*
X41266482Y65306812D01*
X41248518Y65308581D01*
X41361608Y65401392D01*
X41540932Y65619899D01*
X41581702Y65696174D01*
X41586385Y65696635D01*
X41724933Y65738663D01*
X41852620Y65806913D01*
X41964538Y65898762D01*
X41987559Y65926813D01*
X45120597Y69059850D01*
X45148637Y69082862D01*
X45171650Y69110903D01*
X45171653Y69110906D01*
X45240486Y69194779D01*
X45240487Y69194780D01*
X45308737Y69322467D01*
X45350765Y69461015D01*
X45361400Y69568995D01*
X45361400Y69569004D01*
X45364955Y69605099D01*
X45361400Y69641194D01*
X45361400Y76151900D01*
X45475565Y76151900D01*
X45646545Y76185910D01*
X45807605Y76252623D01*
X45952555Y76349476D01*
X46075824Y76472745D01*
X46172677Y76617695D01*
X46239390Y76778755D01*
X46273400Y76949735D01*
X46273400Y77124065D01*
X46239390Y77295045D01*
X46172677Y77456105D01*
X46075824Y77601055D01*
X45973300Y77703579D01*
X45973300Y79414795D01*
X46080455Y79370410D01*
X46251435Y79336400D01*
X46425765Y79336400D01*
X46596745Y79370410D01*
X46757805Y79437123D01*
X46825001Y79482022D01*
X46825001Y67530848D01*
G04 #@! TA.AperFunction,Conductor*
D24*
G36*
X46825001Y67530848D02*
G01*
X38546600Y59252446D01*
X38546600Y62476701D01*
X38617518Y62455188D01*
X38742000Y62442928D01*
X39656250Y62446000D01*
X39815000Y62604750D01*
X39815000Y63754000D01*
X40069000Y63754000D01*
X40069000Y62604750D01*
X40227750Y62446000D01*
X41142000Y62442928D01*
X41266482Y62455188D01*
X41386180Y62491498D01*
X41496494Y62550463D01*
X41593185Y62629815D01*
X41672537Y62726506D01*
X41731502Y62836820D01*
X41767812Y62956518D01*
X41780072Y63081000D01*
X41777000Y63595250D01*
X41618250Y63754000D01*
X40069000Y63754000D01*
X39815000Y63754000D01*
X39795000Y63754000D01*
X39795000Y64008000D01*
X39815000Y64008000D01*
X39815000Y64028000D01*
X40069000Y64028000D01*
X40069000Y64008000D01*
X41618250Y64008000D01*
X41777000Y64166750D01*
X41780072Y64681000D01*
X41767812Y64805482D01*
X41731502Y64925180D01*
X41672537Y65035494D01*
X41593185Y65132185D01*
X41496494Y65211537D01*
X41386180Y65270502D01*
X41266482Y65306812D01*
X41248518Y65308581D01*
X41361608Y65401392D01*
X41540932Y65619899D01*
X41581702Y65696174D01*
X41586385Y65696635D01*
X41724933Y65738663D01*
X41852620Y65806913D01*
X41964538Y65898762D01*
X41987559Y65926813D01*
X45120597Y69059850D01*
X45148637Y69082862D01*
X45171650Y69110903D01*
X45171653Y69110906D01*
X45240486Y69194779D01*
X45240487Y69194780D01*
X45308737Y69322467D01*
X45350765Y69461015D01*
X45361400Y69568995D01*
X45361400Y69569004D01*
X45364955Y69605099D01*
X45361400Y69641194D01*
X45361400Y76151900D01*
X45475565Y76151900D01*
X45646545Y76185910D01*
X45807605Y76252623D01*
X45952555Y76349476D01*
X46075824Y76472745D01*
X46172677Y76617695D01*
X46239390Y76778755D01*
X46273400Y76949735D01*
X46273400Y77124065D01*
X46239390Y77295045D01*
X46172677Y77456105D01*
X46075824Y77601055D01*
X45973300Y77703579D01*
X45973300Y79414795D01*
X46080455Y79370410D01*
X46251435Y79336400D01*
X46425765Y79336400D01*
X46596745Y79370410D01*
X46757805Y79437123D01*
X46825001Y79482022D01*
X46825001Y67530848D01*
G37*
G04 #@! TD.AperFunction*
D23*
X33745748Y60415142D02*
X33731605Y60401000D01*
X33745748Y60386857D01*
X33566143Y60207252D01*
X33552000Y60221395D01*
X33537858Y60207252D01*
X33358253Y60386857D01*
X33372395Y60401000D01*
X33358253Y60415142D01*
X33537858Y60594747D01*
X33552000Y60580605D01*
X33566143Y60594747D01*
X33745748Y60415142D01*
G04 #@! TA.AperFunction,Conductor*
D24*
G36*
X33745748Y60415142D02*
G01*
X33731605Y60401000D01*
X33745748Y60386857D01*
X33566143Y60207252D01*
X33552000Y60221395D01*
X33537858Y60207252D01*
X33358253Y60386857D01*
X33372395Y60401000D01*
X33358253Y60415142D01*
X33537858Y60594747D01*
X33552000Y60580605D01*
X33566143Y60594747D01*
X33745748Y60415142D01*
G37*
G04 #@! TD.AperFunction*
D23*
X34930748Y105896142D02*
X34916605Y105882000D01*
X35729702Y105068903D01*
X35973671Y105140486D01*
X35998883Y105193770D01*
X36388400Y104804253D01*
X36388401Y102054815D01*
X36384844Y102018700D01*
X36399035Y101874615D01*
X36430522Y101770820D01*
X36441064Y101736067D01*
X36509314Y101608380D01*
X36601163Y101496462D01*
X36629208Y101473446D01*
X37400546Y100702107D01*
X37423562Y100674062D01*
X37535480Y100582213D01*
X37663167Y100513963D01*
X37801715Y100471935D01*
X37909695Y100461300D01*
X37909704Y100461300D01*
X37945799Y100457745D01*
X37981894Y100461300D01*
X38365854Y100461300D01*
X40496304Y98330849D01*
X40469000Y98336000D01*
X40069000Y98336000D01*
X40069000Y97028000D01*
X40089000Y97028000D01*
X40089000Y96774000D01*
X40069000Y96774000D01*
X40069000Y96754000D01*
X39815000Y96754000D01*
X39815000Y96774000D01*
X38272085Y96774000D01*
X38150096Y96551961D01*
X38167633Y96469182D01*
X38278285Y96209354D01*
X38437500Y95976105D01*
X38444346Y95969393D01*
X34033008Y91558054D01*
X34004963Y91535038D01*
X33930100Y91443817D01*
X33930100Y97250039D01*
X38150096Y97250039D01*
X38272085Y97028000D01*
X39815000Y97028000D01*
X39815000Y98336000D01*
X39415000Y98336000D01*
X39137486Y98283650D01*
X38875517Y98178166D01*
X38639161Y98023601D01*
X38437500Y97825895D01*
X38278285Y97592646D01*
X38167633Y97332818D01*
X38150096Y97250039D01*
X33930100Y97250039D01*
X33930100Y104868177D01*
X33995486Y104645329D01*
X34250996Y104524429D01*
X34525184Y104455700D01*
X34807512Y104441783D01*
X35087130Y104483213D01*
X35353292Y104578397D01*
X35478514Y104645329D01*
X35550097Y104889298D01*
X34737000Y105702395D01*
X34722858Y105688252D01*
X34543253Y105867857D01*
X34557395Y105882000D01*
X34543253Y105896142D01*
X34722858Y106075747D01*
X34737000Y106061605D01*
X34751143Y106075747D01*
X34930748Y105896142D01*
G04 #@! TA.AperFunction,Conductor*
D24*
G36*
X34930748Y105896142D02*
G01*
X34916605Y105882000D01*
X35729702Y105068903D01*
X35973671Y105140486D01*
X35998883Y105193770D01*
X36388400Y104804253D01*
X36388401Y102054815D01*
X36384844Y102018700D01*
X36399035Y101874615D01*
X36430522Y101770820D01*
X36441064Y101736067D01*
X36509314Y101608380D01*
X36601163Y101496462D01*
X36629208Y101473446D01*
X37400546Y100702107D01*
X37423562Y100674062D01*
X37535480Y100582213D01*
X37663167Y100513963D01*
X37801715Y100471935D01*
X37909695Y100461300D01*
X37909704Y100461300D01*
X37945799Y100457745D01*
X37981894Y100461300D01*
X38365854Y100461300D01*
X40496304Y98330849D01*
X40469000Y98336000D01*
X40069000Y98336000D01*
X40069000Y97028000D01*
X40089000Y97028000D01*
X40089000Y96774000D01*
X40069000Y96774000D01*
X40069000Y96754000D01*
X39815000Y96754000D01*
X39815000Y96774000D01*
X38272085Y96774000D01*
X38150096Y96551961D01*
X38167633Y96469182D01*
X38278285Y96209354D01*
X38437500Y95976105D01*
X38444346Y95969393D01*
X34033008Y91558054D01*
X34004963Y91535038D01*
X33930100Y91443817D01*
X33930100Y97250039D01*
X38150096Y97250039D01*
X38272085Y97028000D01*
X39815000Y97028000D01*
X39815000Y98336000D01*
X39415000Y98336000D01*
X39137486Y98283650D01*
X38875517Y98178166D01*
X38639161Y98023601D01*
X38437500Y97825895D01*
X38278285Y97592646D01*
X38167633Y97332818D01*
X38150096Y97250039D01*
X33930100Y97250039D01*
X33930100Y104868177D01*
X33995486Y104645329D01*
X34250996Y104524429D01*
X34525184Y104455700D01*
X34807512Y104441783D01*
X35087130Y104483213D01*
X35353292Y104578397D01*
X35478514Y104645329D01*
X35550097Y104889298D01*
X34737000Y105702395D01*
X34722858Y105688252D01*
X34543253Y105867857D01*
X34557395Y105882000D01*
X34543253Y105896142D01*
X34722858Y106075747D01*
X34737000Y106061605D01*
X34751143Y106075747D01*
X34930748Y105896142D01*
G37*
G04 #@! TD.AperFunction*
D23*
X30518692Y109020764D02*
X30800000Y108993057D01*
X31081309Y109020764D01*
X31185901Y109052491D01*
X31185901Y104999095D01*
X31149039Y105006904D01*
X30927000Y104884915D01*
X30927000Y103342000D01*
X30947000Y103342000D01*
X30947000Y103088000D01*
X30927000Y103088000D01*
X30927000Y101545085D01*
X31149039Y101423096D01*
X31185900Y101430905D01*
X31185900Y92906847D01*
X30406700Y92127646D01*
X30406700Y101432473D01*
X30450961Y101423096D01*
X30673000Y101545085D01*
X30673000Y103088000D01*
X30653000Y103088000D01*
X30653000Y103342000D01*
X30673000Y103342000D01*
X30673000Y104884915D01*
X30450961Y105006904D01*
X30406700Y104997527D01*
X30406700Y109054736D01*
X30518692Y109020764D01*
G04 #@! TA.AperFunction,Conductor*
D24*
G36*
X30518692Y109020764D02*
G01*
X30800000Y108993057D01*
X31081309Y109020764D01*
X31185901Y109052491D01*
X31185901Y104999095D01*
X31149039Y105006904D01*
X30927000Y104884915D01*
X30927000Y103342000D01*
X30947000Y103342000D01*
X30947000Y103088000D01*
X30927000Y103088000D01*
X30927000Y101545085D01*
X31149039Y101423096D01*
X31185900Y101430905D01*
X31185900Y92906847D01*
X30406700Y92127646D01*
X30406700Y101432473D01*
X30450961Y101423096D01*
X30673000Y101545085D01*
X30673000Y103088000D01*
X30653000Y103088000D01*
X30653000Y103342000D01*
X30673000Y103342000D01*
X30673000Y104884915D01*
X30450961Y105006904D01*
X30406700Y104997527D01*
X30406700Y109054736D01*
X30518692Y109020764D01*
G37*
G04 #@! TD.AperFunction*
D23*
X54013300Y105015247D02*
X53996039Y105018904D01*
X53774000Y104896915D01*
X53774000Y103354000D01*
X53794000Y103354000D01*
X53794000Y103100000D01*
X53774000Y103100000D01*
X53774000Y101557085D01*
X53996039Y101435096D01*
X54013300Y101438753D01*
X54013300Y99539947D01*
X52796634Y98323280D01*
X52667492Y98336000D01*
X51726508Y98336000D01*
X51515691Y98315236D01*
X51245192Y98233182D01*
X50995899Y98099932D01*
X50777392Y97920608D01*
X50598068Y97702101D01*
X50464818Y97452808D01*
X50382764Y97182309D01*
X50355057Y96901000D01*
X50382764Y96619691D01*
X50464818Y96349192D01*
X50551665Y96186712D01*
X48295000Y93930046D01*
X48295000Y95755154D01*
X52871193Y100331346D01*
X52899238Y100354362D01*
X52991087Y100466280D01*
X53008927Y100499656D01*
X53059337Y100593966D01*
X53101365Y100732515D01*
X53115556Y100876600D01*
X53112000Y100912705D01*
X53112000Y101496575D01*
X53215182Y101452633D01*
X53297961Y101435096D01*
X53520000Y101557085D01*
X53520000Y103100000D01*
X53500000Y103100000D01*
X53500000Y103354000D01*
X53520000Y103354000D01*
X53520000Y104896915D01*
X53297961Y105018904D01*
X53215182Y105001367D01*
X53112000Y104957425D01*
X53112000Y107772254D01*
X54013301Y108673554D01*
X54013300Y105015247D01*
G04 #@! TA.AperFunction,Conductor*
D24*
G36*
X54013300Y105015247D02*
G01*
X53996039Y105018904D01*
X53774000Y104896915D01*
X53774000Y103354000D01*
X53794000Y103354000D01*
X53794000Y103100000D01*
X53774000Y103100000D01*
X53774000Y101557085D01*
X53996039Y101435096D01*
X54013300Y101438753D01*
X54013300Y99539947D01*
X52796634Y98323280D01*
X52667492Y98336000D01*
X51726508Y98336000D01*
X51515691Y98315236D01*
X51245192Y98233182D01*
X50995899Y98099932D01*
X50777392Y97920608D01*
X50598068Y97702101D01*
X50464818Y97452808D01*
X50382764Y97182309D01*
X50355057Y96901000D01*
X50382764Y96619691D01*
X50464818Y96349192D01*
X50551665Y96186712D01*
X48295000Y93930046D01*
X48295000Y95755154D01*
X52871193Y100331346D01*
X52899238Y100354362D01*
X52991087Y100466280D01*
X53008927Y100499656D01*
X53059337Y100593966D01*
X53101365Y100732515D01*
X53115556Y100876600D01*
X53112000Y100912705D01*
X53112000Y101496575D01*
X53215182Y101452633D01*
X53297961Y101435096D01*
X53520000Y101557085D01*
X53520000Y103100000D01*
X53500000Y103100000D01*
X53500000Y103354000D01*
X53520000Y103354000D01*
X53520000Y104896915D01*
X53297961Y105018904D01*
X53215182Y105001367D01*
X53112000Y104957425D01*
X53112000Y107772254D01*
X54013301Y108673554D01*
X54013300Y105015247D01*
G37*
G04 #@! TD.AperFunction*
D23*
X25168193Y109102818D02*
X25438692Y109020764D01*
X25720000Y108993057D01*
X26001309Y109020764D01*
X26109801Y109053674D01*
X26109801Y104998268D01*
X26069039Y105006904D01*
X25847000Y104884915D01*
X25847000Y103342000D01*
X25867000Y103342000D01*
X25867000Y103088000D01*
X25847000Y103088000D01*
X25847000Y101545085D01*
X26069039Y101423096D01*
X26109801Y101431731D01*
X26109801Y97930298D01*
X25903101Y98099932D01*
X25653808Y98233182D01*
X25383309Y98315236D01*
X25172492Y98336000D01*
X24231508Y98336000D01*
X24020691Y98315236D01*
X23750192Y98233182D01*
X23532800Y98116983D01*
X23532800Y99041254D01*
X24786497Y100294950D01*
X24814537Y100317962D01*
X24837550Y100346003D01*
X24837553Y100346006D01*
X24904214Y100427232D01*
X24906387Y100429880D01*
X24974637Y100557567D01*
X25016665Y100696115D01*
X25027300Y100804095D01*
X25027300Y100804102D01*
X25030855Y100840199D01*
X25027300Y100876296D01*
X25027300Y101552004D01*
X25028354Y101551285D01*
X25288182Y101440633D01*
X25370961Y101423096D01*
X25593000Y101545085D01*
X25593000Y103088000D01*
X25573000Y103088000D01*
X25573000Y103342000D01*
X25593000Y103342000D01*
X25593000Y104884915D01*
X25370961Y105006904D01*
X25288182Y104989367D01*
X25028354Y104878715D01*
X25027300Y104877996D01*
X25027300Y109178127D01*
X25168193Y109102818D01*
G04 #@! TA.AperFunction,Conductor*
D24*
G36*
X25168193Y109102818D02*
G01*
X25438692Y109020764D01*
X25720000Y108993057D01*
X26001309Y109020764D01*
X26109801Y109053674D01*
X26109801Y104998268D01*
X26069039Y105006904D01*
X25847000Y104884915D01*
X25847000Y103342000D01*
X25867000Y103342000D01*
X25867000Y103088000D01*
X25847000Y103088000D01*
X25847000Y101545085D01*
X26069039Y101423096D01*
X26109801Y101431731D01*
X26109801Y97930298D01*
X25903101Y98099932D01*
X25653808Y98233182D01*
X25383309Y98315236D01*
X25172492Y98336000D01*
X24231508Y98336000D01*
X24020691Y98315236D01*
X23750192Y98233182D01*
X23532800Y98116983D01*
X23532800Y99041254D01*
X24786497Y100294950D01*
X24814537Y100317962D01*
X24837550Y100346003D01*
X24837553Y100346006D01*
X24904214Y100427232D01*
X24906387Y100429880D01*
X24974637Y100557567D01*
X25016665Y100696115D01*
X25027300Y100804095D01*
X25027300Y100804102D01*
X25030855Y100840199D01*
X25027300Y100876296D01*
X25027300Y101552004D01*
X25028354Y101551285D01*
X25288182Y101440633D01*
X25370961Y101423096D01*
X25593000Y101545085D01*
X25593000Y103088000D01*
X25573000Y103088000D01*
X25573000Y103342000D01*
X25593000Y103342000D01*
X25593000Y104884915D01*
X25370961Y105006904D01*
X25288182Y104989367D01*
X25028354Y104878715D01*
X25027300Y104877996D01*
X25027300Y109178127D01*
X25168193Y109102818D01*
G37*
G04 #@! TD.AperFunction*
M02*
