M48
; DRILL file {KiCad (5.1.9)-1} date 11/26/22 13:47:35
; FORMAT={-:-/ absolute / metric / decimal}
; #@! TF.CreationDate,2022-11-26T13:47:35+09:00
; #@! TF.GenerationSoftware,Kicad,Pcbnew,(5.1.9)-1
FMAT,2
METRIC
T1C0.800
T2C1.000
%
G90
G05
T1
X3.06Y19.0
X3.06Y3.76
X5.6Y19.0
X5.6Y3.76
X8.14Y19.0
X8.14Y3.76
X10.68Y19.0
X10.68Y3.76
X13.22Y19.0
X13.22Y3.76
X15.76Y19.0
X15.76Y3.76
X18.3Y19.0
X18.3Y3.76
X20.84Y19.0
X20.84Y3.76
X23.38Y19.0
X23.38Y3.76
X25.92Y19.0
X25.92Y3.76
X28.46Y19.0
X28.46Y3.76
X31.0Y19.0
X31.0Y3.76
X34.98Y19.0
X34.98Y3.76
X37.52Y19.0
X37.52Y3.76
X40.06Y19.0
X40.06Y3.76
X42.6Y19.0
X42.6Y3.76
X45.14Y19.0
X45.14Y3.76
X47.68Y19.0
X47.68Y3.76
X50.22Y19.0
X50.22Y3.76
X52.76Y19.0
X52.76Y3.76
X55.3Y19.0
X55.3Y3.76
X57.84Y19.0
X57.84Y3.76
X60.38Y19.0
X60.38Y3.76
X62.92Y19.0
X62.92Y3.76
X65.46Y19.0
X65.46Y3.76
X68.0Y19.0
X68.0Y3.76
T2
X73.0Y18.0
X73.0Y15.46
X73.0Y12.92
X73.0Y9.0
X73.0Y6.46
X73.0Y3.92
T0
M30
