G04 #@! TF.GenerationSoftware,KiCad,Pcbnew,(5.1.9)-1*
G04 #@! TF.CreationDate,2022-11-24T18:24:52+09:00*
G04 #@! TF.ProjectId,ROMCHG,524f4d43-4847-42e6-9b69-6361645f7063,rev?*
G04 #@! TF.SameCoordinates,PX53920b0PYad82f20*
G04 #@! TF.FileFunction,Legend,Top*
G04 #@! TF.FilePolarity,Positive*
%FSLAX46Y46*%
G04 Gerber Fmt 4.6, Leading zero omitted, Abs format (unit mm)*
G04 Created by KiCad (PCBNEW (5.1.9)-1) date 2022-11-24 18:24:52*
%MOMM*%
%LPD*%
G01*
G04 APERTURE LIST*
%ADD10C,0.175000*%
%ADD11C,0.300000*%
%ADD12C,0.120000*%
%ADD13C,0.150000*%
G04 APERTURE END LIST*
D10*
X76542857Y2000000D02*
X75342857Y2000000D01*
X75914285Y2000000D02*
X75914285Y2400000D01*
X76542857Y2400000D02*
X75342857Y2400000D01*
X76542857Y2733334D02*
X75742857Y2733334D01*
X75342857Y2733334D02*
X75400000Y2700000D01*
X75457142Y2733334D01*
X75400000Y2766667D01*
X75342857Y2733334D01*
X75457142Y2733334D01*
X75742857Y3366667D02*
X76714285Y3366667D01*
X76828571Y3333334D01*
X76885714Y3300000D01*
X76942857Y3233334D01*
X76942857Y3133334D01*
X76885714Y3066667D01*
X76485714Y3366667D02*
X76542857Y3300000D01*
X76542857Y3166667D01*
X76485714Y3100000D01*
X76428571Y3066667D01*
X76314285Y3033334D01*
X75971428Y3033334D01*
X75857142Y3066667D01*
X75800000Y3100000D01*
X75742857Y3166667D01*
X75742857Y3300000D01*
X75800000Y3366667D01*
X76542857Y3700000D02*
X75342857Y3700000D01*
X76542857Y4000000D02*
X75914285Y4000000D01*
X75800000Y3966667D01*
X75742857Y3900000D01*
X75742857Y3800000D01*
X75800000Y3733334D01*
X75857142Y3700000D01*
X76200000Y5366667D02*
X76200000Y5700000D01*
X76542857Y5300000D02*
X75342857Y5533334D01*
X76542857Y5766667D01*
X76542857Y6366667D02*
X76542857Y5966667D01*
X76542857Y6166667D02*
X75342857Y6166667D01*
X75514285Y6100000D01*
X75628571Y6033334D01*
X75685714Y5966667D01*
X75742857Y6966667D02*
X76542857Y6966667D01*
X75285714Y6800000D02*
X76142857Y6633334D01*
X76142857Y7066667D01*
X76542857Y8733334D02*
X76542857Y8400000D01*
X75342857Y8400000D01*
X76542857Y9066667D02*
X76485714Y9000000D01*
X76428571Y8966667D01*
X76314285Y8933334D01*
X75971428Y8933334D01*
X75857142Y8966667D01*
X75800000Y9000000D01*
X75742857Y9066667D01*
X75742857Y9166667D01*
X75800000Y9233334D01*
X75857142Y9266667D01*
X75971428Y9300000D01*
X76314285Y9300000D01*
X76428571Y9266667D01*
X76485714Y9233334D01*
X76542857Y9166667D01*
X76542857Y9066667D01*
X75742857Y9533334D02*
X76542857Y9666667D01*
X75971428Y9800000D01*
X76542857Y9933334D01*
X75742857Y10066667D01*
X76542857Y11000000D02*
X75342857Y11000000D01*
X75914285Y11000000D02*
X75914285Y11400000D01*
X76542857Y11400000D02*
X75342857Y11400000D01*
X76542857Y11733334D02*
X75742857Y11733334D01*
X75342857Y11733334D02*
X75400000Y11700000D01*
X75457142Y11733334D01*
X75400000Y11766667D01*
X75342857Y11733334D01*
X75457142Y11733334D01*
X75742857Y12366667D02*
X76714285Y12366667D01*
X76828571Y12333334D01*
X76885714Y12300000D01*
X76942857Y12233334D01*
X76942857Y12133334D01*
X76885714Y12066667D01*
X76485714Y12366667D02*
X76542857Y12300000D01*
X76542857Y12166667D01*
X76485714Y12100000D01*
X76428571Y12066667D01*
X76314285Y12033334D01*
X75971428Y12033334D01*
X75857142Y12066667D01*
X75800000Y12100000D01*
X75742857Y12166667D01*
X75742857Y12300000D01*
X75800000Y12366667D01*
X76542857Y12700000D02*
X75342857Y12700000D01*
X76542857Y13000000D02*
X75914285Y13000000D01*
X75800000Y12966667D01*
X75742857Y12900000D01*
X75742857Y12800000D01*
X75800000Y12733334D01*
X75857142Y12700000D01*
X76200000Y14366667D02*
X76200000Y14700000D01*
X76542857Y14300000D02*
X75342857Y14533334D01*
X76542857Y14766667D01*
X76542857Y15366667D02*
X76542857Y14966667D01*
X76542857Y15166667D02*
X75342857Y15166667D01*
X75514285Y15100000D01*
X75628571Y15033334D01*
X75685714Y14966667D01*
X75342857Y15600000D02*
X75342857Y16033334D01*
X75800000Y15800000D01*
X75800000Y15900000D01*
X75857142Y15966667D01*
X75914285Y16000000D01*
X76028571Y16033334D01*
X76314285Y16033334D01*
X76428571Y16000000D01*
X76485714Y15966667D01*
X76542857Y15900000D01*
X76542857Y15700000D01*
X76485714Y15633334D01*
X76428571Y15600000D01*
X76542857Y17733334D02*
X76542857Y17400000D01*
X75342857Y17400000D01*
X76542857Y18066667D02*
X76485714Y18000000D01*
X76428571Y17966667D01*
X76314285Y17933334D01*
X75971428Y17933334D01*
X75857142Y17966667D01*
X75800000Y18000000D01*
X75742857Y18066667D01*
X75742857Y18166667D01*
X75800000Y18233334D01*
X75857142Y18266667D01*
X75971428Y18300000D01*
X76314285Y18300000D01*
X76428571Y18266667D01*
X76485714Y18233334D01*
X76542857Y18166667D01*
X76542857Y18066667D01*
X75742857Y18533334D02*
X76542857Y18666667D01*
X75971428Y18800000D01*
X76542857Y18933334D01*
X75742857Y19066667D01*
D11*
X42857142Y11678572D02*
X42928571Y11750000D01*
X43071428Y11821429D01*
X43428571Y11821429D01*
X43571428Y11750000D01*
X43642857Y11678572D01*
X43714285Y11535715D01*
X43714285Y11392858D01*
X43642857Y11178572D01*
X42785714Y10321429D01*
X43714285Y10321429D01*
X44214285Y11821429D02*
X45214285Y11821429D01*
X44571428Y10321429D01*
X46571428Y10321429D02*
X45714285Y10321429D01*
X46142857Y10321429D02*
X46142857Y11821429D01*
X46000000Y11607143D01*
X45857142Y11464286D01*
X45714285Y11392858D01*
X47142857Y11678572D02*
X47214285Y11750000D01*
X47357142Y11821429D01*
X47714285Y11821429D01*
X47857142Y11750000D01*
X47928571Y11678572D01*
X48000000Y11535715D01*
X48000000Y11392858D01*
X47928571Y11178572D01*
X47071428Y10321429D01*
X48000000Y10321429D01*
X48857142Y11178572D02*
X48714285Y11250000D01*
X48642857Y11321429D01*
X48571428Y11464286D01*
X48571428Y11535715D01*
X48642857Y11678572D01*
X48714285Y11750000D01*
X48857142Y11821429D01*
X49142857Y11821429D01*
X49285714Y11750000D01*
X49357142Y11678572D01*
X49428571Y11535715D01*
X49428571Y11464286D01*
X49357142Y11321429D01*
X49285714Y11250000D01*
X49142857Y11178572D01*
X48857142Y11178572D01*
X48714285Y11107143D01*
X48642857Y11035715D01*
X48571428Y10892858D01*
X48571428Y10607143D01*
X48642857Y10464286D01*
X48714285Y10392858D01*
X48857142Y10321429D01*
X49142857Y10321429D01*
X49285714Y10392858D01*
X49357142Y10464286D01*
X49428571Y10607143D01*
X49428571Y10892858D01*
X49357142Y11035715D01*
X49285714Y11107143D01*
X49142857Y11178572D01*
X51428571Y10321429D02*
X51285714Y10392858D01*
X51214285Y10464286D01*
X51142857Y10607143D01*
X51142857Y11035715D01*
X51214285Y11178572D01*
X51285714Y11250000D01*
X51428571Y11321429D01*
X51642857Y11321429D01*
X51785714Y11250000D01*
X51857142Y11178572D01*
X51928571Y11035715D01*
X51928571Y10607143D01*
X51857142Y10464286D01*
X51785714Y10392858D01*
X51642857Y10321429D01*
X51428571Y10321429D01*
X52571428Y10321429D02*
X52571428Y11321429D01*
X52571428Y11035715D02*
X52642857Y11178572D01*
X52714285Y11250000D01*
X52857142Y11321429D01*
X53000000Y11321429D01*
X54571428Y11678572D02*
X54642857Y11750000D01*
X54785714Y11821429D01*
X55142857Y11821429D01*
X55285714Y11750000D01*
X55357142Y11678572D01*
X55428571Y11535715D01*
X55428571Y11392858D01*
X55357142Y11178572D01*
X54500000Y10321429D01*
X55428571Y10321429D01*
X55928571Y11821429D02*
X56928571Y11821429D01*
X56285714Y10321429D01*
X57428571Y11678572D02*
X57500000Y11750000D01*
X57642857Y11821429D01*
X58000000Y11821429D01*
X58142857Y11750000D01*
X58214285Y11678572D01*
X58285714Y11535715D01*
X58285714Y11392858D01*
X58214285Y11178572D01*
X57357142Y10321429D01*
X58285714Y10321429D01*
X59642857Y11821429D02*
X58928571Y11821429D01*
X58857142Y11107143D01*
X58928571Y11178572D01*
X59071428Y11250000D01*
X59428571Y11250000D01*
X59571428Y11178572D01*
X59642857Y11107143D01*
X59714285Y10964286D01*
X59714285Y10607143D01*
X59642857Y10464286D01*
X59571428Y10392858D01*
X59428571Y10321429D01*
X59071428Y10321429D01*
X58928571Y10392858D01*
X58857142Y10464286D01*
X61000000Y11821429D02*
X60714285Y11821429D01*
X60571428Y11750000D01*
X60500000Y11678572D01*
X60357142Y11464286D01*
X60285714Y11178572D01*
X60285714Y10607143D01*
X60357142Y10464286D01*
X60428571Y10392858D01*
X60571428Y10321429D01*
X60857142Y10321429D01*
X61000000Y10392858D01*
X61071428Y10464286D01*
X61142857Y10607143D01*
X61142857Y10964286D01*
X61071428Y11107143D01*
X61000000Y11178572D01*
X60857142Y11250000D01*
X60571428Y11250000D01*
X60428571Y11178572D01*
X60357142Y11107143D01*
X60285714Y10964286D01*
X9928571Y11678572D02*
X9999999Y11750000D01*
X10142857Y11821429D01*
X10499999Y11821429D01*
X10642857Y11750000D01*
X10714285Y11678572D01*
X10785714Y11535715D01*
X10785714Y11392858D01*
X10714285Y11178572D01*
X9857142Y10321429D01*
X10785714Y10321429D01*
X11285714Y11821429D02*
X12214285Y11821429D01*
X11714285Y11250000D01*
X11928571Y11250000D01*
X12071428Y11178572D01*
X12142857Y11107143D01*
X12214285Y10964286D01*
X12214285Y10607143D01*
X12142857Y10464286D01*
X12071428Y10392858D01*
X11928571Y10321429D01*
X11499999Y10321429D01*
X11357142Y10392858D01*
X11285714Y10464286D01*
X13499999Y11821429D02*
X13214285Y11821429D01*
X13071428Y11750000D01*
X12999999Y11678572D01*
X12857142Y11464286D01*
X12785714Y11178572D01*
X12785714Y10607143D01*
X12857142Y10464286D01*
X12928571Y10392858D01*
X13071428Y10321429D01*
X13357142Y10321429D01*
X13499999Y10392858D01*
X13571428Y10464286D01*
X13642857Y10607143D01*
X13642857Y10964286D01*
X13571428Y11107143D01*
X13499999Y11178572D01*
X13357142Y11250000D01*
X13071428Y11250000D01*
X12928571Y11178572D01*
X12857142Y11107143D01*
X12785714Y10964286D01*
X14928571Y11321429D02*
X14928571Y10321429D01*
X14571428Y11892858D02*
X14214285Y10821429D01*
X15142857Y10821429D01*
X16857142Y10321429D02*
X16857142Y11821429D01*
X18428571Y10464286D02*
X18357142Y10392858D01*
X18142857Y10321429D01*
X17999999Y10321429D01*
X17785714Y10392858D01*
X17642857Y10535715D01*
X17571428Y10678572D01*
X17499999Y10964286D01*
X17499999Y11178572D01*
X17571428Y11464286D01*
X17642857Y11607143D01*
X17785714Y11750000D01*
X17999999Y11821429D01*
X18142857Y11821429D01*
X18357142Y11750000D01*
X18428571Y11678572D01*
X20142857Y10392858D02*
X20357142Y10321429D01*
X20714285Y10321429D01*
X20857142Y10392858D01*
X20928571Y10464286D01*
X20999999Y10607143D01*
X20999999Y10750000D01*
X20928571Y10892858D01*
X20857142Y10964286D01*
X20714285Y11035715D01*
X20428571Y11107143D01*
X20285714Y11178572D01*
X20214285Y11250000D01*
X20142857Y11392858D01*
X20142857Y11535715D01*
X20214285Y11678572D01*
X20285714Y11750000D01*
X20428571Y11821429D01*
X20785714Y11821429D01*
X20999999Y11750000D01*
X21928571Y11821429D02*
X22214285Y11821429D01*
X22357142Y11750000D01*
X22499999Y11607143D01*
X22571428Y11321429D01*
X22571428Y10821429D01*
X22499999Y10535715D01*
X22357142Y10392858D01*
X22214285Y10321429D01*
X21928571Y10321429D01*
X21785714Y10392858D01*
X21642857Y10535715D01*
X21571428Y10821429D01*
X21571428Y11321429D01*
X21642857Y11607143D01*
X21785714Y11750000D01*
X21928571Y11821429D01*
X24071428Y10464286D02*
X23999999Y10392858D01*
X23785714Y10321429D01*
X23642857Y10321429D01*
X23428571Y10392858D01*
X23285714Y10535715D01*
X23214285Y10678572D01*
X23142857Y10964286D01*
X23142857Y11178572D01*
X23214285Y11464286D01*
X23285714Y11607143D01*
X23428571Y11750000D01*
X23642857Y11821429D01*
X23785714Y11821429D01*
X23999999Y11750000D01*
X24071428Y11678572D01*
X24714285Y10321429D02*
X24714285Y11821429D01*
X25571428Y10321429D02*
X24928571Y11178572D01*
X25571428Y11821429D02*
X24714285Y10964286D01*
X26214285Y11107143D02*
X26714285Y11107143D01*
X26928571Y10321429D02*
X26214285Y10321429D01*
X26214285Y11821429D01*
X26928571Y11821429D01*
X27357142Y11821429D02*
X28214285Y11821429D01*
X27785714Y10321429D02*
X27785714Y11821429D01*
D12*
X71670000Y10330000D02*
X73000000Y10330000D01*
X71670000Y9000000D02*
X71670000Y10330000D01*
X71670000Y7730000D02*
X74330000Y7730000D01*
X74330000Y7730000D02*
X74330000Y2590000D01*
X71670000Y7730000D02*
X71670000Y2590000D01*
X71670000Y2590000D02*
X74330000Y2590000D01*
X71670000Y11590000D02*
X74330000Y11590000D01*
X71670000Y16730000D02*
X71670000Y11590000D01*
X74330000Y16730000D02*
X74330000Y11590000D01*
X71670000Y16730000D02*
X74330000Y16730000D01*
X71670000Y18000000D02*
X71670000Y19330000D01*
X71670000Y19330000D02*
X73000000Y19330000D01*
X69330000Y12380000D02*
X69330000Y17440000D01*
X69330000Y17440000D02*
X33650000Y17440000D01*
X33650000Y17440000D02*
X33650000Y5320000D01*
X33650000Y5320000D02*
X69330000Y5320000D01*
X69330000Y5320000D02*
X69330000Y10380000D01*
X69330000Y10380000D02*
G75*
G02*
X69330000Y12380000I0J1000000D01*
G01*
X32330000Y12380000D02*
X32330000Y17440000D01*
X32330000Y17440000D02*
X1730000Y17440000D01*
X1730000Y17440000D02*
X1730000Y5320000D01*
X1730000Y5320000D02*
X32330000Y5320000D01*
X32330000Y5320000D02*
X32330000Y10380000D01*
X32330000Y10380000D02*
G75*
G02*
X32330000Y12380000I0J1000000D01*
G01*
D13*
X71404761Y5238096D02*
X71452380Y5380953D01*
X71452380Y5619048D01*
X71404761Y5714286D01*
X71357142Y5761905D01*
X71261904Y5809524D01*
X71166666Y5809524D01*
X71071428Y5761905D01*
X71023809Y5714286D01*
X70976190Y5619048D01*
X70928571Y5428572D01*
X70880952Y5333334D01*
X70833333Y5285715D01*
X70738095Y5238096D01*
X70642857Y5238096D01*
X70547619Y5285715D01*
X70500000Y5333334D01*
X70452380Y5428572D01*
X70452380Y5666667D01*
X70500000Y5809524D01*
X71452380Y6761905D02*
X71452380Y6190477D01*
X71452380Y6476191D02*
X70452380Y6476191D01*
X70595238Y6380953D01*
X70690476Y6285715D01*
X70738095Y6190477D01*
X71404761Y13238096D02*
X71452380Y13380953D01*
X71452380Y13619048D01*
X71404761Y13714286D01*
X71357142Y13761905D01*
X71261904Y13809524D01*
X71166666Y13809524D01*
X71071428Y13761905D01*
X71023809Y13714286D01*
X70976190Y13619048D01*
X70928571Y13428572D01*
X70880952Y13333334D01*
X70833333Y13285715D01*
X70738095Y13238096D01*
X70642857Y13238096D01*
X70547619Y13285715D01*
X70500000Y13333334D01*
X70452380Y13428572D01*
X70452380Y13666667D01*
X70500000Y13809524D01*
X70547619Y14190477D02*
X70500000Y14238096D01*
X70452380Y14333334D01*
X70452380Y14571429D01*
X70500000Y14666667D01*
X70547619Y14714286D01*
X70642857Y14761905D01*
X70738095Y14761905D01*
X70880952Y14714286D01*
X71452380Y14142858D01*
X71452380Y14761905D01*
X38238095Y11927620D02*
X38238095Y11118096D01*
X38285714Y11022858D01*
X38333333Y10975239D01*
X38428571Y10927620D01*
X38619047Y10927620D01*
X38714285Y10975239D01*
X38761904Y11022858D01*
X38809523Y11118096D01*
X38809523Y11927620D01*
X39809523Y10927620D02*
X39238095Y10927620D01*
X39523809Y10927620D02*
X39523809Y11927620D01*
X39428571Y11784762D01*
X39333333Y11689524D01*
X39238095Y11641905D01*
X5238095Y11547620D02*
X5238095Y10738096D01*
X5285714Y10642858D01*
X5333333Y10595239D01*
X5428571Y10547620D01*
X5619047Y10547620D01*
X5714285Y10595239D01*
X5761904Y10642858D01*
X5809523Y10738096D01*
X5809523Y11547620D01*
X6238095Y11452381D02*
X6285714Y11500000D01*
X6380952Y11547620D01*
X6619047Y11547620D01*
X6714285Y11500000D01*
X6761904Y11452381D01*
X6809523Y11357143D01*
X6809523Y11261905D01*
X6761904Y11119048D01*
X6190476Y10547620D01*
X6809523Y10547620D01*
M02*
