G04 #@! TF.GenerationSoftware,KiCad,Pcbnew,(5.1.9)-1*
G04 #@! TF.CreationDate,2022-11-24T18:27:01+09:00*
G04 #@! TF.ProjectId,ROMCHG-PNL,524f4d43-4847-42d5-904e-4c2e6b696361,rev?*
G04 #@! TF.SameCoordinates,PX1c9ea90PY98919e0*
G04 #@! TF.FileFunction,Legend,Bot*
G04 #@! TF.FilePolarity,Positive*
%FSLAX46Y46*%
G04 Gerber Fmt 4.6, Leading zero omitted, Abs format (unit mm)*
G04 Created by KiCad (PCBNEW (5.1.9)-1) date 2022-11-24 18:27:01*
%MOMM*%
%LPD*%
G01*
G04 APERTURE LIST*
%ADD10C,0.150000*%
G04 APERTURE END LIST*
D10*
X-10357143Y72547620D02*
X-10023810Y71547620D01*
X-9690477Y72547620D01*
X-9357143Y71928572D02*
X-8595239Y71928572D01*
X-7547620Y71642858D02*
X-7595239Y71595239D01*
X-7738096Y71547620D01*
X-7833334Y71547620D01*
X-7976191Y71595239D01*
X-8071429Y71690477D01*
X-8119048Y71785715D01*
X-8166667Y71976191D01*
X-8166667Y72119048D01*
X-8119048Y72309524D01*
X-8071429Y72404762D01*
X-7976191Y72500000D01*
X-7833334Y72547620D01*
X-7738096Y72547620D01*
X-7595239Y72500000D01*
X-7547620Y72452381D01*
X-7119048Y72547620D02*
X-7119048Y71738096D01*
X-7071429Y71642858D01*
X-7023810Y71595239D01*
X-6928572Y71547620D01*
X-6738096Y71547620D01*
X-6642858Y71595239D01*
X-6595239Y71642858D01*
X-6547620Y71738096D01*
X-6547620Y72547620D01*
X-6214286Y72547620D02*
X-5642858Y72547620D01*
X-5928572Y71547620D02*
X-5928572Y72547620D01*
X83642857Y72547620D02*
X83976190Y71547620D01*
X84309523Y72547620D01*
X84642857Y71928572D02*
X85404761Y71928572D01*
X86452380Y71642858D02*
X86404761Y71595239D01*
X86261904Y71547620D01*
X86166666Y71547620D01*
X86023809Y71595239D01*
X85928571Y71690477D01*
X85880952Y71785715D01*
X85833333Y71976191D01*
X85833333Y72119048D01*
X85880952Y72309524D01*
X85928571Y72404762D01*
X86023809Y72500000D01*
X86166666Y72547620D01*
X86261904Y72547620D01*
X86404761Y72500000D01*
X86452380Y72452381D01*
X86880952Y72547620D02*
X86880952Y71738096D01*
X86928571Y71642858D01*
X86976190Y71595239D01*
X87071428Y71547620D01*
X87261904Y71547620D01*
X87357142Y71595239D01*
X87404761Y71642858D01*
X87452380Y71738096D01*
X87452380Y72547620D01*
X87785714Y72547620D02*
X88357142Y72547620D01*
X88071428Y71547620D02*
X88071428Y72547620D01*
X-10357143Y24547620D02*
X-10023810Y23547620D01*
X-9690477Y24547620D01*
X-9357143Y23928572D02*
X-8595239Y23928572D01*
X-7547620Y23642858D02*
X-7595239Y23595239D01*
X-7738096Y23547620D01*
X-7833334Y23547620D01*
X-7976191Y23595239D01*
X-8071429Y23690477D01*
X-8119048Y23785715D01*
X-8166667Y23976191D01*
X-8166667Y24119048D01*
X-8119048Y24309524D01*
X-8071429Y24404762D01*
X-7976191Y24500000D01*
X-7833334Y24547620D01*
X-7738096Y24547620D01*
X-7595239Y24500000D01*
X-7547620Y24452381D01*
X-7119048Y24547620D02*
X-7119048Y23738096D01*
X-7071429Y23642858D01*
X-7023810Y23595239D01*
X-6928572Y23547620D01*
X-6738096Y23547620D01*
X-6642858Y23595239D01*
X-6595239Y23642858D01*
X-6547620Y23738096D01*
X-6547620Y24547620D01*
X-6214286Y24547620D02*
X-5642858Y24547620D01*
X-5928572Y23547620D02*
X-5928572Y24547620D01*
X-10357143Y48547620D02*
X-10023810Y47547620D01*
X-9690477Y48547620D01*
X-9357143Y47928572D02*
X-8595239Y47928572D01*
X-7547620Y47642858D02*
X-7595239Y47595239D01*
X-7738096Y47547620D01*
X-7833334Y47547620D01*
X-7976191Y47595239D01*
X-8071429Y47690477D01*
X-8119048Y47785715D01*
X-8166667Y47976191D01*
X-8166667Y48119048D01*
X-8119048Y48309524D01*
X-8071429Y48404762D01*
X-7976191Y48500000D01*
X-7833334Y48547620D01*
X-7738096Y48547620D01*
X-7595239Y48500000D01*
X-7547620Y48452381D01*
X-7119048Y48547620D02*
X-7119048Y47738096D01*
X-7071429Y47642858D01*
X-7023810Y47595239D01*
X-6928572Y47547620D01*
X-6738096Y47547620D01*
X-6642858Y47595239D01*
X-6595239Y47642858D01*
X-6547620Y47738096D01*
X-6547620Y48547620D01*
X-6214286Y48547620D02*
X-5642858Y48547620D01*
X-5928572Y47547620D02*
X-5928572Y48547620D01*
X83642857Y24547620D02*
X83976190Y23547620D01*
X84309523Y24547620D01*
X84642857Y23928572D02*
X85404761Y23928572D01*
X86452380Y23642858D02*
X86404761Y23595239D01*
X86261904Y23547620D01*
X86166666Y23547620D01*
X86023809Y23595239D01*
X85928571Y23690477D01*
X85880952Y23785715D01*
X85833333Y23976191D01*
X85833333Y24119048D01*
X85880952Y24309524D01*
X85928571Y24404762D01*
X86023809Y24500000D01*
X86166666Y24547620D01*
X86261904Y24547620D01*
X86404761Y24500000D01*
X86452380Y24452381D01*
X86880952Y24547620D02*
X86880952Y23738096D01*
X86928571Y23642858D01*
X86976190Y23595239D01*
X87071428Y23547620D01*
X87261904Y23547620D01*
X87357142Y23595239D01*
X87404761Y23642858D01*
X87452380Y23738096D01*
X87452380Y24547620D01*
X87785714Y24547620D02*
X88357142Y24547620D01*
X88071428Y23547620D02*
X88071428Y24547620D01*
X83642857Y48547620D02*
X83976190Y47547620D01*
X84309523Y48547620D01*
X84642857Y47928572D02*
X85404761Y47928572D01*
X86452380Y47642858D02*
X86404761Y47595239D01*
X86261904Y47547620D01*
X86166666Y47547620D01*
X86023809Y47595239D01*
X85928571Y47690477D01*
X85880952Y47785715D01*
X85833333Y47976191D01*
X85833333Y48119048D01*
X85880952Y48309524D01*
X85928571Y48404762D01*
X86023809Y48500000D01*
X86166666Y48547620D01*
X86261904Y48547620D01*
X86404761Y48500000D01*
X86452380Y48452381D01*
X86880952Y48547620D02*
X86880952Y47738096D01*
X86928571Y47642858D01*
X86976190Y47595239D01*
X87071428Y47547620D01*
X87261904Y47547620D01*
X87357142Y47595239D01*
X87404761Y47642858D01*
X87452380Y47738096D01*
X87452380Y48547620D01*
X87785714Y48547620D02*
X88357142Y48547620D01*
X88071428Y47547620D02*
X88071428Y48547620D01*
M02*
