G04 #@! TF.GenerationSoftware,KiCad,Pcbnew,(5.1.9)-1*
G04 #@! TF.CreationDate,2022-11-24T18:27:01+09:00*
G04 #@! TF.ProjectId,ROMCHG-PNL,524f4d43-4847-42d5-904e-4c2e6b696361,rev?*
G04 #@! TF.SameCoordinates,PX1c9ea90PY98919e0*
G04 #@! TF.FileFunction,Legend,Top*
G04 #@! TF.FilePolarity,Positive*
%FSLAX46Y46*%
G04 Gerber Fmt 4.6, Leading zero omitted, Abs format (unit mm)*
G04 Created by KiCad (PCBNEW (5.1.9)-1) date 2022-11-24 18:27:01*
%MOMM*%
%LPD*%
G01*
G04 APERTURE LIST*
%ADD10C,0.175000*%
%ADD11C,0.300000*%
%ADD12C,0.120000*%
%ADD13C,0.150000*%
G04 APERTURE END LIST*
D10*
X76488857Y74050000D02*
X75288857Y74050000D01*
X75860285Y74050000D02*
X75860285Y74450000D01*
X76488857Y74450000D02*
X75288857Y74450000D01*
X76488857Y74783334D02*
X75688857Y74783334D01*
X75288857Y74783334D02*
X75346000Y74750000D01*
X75403142Y74783334D01*
X75346000Y74816667D01*
X75288857Y74783334D01*
X75403142Y74783334D01*
X75688857Y75416667D02*
X76660285Y75416667D01*
X76774571Y75383334D01*
X76831714Y75350000D01*
X76888857Y75283334D01*
X76888857Y75183334D01*
X76831714Y75116667D01*
X76431714Y75416667D02*
X76488857Y75350000D01*
X76488857Y75216667D01*
X76431714Y75150000D01*
X76374571Y75116667D01*
X76260285Y75083334D01*
X75917428Y75083334D01*
X75803142Y75116667D01*
X75746000Y75150000D01*
X75688857Y75216667D01*
X75688857Y75350000D01*
X75746000Y75416667D01*
X76488857Y75750000D02*
X75288857Y75750000D01*
X76488857Y76050000D02*
X75860285Y76050000D01*
X75746000Y76016667D01*
X75688857Y75950000D01*
X75688857Y75850000D01*
X75746000Y75783334D01*
X75803142Y75750000D01*
X76146000Y77416667D02*
X76146000Y77750000D01*
X76488857Y77350000D02*
X75288857Y77583334D01*
X76488857Y77816667D01*
X76488857Y78416667D02*
X76488857Y78016667D01*
X76488857Y78216667D02*
X75288857Y78216667D01*
X75460285Y78150000D01*
X75574571Y78083334D01*
X75631714Y78016667D01*
X75688857Y79016667D02*
X76488857Y79016667D01*
X75231714Y78850000D02*
X76088857Y78683334D01*
X76088857Y79116667D01*
X76488857Y80783334D02*
X76488857Y80450000D01*
X75288857Y80450000D01*
X76488857Y81116667D02*
X76431714Y81050000D01*
X76374571Y81016667D01*
X76260285Y80983334D01*
X75917428Y80983334D01*
X75803142Y81016667D01*
X75746000Y81050000D01*
X75688857Y81116667D01*
X75688857Y81216667D01*
X75746000Y81283334D01*
X75803142Y81316667D01*
X75917428Y81350000D01*
X76260285Y81350000D01*
X76374571Y81316667D01*
X76431714Y81283334D01*
X76488857Y81216667D01*
X76488857Y81116667D01*
X75688857Y81583334D02*
X76488857Y81716667D01*
X75917428Y81850000D01*
X76488857Y81983334D01*
X75688857Y82116667D01*
X76488857Y83050000D02*
X75288857Y83050000D01*
X75860285Y83050000D02*
X75860285Y83450000D01*
X76488857Y83450000D02*
X75288857Y83450000D01*
X76488857Y83783334D02*
X75688857Y83783334D01*
X75288857Y83783334D02*
X75346000Y83750000D01*
X75403142Y83783334D01*
X75346000Y83816667D01*
X75288857Y83783334D01*
X75403142Y83783334D01*
X75688857Y84416667D02*
X76660285Y84416667D01*
X76774571Y84383334D01*
X76831714Y84350000D01*
X76888857Y84283334D01*
X76888857Y84183334D01*
X76831714Y84116667D01*
X76431714Y84416667D02*
X76488857Y84350000D01*
X76488857Y84216667D01*
X76431714Y84150000D01*
X76374571Y84116667D01*
X76260285Y84083334D01*
X75917428Y84083334D01*
X75803142Y84116667D01*
X75746000Y84150000D01*
X75688857Y84216667D01*
X75688857Y84350000D01*
X75746000Y84416667D01*
X76488857Y84750000D02*
X75288857Y84750000D01*
X76488857Y85050000D02*
X75860285Y85050000D01*
X75746000Y85016667D01*
X75688857Y84950000D01*
X75688857Y84850000D01*
X75746000Y84783334D01*
X75803142Y84750000D01*
X76146000Y86416667D02*
X76146000Y86750000D01*
X76488857Y86350000D02*
X75288857Y86583334D01*
X76488857Y86816667D01*
X76488857Y87416667D02*
X76488857Y87016667D01*
X76488857Y87216667D02*
X75288857Y87216667D01*
X75460285Y87150000D01*
X75574571Y87083334D01*
X75631714Y87016667D01*
X75288857Y87650000D02*
X75288857Y88083334D01*
X75746000Y87850000D01*
X75746000Y87950000D01*
X75803142Y88016667D01*
X75860285Y88050000D01*
X75974571Y88083334D01*
X76260285Y88083334D01*
X76374571Y88050000D01*
X76431714Y88016667D01*
X76488857Y87950000D01*
X76488857Y87750000D01*
X76431714Y87683334D01*
X76374571Y87650000D01*
X76488857Y89783334D02*
X76488857Y89450000D01*
X75288857Y89450000D01*
X76488857Y90116667D02*
X76431714Y90050000D01*
X76374571Y90016667D01*
X76260285Y89983334D01*
X75917428Y89983334D01*
X75803142Y90016667D01*
X75746000Y90050000D01*
X75688857Y90116667D01*
X75688857Y90216667D01*
X75746000Y90283334D01*
X75803142Y90316667D01*
X75917428Y90350000D01*
X76260285Y90350000D01*
X76374571Y90316667D01*
X76431714Y90283334D01*
X76488857Y90216667D01*
X76488857Y90116667D01*
X75688857Y90583334D02*
X76488857Y90716667D01*
X75917428Y90850000D01*
X76488857Y90983334D01*
X75688857Y91116667D01*
X76488857Y50174000D02*
X75288857Y50174000D01*
X75860285Y50174000D02*
X75860285Y50574000D01*
X76488857Y50574000D02*
X75288857Y50574000D01*
X76488857Y50907334D02*
X75688857Y50907334D01*
X75288857Y50907334D02*
X75346000Y50874000D01*
X75403142Y50907334D01*
X75346000Y50940667D01*
X75288857Y50907334D01*
X75403142Y50907334D01*
X75688857Y51540667D02*
X76660285Y51540667D01*
X76774571Y51507334D01*
X76831714Y51474000D01*
X76888857Y51407334D01*
X76888857Y51307334D01*
X76831714Y51240667D01*
X76431714Y51540667D02*
X76488857Y51474000D01*
X76488857Y51340667D01*
X76431714Y51274000D01*
X76374571Y51240667D01*
X76260285Y51207334D01*
X75917428Y51207334D01*
X75803142Y51240667D01*
X75746000Y51274000D01*
X75688857Y51340667D01*
X75688857Y51474000D01*
X75746000Y51540667D01*
X76488857Y51874000D02*
X75288857Y51874000D01*
X76488857Y52174000D02*
X75860285Y52174000D01*
X75746000Y52140667D01*
X75688857Y52074000D01*
X75688857Y51974000D01*
X75746000Y51907334D01*
X75803142Y51874000D01*
X76146000Y53540667D02*
X76146000Y53874000D01*
X76488857Y53474000D02*
X75288857Y53707334D01*
X76488857Y53940667D01*
X76488857Y54540667D02*
X76488857Y54140667D01*
X76488857Y54340667D02*
X75288857Y54340667D01*
X75460285Y54274000D01*
X75574571Y54207334D01*
X75631714Y54140667D01*
X75688857Y55140667D02*
X76488857Y55140667D01*
X75231714Y54974000D02*
X76088857Y54807334D01*
X76088857Y55240667D01*
X76488857Y56907334D02*
X76488857Y56574000D01*
X75288857Y56574000D01*
X76488857Y57240667D02*
X76431714Y57174000D01*
X76374571Y57140667D01*
X76260285Y57107334D01*
X75917428Y57107334D01*
X75803142Y57140667D01*
X75746000Y57174000D01*
X75688857Y57240667D01*
X75688857Y57340667D01*
X75746000Y57407334D01*
X75803142Y57440667D01*
X75917428Y57474000D01*
X76260285Y57474000D01*
X76374571Y57440667D01*
X76431714Y57407334D01*
X76488857Y57340667D01*
X76488857Y57240667D01*
X75688857Y57707334D02*
X76488857Y57840667D01*
X75917428Y57974000D01*
X76488857Y58107334D01*
X75688857Y58240667D01*
X76488857Y59174000D02*
X75288857Y59174000D01*
X75860285Y59174000D02*
X75860285Y59574000D01*
X76488857Y59574000D02*
X75288857Y59574000D01*
X76488857Y59907334D02*
X75688857Y59907334D01*
X75288857Y59907334D02*
X75346000Y59874000D01*
X75403142Y59907334D01*
X75346000Y59940667D01*
X75288857Y59907334D01*
X75403142Y59907334D01*
X75688857Y60540667D02*
X76660285Y60540667D01*
X76774571Y60507334D01*
X76831714Y60474000D01*
X76888857Y60407334D01*
X76888857Y60307334D01*
X76831714Y60240667D01*
X76431714Y60540667D02*
X76488857Y60474000D01*
X76488857Y60340667D01*
X76431714Y60274000D01*
X76374571Y60240667D01*
X76260285Y60207334D01*
X75917428Y60207334D01*
X75803142Y60240667D01*
X75746000Y60274000D01*
X75688857Y60340667D01*
X75688857Y60474000D01*
X75746000Y60540667D01*
X76488857Y60874000D02*
X75288857Y60874000D01*
X76488857Y61174000D02*
X75860285Y61174000D01*
X75746000Y61140667D01*
X75688857Y61074000D01*
X75688857Y60974000D01*
X75746000Y60907334D01*
X75803142Y60874000D01*
X76146000Y62540667D02*
X76146000Y62874000D01*
X76488857Y62474000D02*
X75288857Y62707334D01*
X76488857Y62940667D01*
X76488857Y63540667D02*
X76488857Y63140667D01*
X76488857Y63340667D02*
X75288857Y63340667D01*
X75460285Y63274000D01*
X75574571Y63207334D01*
X75631714Y63140667D01*
X75288857Y63774000D02*
X75288857Y64207334D01*
X75746000Y63974000D01*
X75746000Y64074000D01*
X75803142Y64140667D01*
X75860285Y64174000D01*
X75974571Y64207334D01*
X76260285Y64207334D01*
X76374571Y64174000D01*
X76431714Y64140667D01*
X76488857Y64074000D01*
X76488857Y63874000D01*
X76431714Y63807334D01*
X76374571Y63774000D01*
X76488857Y65907334D02*
X76488857Y65574000D01*
X75288857Y65574000D01*
X76488857Y66240667D02*
X76431714Y66174000D01*
X76374571Y66140667D01*
X76260285Y66107334D01*
X75917428Y66107334D01*
X75803142Y66140667D01*
X75746000Y66174000D01*
X75688857Y66240667D01*
X75688857Y66340667D01*
X75746000Y66407334D01*
X75803142Y66440667D01*
X75917428Y66474000D01*
X76260285Y66474000D01*
X76374571Y66440667D01*
X76431714Y66407334D01*
X76488857Y66340667D01*
X76488857Y66240667D01*
X75688857Y66707334D02*
X76488857Y66840667D01*
X75917428Y66974000D01*
X76488857Y67107334D01*
X75688857Y67240667D01*
D11*
X42857142Y83678572D02*
X42928571Y83750000D01*
X43071428Y83821429D01*
X43428571Y83821429D01*
X43571428Y83750000D01*
X43642857Y83678572D01*
X43714285Y83535715D01*
X43714285Y83392858D01*
X43642857Y83178572D01*
X42785714Y82321429D01*
X43714285Y82321429D01*
X44214285Y83821429D02*
X45214285Y83821429D01*
X44571428Y82321429D01*
X46571428Y82321429D02*
X45714285Y82321429D01*
X46142857Y82321429D02*
X46142857Y83821429D01*
X46000000Y83607143D01*
X45857142Y83464286D01*
X45714285Y83392858D01*
X47142857Y83678572D02*
X47214285Y83750000D01*
X47357142Y83821429D01*
X47714285Y83821429D01*
X47857142Y83750000D01*
X47928571Y83678572D01*
X48000000Y83535715D01*
X48000000Y83392858D01*
X47928571Y83178572D01*
X47071428Y82321429D01*
X48000000Y82321429D01*
X48857142Y83178572D02*
X48714285Y83250000D01*
X48642857Y83321429D01*
X48571428Y83464286D01*
X48571428Y83535715D01*
X48642857Y83678572D01*
X48714285Y83750000D01*
X48857142Y83821429D01*
X49142857Y83821429D01*
X49285714Y83750000D01*
X49357142Y83678572D01*
X49428571Y83535715D01*
X49428571Y83464286D01*
X49357142Y83321429D01*
X49285714Y83250000D01*
X49142857Y83178572D01*
X48857142Y83178572D01*
X48714285Y83107143D01*
X48642857Y83035715D01*
X48571428Y82892858D01*
X48571428Y82607143D01*
X48642857Y82464286D01*
X48714285Y82392858D01*
X48857142Y82321429D01*
X49142857Y82321429D01*
X49285714Y82392858D01*
X49357142Y82464286D01*
X49428571Y82607143D01*
X49428571Y82892858D01*
X49357142Y83035715D01*
X49285714Y83107143D01*
X49142857Y83178572D01*
X51428571Y82321429D02*
X51285714Y82392858D01*
X51214285Y82464286D01*
X51142857Y82607143D01*
X51142857Y83035715D01*
X51214285Y83178572D01*
X51285714Y83250000D01*
X51428571Y83321429D01*
X51642857Y83321429D01*
X51785714Y83250000D01*
X51857142Y83178572D01*
X51928571Y83035715D01*
X51928571Y82607143D01*
X51857142Y82464286D01*
X51785714Y82392858D01*
X51642857Y82321429D01*
X51428571Y82321429D01*
X52571428Y82321429D02*
X52571428Y83321429D01*
X52571428Y83035715D02*
X52642857Y83178572D01*
X52714285Y83250000D01*
X52857142Y83321429D01*
X53000000Y83321429D01*
X54571428Y83678572D02*
X54642857Y83750000D01*
X54785714Y83821429D01*
X55142857Y83821429D01*
X55285714Y83750000D01*
X55357142Y83678572D01*
X55428571Y83535715D01*
X55428571Y83392858D01*
X55357142Y83178572D01*
X54500000Y82321429D01*
X55428571Y82321429D01*
X55928571Y83821429D02*
X56928571Y83821429D01*
X56285714Y82321429D01*
X57428571Y83678572D02*
X57500000Y83750000D01*
X57642857Y83821429D01*
X58000000Y83821429D01*
X58142857Y83750000D01*
X58214285Y83678572D01*
X58285714Y83535715D01*
X58285714Y83392858D01*
X58214285Y83178572D01*
X57357142Y82321429D01*
X58285714Y82321429D01*
X59642857Y83821429D02*
X58928571Y83821429D01*
X58857142Y83107143D01*
X58928571Y83178572D01*
X59071428Y83250000D01*
X59428571Y83250000D01*
X59571428Y83178572D01*
X59642857Y83107143D01*
X59714285Y82964286D01*
X59714285Y82607143D01*
X59642857Y82464286D01*
X59571428Y82392858D01*
X59428571Y82321429D01*
X59071428Y82321429D01*
X58928571Y82392858D01*
X58857142Y82464286D01*
X61000000Y83821429D02*
X60714285Y83821429D01*
X60571428Y83750000D01*
X60500000Y83678572D01*
X60357142Y83464286D01*
X60285714Y83178572D01*
X60285714Y82607143D01*
X60357142Y82464286D01*
X60428571Y82392858D01*
X60571428Y82321429D01*
X60857142Y82321429D01*
X61000000Y82392858D01*
X61071428Y82464286D01*
X61142857Y82607143D01*
X61142857Y82964286D01*
X61071428Y83107143D01*
X61000000Y83178572D01*
X60857142Y83250000D01*
X60571428Y83250000D01*
X60428571Y83178572D01*
X60357142Y83107143D01*
X60285714Y82964286D01*
X9928571Y83678572D02*
X10000000Y83750000D01*
X10142857Y83821429D01*
X10500000Y83821429D01*
X10642857Y83750000D01*
X10714285Y83678572D01*
X10785714Y83535715D01*
X10785714Y83392858D01*
X10714285Y83178572D01*
X9857142Y82321429D01*
X10785714Y82321429D01*
X11285714Y83821429D02*
X12214285Y83821429D01*
X11714285Y83250000D01*
X11928571Y83250000D01*
X12071428Y83178572D01*
X12142857Y83107143D01*
X12214285Y82964286D01*
X12214285Y82607143D01*
X12142857Y82464286D01*
X12071428Y82392858D01*
X11928571Y82321429D01*
X11500000Y82321429D01*
X11357142Y82392858D01*
X11285714Y82464286D01*
X13500000Y83821429D02*
X13214285Y83821429D01*
X13071428Y83750000D01*
X13000000Y83678572D01*
X12857142Y83464286D01*
X12785714Y83178572D01*
X12785714Y82607143D01*
X12857142Y82464286D01*
X12928571Y82392858D01*
X13071428Y82321429D01*
X13357142Y82321429D01*
X13500000Y82392858D01*
X13571428Y82464286D01*
X13642857Y82607143D01*
X13642857Y82964286D01*
X13571428Y83107143D01*
X13500000Y83178572D01*
X13357142Y83250000D01*
X13071428Y83250000D01*
X12928571Y83178572D01*
X12857142Y83107143D01*
X12785714Y82964286D01*
X14928571Y83321429D02*
X14928571Y82321429D01*
X14571428Y83892858D02*
X14214285Y82821429D01*
X15142857Y82821429D01*
X16857142Y82321429D02*
X16857142Y83821429D01*
X18428571Y82464286D02*
X18357142Y82392858D01*
X18142857Y82321429D01*
X18000000Y82321429D01*
X17785714Y82392858D01*
X17642857Y82535715D01*
X17571428Y82678572D01*
X17500000Y82964286D01*
X17500000Y83178572D01*
X17571428Y83464286D01*
X17642857Y83607143D01*
X17785714Y83750000D01*
X18000000Y83821429D01*
X18142857Y83821429D01*
X18357142Y83750000D01*
X18428571Y83678572D01*
X20142857Y82392858D02*
X20357142Y82321429D01*
X20714285Y82321429D01*
X20857142Y82392858D01*
X20928571Y82464286D01*
X21000000Y82607143D01*
X21000000Y82750000D01*
X20928571Y82892858D01*
X20857142Y82964286D01*
X20714285Y83035715D01*
X20428571Y83107143D01*
X20285714Y83178572D01*
X20214285Y83250000D01*
X20142857Y83392858D01*
X20142857Y83535715D01*
X20214285Y83678572D01*
X20285714Y83750000D01*
X20428571Y83821429D01*
X20785714Y83821429D01*
X21000000Y83750000D01*
X21928571Y83821429D02*
X22214285Y83821429D01*
X22357142Y83750000D01*
X22500000Y83607143D01*
X22571428Y83321429D01*
X22571428Y82821429D01*
X22500000Y82535715D01*
X22357142Y82392858D01*
X22214285Y82321429D01*
X21928571Y82321429D01*
X21785714Y82392858D01*
X21642857Y82535715D01*
X21571428Y82821429D01*
X21571428Y83321429D01*
X21642857Y83607143D01*
X21785714Y83750000D01*
X21928571Y83821429D01*
X24071428Y82464286D02*
X24000000Y82392858D01*
X23785714Y82321429D01*
X23642857Y82321429D01*
X23428571Y82392858D01*
X23285714Y82535715D01*
X23214285Y82678572D01*
X23142857Y82964286D01*
X23142857Y83178572D01*
X23214285Y83464286D01*
X23285714Y83607143D01*
X23428571Y83750000D01*
X23642857Y83821429D01*
X23785714Y83821429D01*
X24000000Y83750000D01*
X24071428Y83678572D01*
X24714285Y82321429D02*
X24714285Y83821429D01*
X25571428Y82321429D02*
X24928571Y83178572D01*
X25571428Y83821429D02*
X24714285Y82964286D01*
X26214285Y83107143D02*
X26714285Y83107143D01*
X26928571Y82321429D02*
X26214285Y82321429D01*
X26214285Y83821429D01*
X26928571Y83821429D01*
X27357142Y83821429D02*
X28214285Y83821429D01*
X27785714Y82321429D02*
X27785714Y83821429D01*
X9928571Y59678572D02*
X10000000Y59750000D01*
X10142857Y59821429D01*
X10500000Y59821429D01*
X10642857Y59750000D01*
X10714285Y59678572D01*
X10785714Y59535715D01*
X10785714Y59392858D01*
X10714285Y59178572D01*
X9857142Y58321429D01*
X10785714Y58321429D01*
X11285714Y59821429D02*
X12214285Y59821429D01*
X11714285Y59250000D01*
X11928571Y59250000D01*
X12071428Y59178572D01*
X12142857Y59107143D01*
X12214285Y58964286D01*
X12214285Y58607143D01*
X12142857Y58464286D01*
X12071428Y58392858D01*
X11928571Y58321429D01*
X11500000Y58321429D01*
X11357142Y58392858D01*
X11285714Y58464286D01*
X13500000Y59821429D02*
X13214285Y59821429D01*
X13071428Y59750000D01*
X13000000Y59678572D01*
X12857142Y59464286D01*
X12785714Y59178572D01*
X12785714Y58607143D01*
X12857142Y58464286D01*
X12928571Y58392858D01*
X13071428Y58321429D01*
X13357142Y58321429D01*
X13500000Y58392858D01*
X13571428Y58464286D01*
X13642857Y58607143D01*
X13642857Y58964286D01*
X13571428Y59107143D01*
X13500000Y59178572D01*
X13357142Y59250000D01*
X13071428Y59250000D01*
X12928571Y59178572D01*
X12857142Y59107143D01*
X12785714Y58964286D01*
X14928571Y59321429D02*
X14928571Y58321429D01*
X14571428Y59892858D02*
X14214285Y58821429D01*
X15142857Y58821429D01*
X16857142Y58321429D02*
X16857142Y59821429D01*
X18428571Y58464286D02*
X18357142Y58392858D01*
X18142857Y58321429D01*
X18000000Y58321429D01*
X17785714Y58392858D01*
X17642857Y58535715D01*
X17571428Y58678572D01*
X17500000Y58964286D01*
X17500000Y59178572D01*
X17571428Y59464286D01*
X17642857Y59607143D01*
X17785714Y59750000D01*
X18000000Y59821429D01*
X18142857Y59821429D01*
X18357142Y59750000D01*
X18428571Y59678572D01*
X20142857Y58392858D02*
X20357142Y58321429D01*
X20714285Y58321429D01*
X20857142Y58392858D01*
X20928571Y58464286D01*
X21000000Y58607143D01*
X21000000Y58750000D01*
X20928571Y58892858D01*
X20857142Y58964286D01*
X20714285Y59035715D01*
X20428571Y59107143D01*
X20285714Y59178572D01*
X20214285Y59250000D01*
X20142857Y59392858D01*
X20142857Y59535715D01*
X20214285Y59678572D01*
X20285714Y59750000D01*
X20428571Y59821429D01*
X20785714Y59821429D01*
X21000000Y59750000D01*
X21928571Y59821429D02*
X22214285Y59821429D01*
X22357142Y59750000D01*
X22500000Y59607143D01*
X22571428Y59321429D01*
X22571428Y58821429D01*
X22500000Y58535715D01*
X22357142Y58392858D01*
X22214285Y58321429D01*
X21928571Y58321429D01*
X21785714Y58392858D01*
X21642857Y58535715D01*
X21571428Y58821429D01*
X21571428Y59321429D01*
X21642857Y59607143D01*
X21785714Y59750000D01*
X21928571Y59821429D01*
X24071428Y58464286D02*
X24000000Y58392858D01*
X23785714Y58321429D01*
X23642857Y58321429D01*
X23428571Y58392858D01*
X23285714Y58535715D01*
X23214285Y58678572D01*
X23142857Y58964286D01*
X23142857Y59178572D01*
X23214285Y59464286D01*
X23285714Y59607143D01*
X23428571Y59750000D01*
X23642857Y59821429D01*
X23785714Y59821429D01*
X24000000Y59750000D01*
X24071428Y59678572D01*
X24714285Y58321429D02*
X24714285Y59821429D01*
X25571428Y58321429D02*
X24928571Y59178572D01*
X25571428Y59821429D02*
X24714285Y58964286D01*
X26214285Y59107143D02*
X26714285Y59107143D01*
X26928571Y58321429D02*
X26214285Y58321429D01*
X26214285Y59821429D01*
X26928571Y59821429D01*
X27357142Y59821429D02*
X28214285Y59821429D01*
X27785714Y58321429D02*
X27785714Y59821429D01*
X42857142Y59678572D02*
X42928571Y59750000D01*
X43071428Y59821429D01*
X43428571Y59821429D01*
X43571428Y59750000D01*
X43642857Y59678572D01*
X43714285Y59535715D01*
X43714285Y59392858D01*
X43642857Y59178572D01*
X42785714Y58321429D01*
X43714285Y58321429D01*
X44214285Y59821429D02*
X45214285Y59821429D01*
X44571428Y58321429D01*
X46571428Y58321429D02*
X45714285Y58321429D01*
X46142857Y58321429D02*
X46142857Y59821429D01*
X46000000Y59607143D01*
X45857142Y59464286D01*
X45714285Y59392858D01*
X47142857Y59678572D02*
X47214285Y59750000D01*
X47357142Y59821429D01*
X47714285Y59821429D01*
X47857142Y59750000D01*
X47928571Y59678572D01*
X48000000Y59535715D01*
X48000000Y59392858D01*
X47928571Y59178572D01*
X47071428Y58321429D01*
X48000000Y58321429D01*
X48857142Y59178572D02*
X48714285Y59250000D01*
X48642857Y59321429D01*
X48571428Y59464286D01*
X48571428Y59535715D01*
X48642857Y59678572D01*
X48714285Y59750000D01*
X48857142Y59821429D01*
X49142857Y59821429D01*
X49285714Y59750000D01*
X49357142Y59678572D01*
X49428571Y59535715D01*
X49428571Y59464286D01*
X49357142Y59321429D01*
X49285714Y59250000D01*
X49142857Y59178572D01*
X48857142Y59178572D01*
X48714285Y59107143D01*
X48642857Y59035715D01*
X48571428Y58892858D01*
X48571428Y58607143D01*
X48642857Y58464286D01*
X48714285Y58392858D01*
X48857142Y58321429D01*
X49142857Y58321429D01*
X49285714Y58392858D01*
X49357142Y58464286D01*
X49428571Y58607143D01*
X49428571Y58892858D01*
X49357142Y59035715D01*
X49285714Y59107143D01*
X49142857Y59178572D01*
X51428571Y58321429D02*
X51285714Y58392858D01*
X51214285Y58464286D01*
X51142857Y58607143D01*
X51142857Y59035715D01*
X51214285Y59178572D01*
X51285714Y59250000D01*
X51428571Y59321429D01*
X51642857Y59321429D01*
X51785714Y59250000D01*
X51857142Y59178572D01*
X51928571Y59035715D01*
X51928571Y58607143D01*
X51857142Y58464286D01*
X51785714Y58392858D01*
X51642857Y58321429D01*
X51428571Y58321429D01*
X52571428Y58321429D02*
X52571428Y59321429D01*
X52571428Y59035715D02*
X52642857Y59178572D01*
X52714285Y59250000D01*
X52857142Y59321429D01*
X53000000Y59321429D01*
X54571428Y59678572D02*
X54642857Y59750000D01*
X54785714Y59821429D01*
X55142857Y59821429D01*
X55285714Y59750000D01*
X55357142Y59678572D01*
X55428571Y59535715D01*
X55428571Y59392858D01*
X55357142Y59178572D01*
X54500000Y58321429D01*
X55428571Y58321429D01*
X55928571Y59821429D02*
X56928571Y59821429D01*
X56285714Y58321429D01*
X57428571Y59678572D02*
X57500000Y59750000D01*
X57642857Y59821429D01*
X58000000Y59821429D01*
X58142857Y59750000D01*
X58214285Y59678572D01*
X58285714Y59535715D01*
X58285714Y59392858D01*
X58214285Y59178572D01*
X57357142Y58321429D01*
X58285714Y58321429D01*
X59642857Y59821429D02*
X58928571Y59821429D01*
X58857142Y59107143D01*
X58928571Y59178572D01*
X59071428Y59250000D01*
X59428571Y59250000D01*
X59571428Y59178572D01*
X59642857Y59107143D01*
X59714285Y58964286D01*
X59714285Y58607143D01*
X59642857Y58464286D01*
X59571428Y58392858D01*
X59428571Y58321429D01*
X59071428Y58321429D01*
X58928571Y58392858D01*
X58857142Y58464286D01*
X61000000Y59821429D02*
X60714285Y59821429D01*
X60571428Y59750000D01*
X60500000Y59678572D01*
X60357142Y59464286D01*
X60285714Y59178572D01*
X60285714Y58607143D01*
X60357142Y58464286D01*
X60428571Y58392858D01*
X60571428Y58321429D01*
X60857142Y58321429D01*
X61000000Y58392858D01*
X61071428Y58464286D01*
X61142857Y58607143D01*
X61142857Y58964286D01*
X61071428Y59107143D01*
X61000000Y59178572D01*
X60857142Y59250000D01*
X60571428Y59250000D01*
X60428571Y59178572D01*
X60357142Y59107143D01*
X60285714Y58964286D01*
X9928571Y35678572D02*
X10000000Y35750000D01*
X10142857Y35821429D01*
X10500000Y35821429D01*
X10642857Y35750000D01*
X10714285Y35678572D01*
X10785714Y35535715D01*
X10785714Y35392858D01*
X10714285Y35178572D01*
X9857142Y34321429D01*
X10785714Y34321429D01*
X11285714Y35821429D02*
X12214285Y35821429D01*
X11714285Y35250000D01*
X11928571Y35250000D01*
X12071428Y35178572D01*
X12142857Y35107143D01*
X12214285Y34964286D01*
X12214285Y34607143D01*
X12142857Y34464286D01*
X12071428Y34392858D01*
X11928571Y34321429D01*
X11500000Y34321429D01*
X11357142Y34392858D01*
X11285714Y34464286D01*
X13500000Y35821429D02*
X13214285Y35821429D01*
X13071428Y35750000D01*
X13000000Y35678572D01*
X12857142Y35464286D01*
X12785714Y35178572D01*
X12785714Y34607143D01*
X12857142Y34464286D01*
X12928571Y34392858D01*
X13071428Y34321429D01*
X13357142Y34321429D01*
X13500000Y34392858D01*
X13571428Y34464286D01*
X13642857Y34607143D01*
X13642857Y34964286D01*
X13571428Y35107143D01*
X13500000Y35178572D01*
X13357142Y35250000D01*
X13071428Y35250000D01*
X12928571Y35178572D01*
X12857142Y35107143D01*
X12785714Y34964286D01*
X14928571Y35321429D02*
X14928571Y34321429D01*
X14571428Y35892858D02*
X14214285Y34821429D01*
X15142857Y34821429D01*
X16857142Y34321429D02*
X16857142Y35821429D01*
X18428571Y34464286D02*
X18357142Y34392858D01*
X18142857Y34321429D01*
X18000000Y34321429D01*
X17785714Y34392858D01*
X17642857Y34535715D01*
X17571428Y34678572D01*
X17500000Y34964286D01*
X17500000Y35178572D01*
X17571428Y35464286D01*
X17642857Y35607143D01*
X17785714Y35750000D01*
X18000000Y35821429D01*
X18142857Y35821429D01*
X18357142Y35750000D01*
X18428571Y35678572D01*
X20142857Y34392858D02*
X20357142Y34321429D01*
X20714285Y34321429D01*
X20857142Y34392858D01*
X20928571Y34464286D01*
X21000000Y34607143D01*
X21000000Y34750000D01*
X20928571Y34892858D01*
X20857142Y34964286D01*
X20714285Y35035715D01*
X20428571Y35107143D01*
X20285714Y35178572D01*
X20214285Y35250000D01*
X20142857Y35392858D01*
X20142857Y35535715D01*
X20214285Y35678572D01*
X20285714Y35750000D01*
X20428571Y35821429D01*
X20785714Y35821429D01*
X21000000Y35750000D01*
X21928571Y35821429D02*
X22214285Y35821429D01*
X22357142Y35750000D01*
X22500000Y35607143D01*
X22571428Y35321429D01*
X22571428Y34821429D01*
X22500000Y34535715D01*
X22357142Y34392858D01*
X22214285Y34321429D01*
X21928571Y34321429D01*
X21785714Y34392858D01*
X21642857Y34535715D01*
X21571428Y34821429D01*
X21571428Y35321429D01*
X21642857Y35607143D01*
X21785714Y35750000D01*
X21928571Y35821429D01*
X24071428Y34464286D02*
X24000000Y34392858D01*
X23785714Y34321429D01*
X23642857Y34321429D01*
X23428571Y34392858D01*
X23285714Y34535715D01*
X23214285Y34678572D01*
X23142857Y34964286D01*
X23142857Y35178572D01*
X23214285Y35464286D01*
X23285714Y35607143D01*
X23428571Y35750000D01*
X23642857Y35821429D01*
X23785714Y35821429D01*
X24000000Y35750000D01*
X24071428Y35678572D01*
X24714285Y34321429D02*
X24714285Y35821429D01*
X25571428Y34321429D02*
X24928571Y35178572D01*
X25571428Y35821429D02*
X24714285Y34964286D01*
X26214285Y35107143D02*
X26714285Y35107143D01*
X26928571Y34321429D02*
X26214285Y34321429D01*
X26214285Y35821429D01*
X26928571Y35821429D01*
X27357142Y35821429D02*
X28214285Y35821429D01*
X27785714Y34321429D02*
X27785714Y35821429D01*
X42857142Y35678572D02*
X42928571Y35750000D01*
X43071428Y35821429D01*
X43428571Y35821429D01*
X43571428Y35750000D01*
X43642857Y35678572D01*
X43714285Y35535715D01*
X43714285Y35392858D01*
X43642857Y35178572D01*
X42785714Y34321429D01*
X43714285Y34321429D01*
X44214285Y35821429D02*
X45214285Y35821429D01*
X44571428Y34321429D01*
X46571428Y34321429D02*
X45714285Y34321429D01*
X46142857Y34321429D02*
X46142857Y35821429D01*
X46000000Y35607143D01*
X45857142Y35464286D01*
X45714285Y35392858D01*
X47142857Y35678572D02*
X47214285Y35750000D01*
X47357142Y35821429D01*
X47714285Y35821429D01*
X47857142Y35750000D01*
X47928571Y35678572D01*
X48000000Y35535715D01*
X48000000Y35392858D01*
X47928571Y35178572D01*
X47071428Y34321429D01*
X48000000Y34321429D01*
X48857142Y35178572D02*
X48714285Y35250000D01*
X48642857Y35321429D01*
X48571428Y35464286D01*
X48571428Y35535715D01*
X48642857Y35678572D01*
X48714285Y35750000D01*
X48857142Y35821429D01*
X49142857Y35821429D01*
X49285714Y35750000D01*
X49357142Y35678572D01*
X49428571Y35535715D01*
X49428571Y35464286D01*
X49357142Y35321429D01*
X49285714Y35250000D01*
X49142857Y35178572D01*
X48857142Y35178572D01*
X48714285Y35107143D01*
X48642857Y35035715D01*
X48571428Y34892858D01*
X48571428Y34607143D01*
X48642857Y34464286D01*
X48714285Y34392858D01*
X48857142Y34321429D01*
X49142857Y34321429D01*
X49285714Y34392858D01*
X49357142Y34464286D01*
X49428571Y34607143D01*
X49428571Y34892858D01*
X49357142Y35035715D01*
X49285714Y35107143D01*
X49142857Y35178572D01*
X51428571Y34321429D02*
X51285714Y34392858D01*
X51214285Y34464286D01*
X51142857Y34607143D01*
X51142857Y35035715D01*
X51214285Y35178572D01*
X51285714Y35250000D01*
X51428571Y35321429D01*
X51642857Y35321429D01*
X51785714Y35250000D01*
X51857142Y35178572D01*
X51928571Y35035715D01*
X51928571Y34607143D01*
X51857142Y34464286D01*
X51785714Y34392858D01*
X51642857Y34321429D01*
X51428571Y34321429D01*
X52571428Y34321429D02*
X52571428Y35321429D01*
X52571428Y35035715D02*
X52642857Y35178572D01*
X52714285Y35250000D01*
X52857142Y35321429D01*
X53000000Y35321429D01*
X54571428Y35678572D02*
X54642857Y35750000D01*
X54785714Y35821429D01*
X55142857Y35821429D01*
X55285714Y35750000D01*
X55357142Y35678572D01*
X55428571Y35535715D01*
X55428571Y35392858D01*
X55357142Y35178572D01*
X54500000Y34321429D01*
X55428571Y34321429D01*
X55928571Y35821429D02*
X56928571Y35821429D01*
X56285714Y34321429D01*
X57428571Y35678572D02*
X57500000Y35750000D01*
X57642857Y35821429D01*
X58000000Y35821429D01*
X58142857Y35750000D01*
X58214285Y35678572D01*
X58285714Y35535715D01*
X58285714Y35392858D01*
X58214285Y35178572D01*
X57357142Y34321429D01*
X58285714Y34321429D01*
X59642857Y35821429D02*
X58928571Y35821429D01*
X58857142Y35107143D01*
X58928571Y35178572D01*
X59071428Y35250000D01*
X59428571Y35250000D01*
X59571428Y35178572D01*
X59642857Y35107143D01*
X59714285Y34964286D01*
X59714285Y34607143D01*
X59642857Y34464286D01*
X59571428Y34392858D01*
X59428571Y34321429D01*
X59071428Y34321429D01*
X58928571Y34392858D01*
X58857142Y34464286D01*
X61000000Y35821429D02*
X60714285Y35821429D01*
X60571428Y35750000D01*
X60500000Y35678572D01*
X60357142Y35464286D01*
X60285714Y35178572D01*
X60285714Y34607143D01*
X60357142Y34464286D01*
X60428571Y34392858D01*
X60571428Y34321429D01*
X60857142Y34321429D01*
X61000000Y34392858D01*
X61071428Y34464286D01*
X61142857Y34607143D01*
X61142857Y34964286D01*
X61071428Y35107143D01*
X61000000Y35178572D01*
X60857142Y35250000D01*
X60571428Y35250000D01*
X60428571Y35178572D01*
X60357142Y35107143D01*
X60285714Y34964286D01*
D10*
X76542857Y35000000D02*
X75342857Y35000000D01*
X75914285Y35000000D02*
X75914285Y35400000D01*
X76542857Y35400000D02*
X75342857Y35400000D01*
X76542857Y35733334D02*
X75742857Y35733334D01*
X75342857Y35733334D02*
X75400000Y35700000D01*
X75457142Y35733334D01*
X75400000Y35766667D01*
X75342857Y35733334D01*
X75457142Y35733334D01*
X75742857Y36366667D02*
X76714285Y36366667D01*
X76828571Y36333334D01*
X76885714Y36300000D01*
X76942857Y36233334D01*
X76942857Y36133334D01*
X76885714Y36066667D01*
X76485714Y36366667D02*
X76542857Y36300000D01*
X76542857Y36166667D01*
X76485714Y36100000D01*
X76428571Y36066667D01*
X76314285Y36033334D01*
X75971428Y36033334D01*
X75857142Y36066667D01*
X75800000Y36100000D01*
X75742857Y36166667D01*
X75742857Y36300000D01*
X75800000Y36366667D01*
X76542857Y36700000D02*
X75342857Y36700000D01*
X76542857Y37000000D02*
X75914285Y37000000D01*
X75800000Y36966667D01*
X75742857Y36900000D01*
X75742857Y36800000D01*
X75800000Y36733334D01*
X75857142Y36700000D01*
X76200000Y38366667D02*
X76200000Y38700000D01*
X76542857Y38300000D02*
X75342857Y38533334D01*
X76542857Y38766667D01*
X76542857Y39366667D02*
X76542857Y38966667D01*
X76542857Y39166667D02*
X75342857Y39166667D01*
X75514285Y39100000D01*
X75628571Y39033334D01*
X75685714Y38966667D01*
X75342857Y39600000D02*
X75342857Y40033334D01*
X75800000Y39800000D01*
X75800000Y39900000D01*
X75857142Y39966667D01*
X75914285Y40000000D01*
X76028571Y40033334D01*
X76314285Y40033334D01*
X76428571Y40000000D01*
X76485714Y39966667D01*
X76542857Y39900000D01*
X76542857Y39700000D01*
X76485714Y39633334D01*
X76428571Y39600000D01*
X76542857Y41733334D02*
X76542857Y41400000D01*
X75342857Y41400000D01*
X76542857Y42066667D02*
X76485714Y42000000D01*
X76428571Y41966667D01*
X76314285Y41933334D01*
X75971428Y41933334D01*
X75857142Y41966667D01*
X75800000Y42000000D01*
X75742857Y42066667D01*
X75742857Y42166667D01*
X75800000Y42233334D01*
X75857142Y42266667D01*
X75971428Y42300000D01*
X76314285Y42300000D01*
X76428571Y42266667D01*
X76485714Y42233334D01*
X76542857Y42166667D01*
X76542857Y42066667D01*
X75742857Y42533334D02*
X76542857Y42666667D01*
X75971428Y42800000D01*
X76542857Y42933334D01*
X75742857Y43066667D01*
X76542857Y26000000D02*
X75342857Y26000000D01*
X75914285Y26000000D02*
X75914285Y26400000D01*
X76542857Y26400000D02*
X75342857Y26400000D01*
X76542857Y26733334D02*
X75742857Y26733334D01*
X75342857Y26733334D02*
X75400000Y26700000D01*
X75457142Y26733334D01*
X75400000Y26766667D01*
X75342857Y26733334D01*
X75457142Y26733334D01*
X75742857Y27366667D02*
X76714285Y27366667D01*
X76828571Y27333334D01*
X76885714Y27300000D01*
X76942857Y27233334D01*
X76942857Y27133334D01*
X76885714Y27066667D01*
X76485714Y27366667D02*
X76542857Y27300000D01*
X76542857Y27166667D01*
X76485714Y27100000D01*
X76428571Y27066667D01*
X76314285Y27033334D01*
X75971428Y27033334D01*
X75857142Y27066667D01*
X75800000Y27100000D01*
X75742857Y27166667D01*
X75742857Y27300000D01*
X75800000Y27366667D01*
X76542857Y27700000D02*
X75342857Y27700000D01*
X76542857Y28000000D02*
X75914285Y28000000D01*
X75800000Y27966667D01*
X75742857Y27900000D01*
X75742857Y27800000D01*
X75800000Y27733334D01*
X75857142Y27700000D01*
X76200000Y29366667D02*
X76200000Y29700000D01*
X76542857Y29300000D02*
X75342857Y29533334D01*
X76542857Y29766667D01*
X76542857Y30366667D02*
X76542857Y29966667D01*
X76542857Y30166667D02*
X75342857Y30166667D01*
X75514285Y30100000D01*
X75628571Y30033334D01*
X75685714Y29966667D01*
X75742857Y30966667D02*
X76542857Y30966667D01*
X75285714Y30800000D02*
X76142857Y30633334D01*
X76142857Y31066667D01*
X76542857Y32733334D02*
X76542857Y32400000D01*
X75342857Y32400000D01*
X76542857Y33066667D02*
X76485714Y33000000D01*
X76428571Y32966667D01*
X76314285Y32933334D01*
X75971428Y32933334D01*
X75857142Y32966667D01*
X75800000Y33000000D01*
X75742857Y33066667D01*
X75742857Y33166667D01*
X75800000Y33233334D01*
X75857142Y33266667D01*
X75971428Y33300000D01*
X76314285Y33300000D01*
X76428571Y33266667D01*
X76485714Y33233334D01*
X76542857Y33166667D01*
X76542857Y33066667D01*
X75742857Y33533334D02*
X76542857Y33666667D01*
X75971428Y33800000D01*
X76542857Y33933334D01*
X75742857Y34066667D01*
X76542857Y2000000D02*
X75342857Y2000000D01*
X75914285Y2000000D02*
X75914285Y2400000D01*
X76542857Y2400000D02*
X75342857Y2400000D01*
X76542857Y2733334D02*
X75742857Y2733334D01*
X75342857Y2733334D02*
X75400000Y2700000D01*
X75457142Y2733334D01*
X75400000Y2766667D01*
X75342857Y2733334D01*
X75457142Y2733334D01*
X75742857Y3366667D02*
X76714285Y3366667D01*
X76828571Y3333334D01*
X76885714Y3300000D01*
X76942857Y3233334D01*
X76942857Y3133334D01*
X76885714Y3066667D01*
X76485714Y3366667D02*
X76542857Y3300000D01*
X76542857Y3166667D01*
X76485714Y3100000D01*
X76428571Y3066667D01*
X76314285Y3033334D01*
X75971428Y3033334D01*
X75857142Y3066667D01*
X75800000Y3100000D01*
X75742857Y3166667D01*
X75742857Y3300000D01*
X75800000Y3366667D01*
X76542857Y3700000D02*
X75342857Y3700000D01*
X76542857Y4000000D02*
X75914285Y4000000D01*
X75800000Y3966667D01*
X75742857Y3900000D01*
X75742857Y3800000D01*
X75800000Y3733334D01*
X75857142Y3700000D01*
X76200000Y5366667D02*
X76200000Y5700000D01*
X76542857Y5300000D02*
X75342857Y5533334D01*
X76542857Y5766667D01*
X76542857Y6366667D02*
X76542857Y5966667D01*
X76542857Y6166667D02*
X75342857Y6166667D01*
X75514285Y6100000D01*
X75628571Y6033334D01*
X75685714Y5966667D01*
X75742857Y6966667D02*
X76542857Y6966667D01*
X75285714Y6800000D02*
X76142857Y6633334D01*
X76142857Y7066667D01*
X76542857Y8733334D02*
X76542857Y8400000D01*
X75342857Y8400000D01*
X76542857Y9066667D02*
X76485714Y9000000D01*
X76428571Y8966667D01*
X76314285Y8933334D01*
X75971428Y8933334D01*
X75857142Y8966667D01*
X75800000Y9000000D01*
X75742857Y9066667D01*
X75742857Y9166667D01*
X75800000Y9233334D01*
X75857142Y9266667D01*
X75971428Y9300000D01*
X76314285Y9300000D01*
X76428571Y9266667D01*
X76485714Y9233334D01*
X76542857Y9166667D01*
X76542857Y9066667D01*
X75742857Y9533334D02*
X76542857Y9666667D01*
X75971428Y9800000D01*
X76542857Y9933334D01*
X75742857Y10066667D01*
X76542857Y11000000D02*
X75342857Y11000000D01*
X75914285Y11000000D02*
X75914285Y11400000D01*
X76542857Y11400000D02*
X75342857Y11400000D01*
X76542857Y11733334D02*
X75742857Y11733334D01*
X75342857Y11733334D02*
X75400000Y11700000D01*
X75457142Y11733334D01*
X75400000Y11766667D01*
X75342857Y11733334D01*
X75457142Y11733334D01*
X75742857Y12366667D02*
X76714285Y12366667D01*
X76828571Y12333334D01*
X76885714Y12300000D01*
X76942857Y12233334D01*
X76942857Y12133334D01*
X76885714Y12066667D01*
X76485714Y12366667D02*
X76542857Y12300000D01*
X76542857Y12166667D01*
X76485714Y12100000D01*
X76428571Y12066667D01*
X76314285Y12033334D01*
X75971428Y12033334D01*
X75857142Y12066667D01*
X75800000Y12100000D01*
X75742857Y12166667D01*
X75742857Y12300000D01*
X75800000Y12366667D01*
X76542857Y12700000D02*
X75342857Y12700000D01*
X76542857Y13000000D02*
X75914285Y13000000D01*
X75800000Y12966667D01*
X75742857Y12900000D01*
X75742857Y12800000D01*
X75800000Y12733334D01*
X75857142Y12700000D01*
X76200000Y14366667D02*
X76200000Y14700000D01*
X76542857Y14300000D02*
X75342857Y14533334D01*
X76542857Y14766667D01*
X76542857Y15366667D02*
X76542857Y14966667D01*
X76542857Y15166667D02*
X75342857Y15166667D01*
X75514285Y15100000D01*
X75628571Y15033334D01*
X75685714Y14966667D01*
X75342857Y15600000D02*
X75342857Y16033334D01*
X75800000Y15800000D01*
X75800000Y15900000D01*
X75857142Y15966667D01*
X75914285Y16000000D01*
X76028571Y16033334D01*
X76314285Y16033334D01*
X76428571Y16000000D01*
X76485714Y15966667D01*
X76542857Y15900000D01*
X76542857Y15700000D01*
X76485714Y15633334D01*
X76428571Y15600000D01*
X76542857Y17733334D02*
X76542857Y17400000D01*
X75342857Y17400000D01*
X76542857Y18066667D02*
X76485714Y18000000D01*
X76428571Y17966667D01*
X76314285Y17933334D01*
X75971428Y17933334D01*
X75857142Y17966667D01*
X75800000Y18000000D01*
X75742857Y18066667D01*
X75742857Y18166667D01*
X75800000Y18233334D01*
X75857142Y18266667D01*
X75971428Y18300000D01*
X76314285Y18300000D01*
X76428571Y18266667D01*
X76485714Y18233334D01*
X76542857Y18166667D01*
X76542857Y18066667D01*
X75742857Y18533334D02*
X76542857Y18666667D01*
X75971428Y18800000D01*
X76542857Y18933334D01*
X75742857Y19066667D01*
D11*
X42857142Y11678572D02*
X42928571Y11750000D01*
X43071428Y11821429D01*
X43428571Y11821429D01*
X43571428Y11750000D01*
X43642857Y11678572D01*
X43714285Y11535715D01*
X43714285Y11392858D01*
X43642857Y11178572D01*
X42785714Y10321429D01*
X43714285Y10321429D01*
X44214285Y11821429D02*
X45214285Y11821429D01*
X44571428Y10321429D01*
X46571428Y10321429D02*
X45714285Y10321429D01*
X46142857Y10321429D02*
X46142857Y11821429D01*
X46000000Y11607143D01*
X45857142Y11464286D01*
X45714285Y11392858D01*
X47142857Y11678572D02*
X47214285Y11750000D01*
X47357142Y11821429D01*
X47714285Y11821429D01*
X47857142Y11750000D01*
X47928571Y11678572D01*
X48000000Y11535715D01*
X48000000Y11392858D01*
X47928571Y11178572D01*
X47071428Y10321429D01*
X48000000Y10321429D01*
X48857142Y11178572D02*
X48714285Y11250000D01*
X48642857Y11321429D01*
X48571428Y11464286D01*
X48571428Y11535715D01*
X48642857Y11678572D01*
X48714285Y11750000D01*
X48857142Y11821429D01*
X49142857Y11821429D01*
X49285714Y11750000D01*
X49357142Y11678572D01*
X49428571Y11535715D01*
X49428571Y11464286D01*
X49357142Y11321429D01*
X49285714Y11250000D01*
X49142857Y11178572D01*
X48857142Y11178572D01*
X48714285Y11107143D01*
X48642857Y11035715D01*
X48571428Y10892858D01*
X48571428Y10607143D01*
X48642857Y10464286D01*
X48714285Y10392858D01*
X48857142Y10321429D01*
X49142857Y10321429D01*
X49285714Y10392858D01*
X49357142Y10464286D01*
X49428571Y10607143D01*
X49428571Y10892858D01*
X49357142Y11035715D01*
X49285714Y11107143D01*
X49142857Y11178572D01*
X51428571Y10321429D02*
X51285714Y10392858D01*
X51214285Y10464286D01*
X51142857Y10607143D01*
X51142857Y11035715D01*
X51214285Y11178572D01*
X51285714Y11250000D01*
X51428571Y11321429D01*
X51642857Y11321429D01*
X51785714Y11250000D01*
X51857142Y11178572D01*
X51928571Y11035715D01*
X51928571Y10607143D01*
X51857142Y10464286D01*
X51785714Y10392858D01*
X51642857Y10321429D01*
X51428571Y10321429D01*
X52571428Y10321429D02*
X52571428Y11321429D01*
X52571428Y11035715D02*
X52642857Y11178572D01*
X52714285Y11250000D01*
X52857142Y11321429D01*
X53000000Y11321429D01*
X54571428Y11678572D02*
X54642857Y11750000D01*
X54785714Y11821429D01*
X55142857Y11821429D01*
X55285714Y11750000D01*
X55357142Y11678572D01*
X55428571Y11535715D01*
X55428571Y11392858D01*
X55357142Y11178572D01*
X54500000Y10321429D01*
X55428571Y10321429D01*
X55928571Y11821429D02*
X56928571Y11821429D01*
X56285714Y10321429D01*
X57428571Y11678572D02*
X57500000Y11750000D01*
X57642857Y11821429D01*
X58000000Y11821429D01*
X58142857Y11750000D01*
X58214285Y11678572D01*
X58285714Y11535715D01*
X58285714Y11392858D01*
X58214285Y11178572D01*
X57357142Y10321429D01*
X58285714Y10321429D01*
X59642857Y11821429D02*
X58928571Y11821429D01*
X58857142Y11107143D01*
X58928571Y11178572D01*
X59071428Y11250000D01*
X59428571Y11250000D01*
X59571428Y11178572D01*
X59642857Y11107143D01*
X59714285Y10964286D01*
X59714285Y10607143D01*
X59642857Y10464286D01*
X59571428Y10392858D01*
X59428571Y10321429D01*
X59071428Y10321429D01*
X58928571Y10392858D01*
X58857142Y10464286D01*
X61000000Y11821429D02*
X60714285Y11821429D01*
X60571428Y11750000D01*
X60500000Y11678572D01*
X60357142Y11464286D01*
X60285714Y11178572D01*
X60285714Y10607143D01*
X60357142Y10464286D01*
X60428571Y10392858D01*
X60571428Y10321429D01*
X60857142Y10321429D01*
X61000000Y10392858D01*
X61071428Y10464286D01*
X61142857Y10607143D01*
X61142857Y10964286D01*
X61071428Y11107143D01*
X61000000Y11178572D01*
X60857142Y11250000D01*
X60571428Y11250000D01*
X60428571Y11178572D01*
X60357142Y11107143D01*
X60285714Y10964286D01*
X9928571Y11678572D02*
X10000000Y11750000D01*
X10142857Y11821429D01*
X10500000Y11821429D01*
X10642857Y11750000D01*
X10714285Y11678572D01*
X10785714Y11535715D01*
X10785714Y11392858D01*
X10714285Y11178572D01*
X9857142Y10321429D01*
X10785714Y10321429D01*
X11285714Y11821429D02*
X12214285Y11821429D01*
X11714285Y11250000D01*
X11928571Y11250000D01*
X12071428Y11178572D01*
X12142857Y11107143D01*
X12214285Y10964286D01*
X12214285Y10607143D01*
X12142857Y10464286D01*
X12071428Y10392858D01*
X11928571Y10321429D01*
X11500000Y10321429D01*
X11357142Y10392858D01*
X11285714Y10464286D01*
X13500000Y11821429D02*
X13214285Y11821429D01*
X13071428Y11750000D01*
X13000000Y11678572D01*
X12857142Y11464286D01*
X12785714Y11178572D01*
X12785714Y10607143D01*
X12857142Y10464286D01*
X12928571Y10392858D01*
X13071428Y10321429D01*
X13357142Y10321429D01*
X13500000Y10392858D01*
X13571428Y10464286D01*
X13642857Y10607143D01*
X13642857Y10964286D01*
X13571428Y11107143D01*
X13500000Y11178572D01*
X13357142Y11250000D01*
X13071428Y11250000D01*
X12928571Y11178572D01*
X12857142Y11107143D01*
X12785714Y10964286D01*
X14928571Y11321429D02*
X14928571Y10321429D01*
X14571428Y11892858D02*
X14214285Y10821429D01*
X15142857Y10821429D01*
X16857142Y10321429D02*
X16857142Y11821429D01*
X18428571Y10464286D02*
X18357142Y10392858D01*
X18142857Y10321429D01*
X18000000Y10321429D01*
X17785714Y10392858D01*
X17642857Y10535715D01*
X17571428Y10678572D01*
X17500000Y10964286D01*
X17500000Y11178572D01*
X17571428Y11464286D01*
X17642857Y11607143D01*
X17785714Y11750000D01*
X18000000Y11821429D01*
X18142857Y11821429D01*
X18357142Y11750000D01*
X18428571Y11678572D01*
X20142857Y10392858D02*
X20357142Y10321429D01*
X20714285Y10321429D01*
X20857142Y10392858D01*
X20928571Y10464286D01*
X21000000Y10607143D01*
X21000000Y10750000D01*
X20928571Y10892858D01*
X20857142Y10964286D01*
X20714285Y11035715D01*
X20428571Y11107143D01*
X20285714Y11178572D01*
X20214285Y11250000D01*
X20142857Y11392858D01*
X20142857Y11535715D01*
X20214285Y11678572D01*
X20285714Y11750000D01*
X20428571Y11821429D01*
X20785714Y11821429D01*
X21000000Y11750000D01*
X21928571Y11821429D02*
X22214285Y11821429D01*
X22357142Y11750000D01*
X22500000Y11607143D01*
X22571428Y11321429D01*
X22571428Y10821429D01*
X22500000Y10535715D01*
X22357142Y10392858D01*
X22214285Y10321429D01*
X21928571Y10321429D01*
X21785714Y10392858D01*
X21642857Y10535715D01*
X21571428Y10821429D01*
X21571428Y11321429D01*
X21642857Y11607143D01*
X21785714Y11750000D01*
X21928571Y11821429D01*
X24071428Y10464286D02*
X24000000Y10392858D01*
X23785714Y10321429D01*
X23642857Y10321429D01*
X23428571Y10392858D01*
X23285714Y10535715D01*
X23214285Y10678572D01*
X23142857Y10964286D01*
X23142857Y11178572D01*
X23214285Y11464286D01*
X23285714Y11607143D01*
X23428571Y11750000D01*
X23642857Y11821429D01*
X23785714Y11821429D01*
X24000000Y11750000D01*
X24071428Y11678572D01*
X24714285Y10321429D02*
X24714285Y11821429D01*
X25571428Y10321429D02*
X24928571Y11178572D01*
X25571428Y11821429D02*
X24714285Y10964286D01*
X26214285Y11107143D02*
X26714285Y11107143D01*
X26928571Y10321429D02*
X26214285Y10321429D01*
X26214285Y11821429D01*
X26928571Y11821429D01*
X27357142Y11821429D02*
X28214285Y11821429D01*
X27785714Y10321429D02*
X27785714Y11821429D01*
D12*
X71670000Y74590000D02*
X74330000Y74590000D01*
X71670000Y79730000D02*
X71670000Y74590000D01*
X74330000Y79730000D02*
X74330000Y74590000D01*
X71670000Y79730000D02*
X74330000Y79730000D01*
X71670000Y81000000D02*
X71670000Y82330000D01*
X71670000Y82330000D02*
X73000000Y82330000D01*
X71670000Y91330000D02*
X73000000Y91330000D01*
X71670000Y90000000D02*
X71670000Y91330000D01*
X71670000Y88730000D02*
X74330000Y88730000D01*
X74330000Y88730000D02*
X74330000Y83590000D01*
X71670000Y88730000D02*
X71670000Y83590000D01*
X71670000Y83590000D02*
X74330000Y83590000D01*
X69330000Y77320000D02*
X69330000Y82380000D01*
X33650000Y77320000D02*
X69330000Y77320000D01*
X33650000Y89440000D02*
X33650000Y77320000D01*
X69330000Y89440000D02*
X33650000Y89440000D01*
X69330000Y84380000D02*
X69330000Y89440000D01*
X69330000Y82380000D02*
G75*
G02*
X69330000Y84380000I0J1000000D01*
G01*
X32330000Y77320000D02*
X32330000Y82380000D01*
X1730000Y77320000D02*
X32330000Y77320000D01*
X1730000Y89440000D02*
X1730000Y77320000D01*
X32330000Y89440000D02*
X1730000Y89440000D01*
X32330000Y84380000D02*
X32330000Y89440000D01*
X32330000Y82380000D02*
G75*
G02*
X32330000Y84380000I0J1000000D01*
G01*
X32330000Y60380000D02*
X32330000Y65440000D01*
X32330000Y65440000D02*
X1730000Y65440000D01*
X1730000Y65440000D02*
X1730000Y53320000D01*
X1730000Y53320000D02*
X32330000Y53320000D01*
X32330000Y53320000D02*
X32330000Y58380000D01*
X32330000Y58380000D02*
G75*
G02*
X32330000Y60380000I0J1000000D01*
G01*
X69330000Y60380000D02*
X69330000Y65440000D01*
X69330000Y65440000D02*
X33650000Y65440000D01*
X33650000Y65440000D02*
X33650000Y53320000D01*
X33650000Y53320000D02*
X69330000Y53320000D01*
X69330000Y53320000D02*
X69330000Y58380000D01*
X69330000Y58380000D02*
G75*
G02*
X69330000Y60380000I0J1000000D01*
G01*
X71670000Y59590000D02*
X74330000Y59590000D01*
X71670000Y64730000D02*
X71670000Y59590000D01*
X74330000Y64730000D02*
X74330000Y59590000D01*
X71670000Y64730000D02*
X74330000Y64730000D01*
X71670000Y66000000D02*
X71670000Y67330000D01*
X71670000Y67330000D02*
X73000000Y67330000D01*
X71670000Y58330000D02*
X73000000Y58330000D01*
X71670000Y57000000D02*
X71670000Y58330000D01*
X71670000Y55730000D02*
X74330000Y55730000D01*
X74330000Y55730000D02*
X74330000Y50590000D01*
X71670000Y55730000D02*
X71670000Y50590000D01*
X71670000Y50590000D02*
X74330000Y50590000D01*
X32330000Y36380000D02*
X32330000Y41440000D01*
X32330000Y41440000D02*
X1730000Y41440000D01*
X1730000Y41440000D02*
X1730000Y29320000D01*
X1730000Y29320000D02*
X32330000Y29320000D01*
X32330000Y29320000D02*
X32330000Y34380000D01*
X32330000Y34380000D02*
G75*
G02*
X32330000Y36380000I0J1000000D01*
G01*
X69330000Y36380000D02*
X69330000Y41440000D01*
X69330000Y41440000D02*
X33650000Y41440000D01*
X33650000Y41440000D02*
X33650000Y29320000D01*
X33650000Y29320000D02*
X69330000Y29320000D01*
X69330000Y29320000D02*
X69330000Y34380000D01*
X69330000Y34380000D02*
G75*
G02*
X69330000Y36380000I0J1000000D01*
G01*
X71670000Y35590000D02*
X74330000Y35590000D01*
X71670000Y40730000D02*
X71670000Y35590000D01*
X74330000Y40730000D02*
X74330000Y35590000D01*
X71670000Y40730000D02*
X74330000Y40730000D01*
X71670000Y42000000D02*
X71670000Y43330000D01*
X71670000Y43330000D02*
X73000000Y43330000D01*
X71670000Y34330000D02*
X73000000Y34330000D01*
X71670000Y33000000D02*
X71670000Y34330000D01*
X71670000Y31730000D02*
X74330000Y31730000D01*
X74330000Y31730000D02*
X74330000Y26590000D01*
X71670000Y31730000D02*
X71670000Y26590000D01*
X71670000Y26590000D02*
X74330000Y26590000D01*
X71670000Y2590000D02*
X74330000Y2590000D01*
X71670000Y7730000D02*
X71670000Y2590000D01*
X74330000Y7730000D02*
X74330000Y2590000D01*
X71670000Y7730000D02*
X74330000Y7730000D01*
X71670000Y9000000D02*
X71670000Y10330000D01*
X71670000Y10330000D02*
X73000000Y10330000D01*
X71670000Y19330000D02*
X73000000Y19330000D01*
X71670000Y18000000D02*
X71670000Y19330000D01*
X71670000Y16730000D02*
X74330000Y16730000D01*
X74330000Y16730000D02*
X74330000Y11590000D01*
X71670000Y16730000D02*
X71670000Y11590000D01*
X71670000Y11590000D02*
X74330000Y11590000D01*
X69330000Y5320000D02*
X69330000Y10380000D01*
X33650000Y5320000D02*
X69330000Y5320000D01*
X33650000Y17440000D02*
X33650000Y5320000D01*
X69330000Y17440000D02*
X33650000Y17440000D01*
X69330000Y12380000D02*
X69330000Y17440000D01*
X69330000Y10380000D02*
G75*
G02*
X69330000Y12380000I0J1000000D01*
G01*
X32330000Y5320000D02*
X32330000Y10380000D01*
X1730000Y5320000D02*
X32330000Y5320000D01*
X1730000Y17440000D02*
X1730000Y5320000D01*
X32330000Y17440000D02*
X1730000Y17440000D01*
X32330000Y12380000D02*
X32330000Y17440000D01*
X32330000Y10380000D02*
G75*
G02*
X32330000Y12380000I0J1000000D01*
G01*
D13*
X71404761Y77238096D02*
X71452380Y77380953D01*
X71452380Y77619048D01*
X71404761Y77714286D01*
X71357142Y77761905D01*
X71261904Y77809524D01*
X71166666Y77809524D01*
X71071428Y77761905D01*
X71023809Y77714286D01*
X70976190Y77619048D01*
X70928571Y77428572D01*
X70880952Y77333334D01*
X70833333Y77285715D01*
X70738095Y77238096D01*
X70642857Y77238096D01*
X70547619Y77285715D01*
X70500000Y77333334D01*
X70452380Y77428572D01*
X70452380Y77666667D01*
X70500000Y77809524D01*
X71452380Y78761905D02*
X71452380Y78190477D01*
X71452380Y78476191D02*
X70452380Y78476191D01*
X70595238Y78380953D01*
X70690476Y78285715D01*
X70738095Y78190477D01*
X71404761Y85238096D02*
X71452380Y85380953D01*
X71452380Y85619048D01*
X71404761Y85714286D01*
X71357142Y85761905D01*
X71261904Y85809524D01*
X71166666Y85809524D01*
X71071428Y85761905D01*
X71023809Y85714286D01*
X70976190Y85619048D01*
X70928571Y85428572D01*
X70880952Y85333334D01*
X70833333Y85285715D01*
X70738095Y85238096D01*
X70642857Y85238096D01*
X70547619Y85285715D01*
X70500000Y85333334D01*
X70452380Y85428572D01*
X70452380Y85666667D01*
X70500000Y85809524D01*
X70547619Y86190477D02*
X70500000Y86238096D01*
X70452380Y86333334D01*
X70452380Y86571429D01*
X70500000Y86666667D01*
X70547619Y86714286D01*
X70642857Y86761905D01*
X70738095Y86761905D01*
X70880952Y86714286D01*
X71452380Y86142858D01*
X71452380Y86761905D01*
X38238095Y83927620D02*
X38238095Y83118096D01*
X38285714Y83022858D01*
X38333333Y82975239D01*
X38428571Y82927620D01*
X38619047Y82927620D01*
X38714285Y82975239D01*
X38761904Y83022858D01*
X38809523Y83118096D01*
X38809523Y83927620D01*
X39809523Y82927620D02*
X39238095Y82927620D01*
X39523809Y82927620D02*
X39523809Y83927620D01*
X39428571Y83784762D01*
X39333333Y83689524D01*
X39238095Y83641905D01*
X5238095Y83547620D02*
X5238095Y82738096D01*
X5285714Y82642858D01*
X5333333Y82595239D01*
X5428571Y82547620D01*
X5619047Y82547620D01*
X5714285Y82595239D01*
X5761904Y82642858D01*
X5809523Y82738096D01*
X5809523Y83547620D01*
X6238095Y83452381D02*
X6285714Y83500000D01*
X6380952Y83547620D01*
X6619047Y83547620D01*
X6714285Y83500000D01*
X6761904Y83452381D01*
X6809523Y83357143D01*
X6809523Y83261905D01*
X6761904Y83119048D01*
X6190476Y82547620D01*
X6809523Y82547620D01*
X5238095Y59547620D02*
X5238095Y58738096D01*
X5285714Y58642858D01*
X5333333Y58595239D01*
X5428571Y58547620D01*
X5619047Y58547620D01*
X5714285Y58595239D01*
X5761904Y58642858D01*
X5809523Y58738096D01*
X5809523Y59547620D01*
X6238095Y59452381D02*
X6285714Y59500000D01*
X6380952Y59547620D01*
X6619047Y59547620D01*
X6714285Y59500000D01*
X6761904Y59452381D01*
X6809523Y59357143D01*
X6809523Y59261905D01*
X6761904Y59119048D01*
X6190476Y58547620D01*
X6809523Y58547620D01*
X38238095Y59927620D02*
X38238095Y59118096D01*
X38285714Y59022858D01*
X38333333Y58975239D01*
X38428571Y58927620D01*
X38619047Y58927620D01*
X38714285Y58975239D01*
X38761904Y59022858D01*
X38809523Y59118096D01*
X38809523Y59927620D01*
X39809523Y58927620D02*
X39238095Y58927620D01*
X39523809Y58927620D02*
X39523809Y59927620D01*
X39428571Y59784762D01*
X39333333Y59689524D01*
X39238095Y59641905D01*
X71404761Y61238096D02*
X71452380Y61380953D01*
X71452380Y61619048D01*
X71404761Y61714286D01*
X71357142Y61761905D01*
X71261904Y61809524D01*
X71166666Y61809524D01*
X71071428Y61761905D01*
X71023809Y61714286D01*
X70976190Y61619048D01*
X70928571Y61428572D01*
X70880952Y61333334D01*
X70833333Y61285715D01*
X70738095Y61238096D01*
X70642857Y61238096D01*
X70547619Y61285715D01*
X70500000Y61333334D01*
X70452380Y61428572D01*
X70452380Y61666667D01*
X70500000Y61809524D01*
X70547619Y62190477D02*
X70500000Y62238096D01*
X70452380Y62333334D01*
X70452380Y62571429D01*
X70500000Y62666667D01*
X70547619Y62714286D01*
X70642857Y62761905D01*
X70738095Y62761905D01*
X70880952Y62714286D01*
X71452380Y62142858D01*
X71452380Y62761905D01*
X71404761Y53238096D02*
X71452380Y53380953D01*
X71452380Y53619048D01*
X71404761Y53714286D01*
X71357142Y53761905D01*
X71261904Y53809524D01*
X71166666Y53809524D01*
X71071428Y53761905D01*
X71023809Y53714286D01*
X70976190Y53619048D01*
X70928571Y53428572D01*
X70880952Y53333334D01*
X70833333Y53285715D01*
X70738095Y53238096D01*
X70642857Y53238096D01*
X70547619Y53285715D01*
X70500000Y53333334D01*
X70452380Y53428572D01*
X70452380Y53666667D01*
X70500000Y53809524D01*
X71452380Y54761905D02*
X71452380Y54190477D01*
X71452380Y54476191D02*
X70452380Y54476191D01*
X70595238Y54380953D01*
X70690476Y54285715D01*
X70738095Y54190477D01*
X5238095Y35547620D02*
X5238095Y34738096D01*
X5285714Y34642858D01*
X5333333Y34595239D01*
X5428571Y34547620D01*
X5619047Y34547620D01*
X5714285Y34595239D01*
X5761904Y34642858D01*
X5809523Y34738096D01*
X5809523Y35547620D01*
X6238095Y35452381D02*
X6285714Y35500000D01*
X6380952Y35547620D01*
X6619047Y35547620D01*
X6714285Y35500000D01*
X6761904Y35452381D01*
X6809523Y35357143D01*
X6809523Y35261905D01*
X6761904Y35119048D01*
X6190476Y34547620D01*
X6809523Y34547620D01*
X38238095Y35927620D02*
X38238095Y35118096D01*
X38285714Y35022858D01*
X38333333Y34975239D01*
X38428571Y34927620D01*
X38619047Y34927620D01*
X38714285Y34975239D01*
X38761904Y35022858D01*
X38809523Y35118096D01*
X38809523Y35927620D01*
X39809523Y34927620D02*
X39238095Y34927620D01*
X39523809Y34927620D02*
X39523809Y35927620D01*
X39428571Y35784762D01*
X39333333Y35689524D01*
X39238095Y35641905D01*
X71404761Y37238096D02*
X71452380Y37380953D01*
X71452380Y37619048D01*
X71404761Y37714286D01*
X71357142Y37761905D01*
X71261904Y37809524D01*
X71166666Y37809524D01*
X71071428Y37761905D01*
X71023809Y37714286D01*
X70976190Y37619048D01*
X70928571Y37428572D01*
X70880952Y37333334D01*
X70833333Y37285715D01*
X70738095Y37238096D01*
X70642857Y37238096D01*
X70547619Y37285715D01*
X70500000Y37333334D01*
X70452380Y37428572D01*
X70452380Y37666667D01*
X70500000Y37809524D01*
X70547619Y38190477D02*
X70500000Y38238096D01*
X70452380Y38333334D01*
X70452380Y38571429D01*
X70500000Y38666667D01*
X70547619Y38714286D01*
X70642857Y38761905D01*
X70738095Y38761905D01*
X70880952Y38714286D01*
X71452380Y38142858D01*
X71452380Y38761905D01*
X71404761Y29238096D02*
X71452380Y29380953D01*
X71452380Y29619048D01*
X71404761Y29714286D01*
X71357142Y29761905D01*
X71261904Y29809524D01*
X71166666Y29809524D01*
X71071428Y29761905D01*
X71023809Y29714286D01*
X70976190Y29619048D01*
X70928571Y29428572D01*
X70880952Y29333334D01*
X70833333Y29285715D01*
X70738095Y29238096D01*
X70642857Y29238096D01*
X70547619Y29285715D01*
X70500000Y29333334D01*
X70452380Y29428572D01*
X70452380Y29666667D01*
X70500000Y29809524D01*
X71452380Y30761905D02*
X71452380Y30190477D01*
X71452380Y30476191D02*
X70452380Y30476191D01*
X70595238Y30380953D01*
X70690476Y30285715D01*
X70738095Y30190477D01*
X71404761Y5238096D02*
X71452380Y5380953D01*
X71452380Y5619048D01*
X71404761Y5714286D01*
X71357142Y5761905D01*
X71261904Y5809524D01*
X71166666Y5809524D01*
X71071428Y5761905D01*
X71023809Y5714286D01*
X70976190Y5619048D01*
X70928571Y5428572D01*
X70880952Y5333334D01*
X70833333Y5285715D01*
X70738095Y5238096D01*
X70642857Y5238096D01*
X70547619Y5285715D01*
X70500000Y5333334D01*
X70452380Y5428572D01*
X70452380Y5666667D01*
X70500000Y5809524D01*
X71452380Y6761905D02*
X71452380Y6190477D01*
X71452380Y6476191D02*
X70452380Y6476191D01*
X70595238Y6380953D01*
X70690476Y6285715D01*
X70738095Y6190477D01*
X71404761Y13238096D02*
X71452380Y13380953D01*
X71452380Y13619048D01*
X71404761Y13714286D01*
X71357142Y13761905D01*
X71261904Y13809524D01*
X71166666Y13809524D01*
X71071428Y13761905D01*
X71023809Y13714286D01*
X70976190Y13619048D01*
X70928571Y13428572D01*
X70880952Y13333334D01*
X70833333Y13285715D01*
X70738095Y13238096D01*
X70642857Y13238096D01*
X70547619Y13285715D01*
X70500000Y13333334D01*
X70452380Y13428572D01*
X70452380Y13666667D01*
X70500000Y13809524D01*
X70547619Y14190477D02*
X70500000Y14238096D01*
X70452380Y14333334D01*
X70452380Y14571429D01*
X70500000Y14666667D01*
X70547619Y14714286D01*
X70642857Y14761905D01*
X70738095Y14761905D01*
X70880952Y14714286D01*
X71452380Y14142858D01*
X71452380Y14761905D01*
X38238095Y11927620D02*
X38238095Y11118096D01*
X38285714Y11022858D01*
X38333333Y10975239D01*
X38428571Y10927620D01*
X38619047Y10927620D01*
X38714285Y10975239D01*
X38761904Y11022858D01*
X38809523Y11118096D01*
X38809523Y11927620D01*
X39809523Y10927620D02*
X39238095Y10927620D01*
X39523809Y10927620D02*
X39523809Y11927620D01*
X39428571Y11784762D01*
X39333333Y11689524D01*
X39238095Y11641905D01*
X5238095Y11547620D02*
X5238095Y10738096D01*
X5285714Y10642858D01*
X5333333Y10595239D01*
X5428571Y10547620D01*
X5619047Y10547620D01*
X5714285Y10595239D01*
X5761904Y10642858D01*
X5809523Y10738096D01*
X5809523Y11547620D01*
X6238095Y11452381D02*
X6285714Y11500000D01*
X6380952Y11547620D01*
X6619047Y11547620D01*
X6714285Y11500000D01*
X6761904Y11452381D01*
X6809523Y11357143D01*
X6809523Y11261905D01*
X6761904Y11119048D01*
X6190476Y10547620D01*
X6809523Y10547620D01*
M02*
