M48
; DRILL file {KiCad (5.1.9)-1} date 11/24/22 18:27:04
; FORMAT={-:-/ absolute / metric / decimal}
; #@! TF.CreationDate,2022-11-24T18:27:04+09:00
; #@! TF.GenerationSoftware,Kicad,Pcbnew,(5.1.9)-1
FMAT,2
METRIC
T1C0.800
T2C1.000
%
G90
G05
T1
X3.06Y91.0
X3.06Y75.76
X3.06Y67.0
X3.06Y51.76
X3.06Y43.0
X3.06Y27.76
X3.06Y19.0
X3.06Y3.76
X5.6Y91.0
X5.6Y75.76
X5.6Y67.0
X5.6Y51.76
X5.6Y43.0
X5.6Y27.76
X5.6Y19.0
X5.6Y3.76
X8.14Y91.0
X8.14Y75.76
X8.14Y67.0
X8.14Y51.76
X8.14Y43.0
X8.14Y27.76
X8.14Y19.0
X8.14Y3.76
X10.68Y91.0
X10.68Y75.76
X10.68Y67.0
X10.68Y51.76
X10.68Y43.0
X10.68Y27.76
X10.68Y19.0
X10.68Y3.76
X13.22Y91.0
X13.22Y75.76
X13.22Y67.0
X13.22Y51.76
X13.22Y43.0
X13.22Y27.76
X13.22Y19.0
X13.22Y3.76
X15.76Y91.0
X15.76Y75.76
X15.76Y67.0
X15.76Y51.76
X15.76Y43.0
X15.76Y27.76
X15.76Y19.0
X15.76Y3.76
X18.3Y91.0
X18.3Y75.76
X18.3Y67.0
X18.3Y51.76
X18.3Y43.0
X18.3Y27.76
X18.3Y19.0
X18.3Y3.76
X20.84Y91.0
X20.84Y75.76
X20.84Y67.0
X20.84Y51.76
X20.84Y43.0
X20.84Y27.76
X20.84Y19.0
X20.84Y3.76
X23.38Y91.0
X23.38Y75.76
X23.38Y67.0
X23.38Y51.76
X23.38Y43.0
X23.38Y27.76
X23.38Y19.0
X23.38Y3.76
X25.92Y91.0
X25.92Y75.76
X25.92Y67.0
X25.92Y51.76
X25.92Y43.0
X25.92Y27.76
X25.92Y19.0
X25.92Y3.76
X28.46Y91.0
X28.46Y75.76
X28.46Y67.0
X28.46Y51.76
X28.46Y43.0
X28.46Y27.76
X28.46Y19.0
X28.46Y3.76
X31.0Y91.0
X31.0Y75.76
X31.0Y67.0
X31.0Y51.76
X31.0Y43.0
X31.0Y27.76
X31.0Y19.0
X31.0Y3.76
X34.98Y91.0
X34.98Y75.76
X34.98Y67.0
X34.98Y51.76
X34.98Y43.0
X34.98Y27.76
X34.98Y19.0
X34.98Y3.76
X37.52Y91.0
X37.52Y75.76
X37.52Y67.0
X37.52Y51.76
X37.52Y43.0
X37.52Y27.76
X37.52Y19.0
X37.52Y3.76
X40.06Y91.0
X40.06Y75.76
X40.06Y67.0
X40.06Y51.76
X40.06Y43.0
X40.06Y27.76
X40.06Y19.0
X40.06Y3.76
X42.6Y91.0
X42.6Y75.76
X42.6Y67.0
X42.6Y51.76
X42.6Y43.0
X42.6Y27.76
X42.6Y19.0
X42.6Y3.76
X45.14Y91.0
X45.14Y75.76
X45.14Y67.0
X45.14Y51.76
X45.14Y43.0
X45.14Y27.76
X45.14Y19.0
X45.14Y3.76
X47.68Y91.0
X47.68Y75.76
X47.68Y67.0
X47.68Y51.76
X47.68Y43.0
X47.68Y27.76
X47.68Y19.0
X47.68Y3.76
X50.22Y91.0
X50.22Y75.76
X50.22Y67.0
X50.22Y51.76
X50.22Y43.0
X50.22Y27.76
X50.22Y19.0
X50.22Y3.76
X52.76Y91.0
X52.76Y75.76
X52.76Y67.0
X52.76Y51.76
X52.76Y43.0
X52.76Y27.76
X52.76Y19.0
X52.76Y3.76
X55.3Y91.0
X55.3Y75.76
X55.3Y67.0
X55.3Y51.76
X55.3Y43.0
X55.3Y27.76
X55.3Y19.0
X55.3Y3.76
X57.84Y91.0
X57.84Y75.76
X57.84Y67.0
X57.84Y51.76
X57.84Y43.0
X57.84Y27.76
X57.84Y19.0
X57.84Y3.76
X60.38Y91.0
X60.38Y75.76
X60.38Y67.0
X60.38Y51.76
X60.38Y43.0
X60.38Y27.76
X60.38Y19.0
X60.38Y3.76
X62.92Y91.0
X62.92Y75.76
X62.92Y67.0
X62.92Y51.76
X62.92Y43.0
X62.92Y27.76
X62.92Y19.0
X62.92Y3.76
X65.46Y91.0
X65.46Y75.76
X65.46Y67.0
X65.46Y51.76
X65.46Y43.0
X65.46Y27.76
X65.46Y19.0
X65.46Y3.76
X68.0Y91.0
X68.0Y75.76
X68.0Y67.0
X68.0Y51.76
X68.0Y43.0
X68.0Y27.76
X68.0Y19.0
X68.0Y3.76
T2
X73.0Y90.0
X73.0Y87.46
X73.0Y84.92
X73.0Y81.0
X73.0Y78.46
X73.0Y75.92
X73.0Y66.0
X73.0Y63.46
X73.0Y60.92
X73.0Y57.0
X73.0Y54.46
X73.0Y51.92
X73.0Y42.0
X73.0Y39.46
X73.0Y36.92
X73.0Y33.0
X73.0Y30.46
X73.0Y27.92
X73.0Y18.0
X73.0Y15.46
X73.0Y12.92
X73.0Y9.0
X73.0Y6.46
X73.0Y3.92
T0
M30
